<?xml version="1.0" encoding="iso-8859-1"?>
<!-- Generator: Adobe Illustrator 19.0.0, SVG Export Plug-In . SVG Version: 6.00 Build 0)  -->
<svg version="1.1" id="Layer_1" xmlns="http://www.w3.org/2000/svg" xmlns:xlink="http://www.w3.org/1999/xlink" x="0px" y="0px"
	 viewBox="0 0 512 512" style="enable-background:new 0 0 512 512;" xml:space="preserve">
<circle style="fill:#4AB8A1;" cx="256" cy="256" r="256"/>
<path style="fill:#263740;" d="M78.252,71.868L511.4,272.712c0.188-2.864,0.308-5.744,0.404-8.632L84.516,65.956
	C82.384,67.884,80.312,69.872,78.252,71.868z"/>
<path style="fill:#172126;" d="M158.744,109.192l56.616,26.252c1.632-2.12,3.024-4.432,4.084-6.924l-58.008-26.896
	C160.252,103.996,159.32,106.528,158.744,109.192z"/>
<path style="fill:#263740;" d="M214,115.996c0,17.66-14.348,32.004-32,32.004c-17.696,0-32-14.344-32-32.004
	C150,98.36,164.304,84,182,84C199.652,84,214,98.36,214,115.996z"/>
<path style="fill:#1E2C33;" d="M182,84c-1.36,0-2.692,0.108-4.004,0.272C193.756,86.248,206,99.708,206,115.996
	c0,16.304-12.244,29.752-28.004,31.732C179.308,147.892,180.64,148,182,148c17.652,0,32-14.344,32-32.004
	C214,98.36,199.652,84,182,84z"/>
<rect x="104" y="176" style="fill:#E6E6E6;" width="152" height="132"/>
<path style="fill:#CC584C;" d="M256,316v60c0,13.2-10.8,24-24,24H128c-13.2,0-24-10.8-24-24v-60H256z"/>
<path style="fill:#BF5347;" d="M248,316v60c0,13.2-10.8,24-24,24h8c13.2,0,24-10.8,24-24v-60H248z"/>
<rect x="104" y="308" style="fill:#263740;" width="152" height="8"/>
<rect x="248" y="308" style="fill:#1E2C33;" width="8" height="8"/>
<path style="fill:#263740;" d="M272,176c0,4.4-3.6,8-8,8H96c-4.4,0-8-3.6-8-8l0,0c0-4.4,3.6-8,8-8h168C268.4,168,272,171.6,272,176
	L272,176z"/>
<path style="fill:#1E2C33;" d="M264,168h-8c4.4,0,8,3.6,8,8s-3.6,8-8,8h8c4.4,0,8-3.6,8-8S268.4,168,264,168z"/>
<rect x="120" y="192" style="fill:#A4BFCC;" width="120" height="108"/>
<rect x="124" y="196" style="fill:#C2E2F2;" width="112" height="100"/>
<g>
	<path style="fill:#F5F5F5;" d="M136,232c-1.024,0-2.048-0.392-2.828-1.172c-1.564-1.564-1.564-4.092,0-5.656l20-20
		c1.564-1.564,4.092-1.564,5.656,0s1.564,4.092,0,5.656l-20,20C138.048,231.608,137.024,232,136,232z"/>
	<path style="fill:#F5F5F5;" d="M136,260c-1.024,0-2.048-0.392-2.828-1.172c-1.564-1.564-1.564-4.092,0-5.656l44-44
		c1.564-1.564,4.092-1.564,5.656,0s1.564,4.092,0,5.656l-44,44C138.048,259.608,137.024,260,136,260z"/>
</g>
<rect x="176" y="136" style="fill:#263740;" width="8" height="40"/>
<rect x="248" y="184" style="fill:#CCCCCC;" width="8" height="124"/>
<path style="fill:#198058;" d="M503.82,320.396L427,376l-57-60l-77.892,193.416C394.98,494.884,478.204,419.26,503.82,320.396z"/>
<polygon style="fill:#F5F5F5;" points="427,376 370,316 335.28,402.212 361.5,366 374,387 387,361.5 "/>
<g>
</g>
<g>
</g>
<g>
</g>
<g>
</g>
<g>
</g>
<g>
</g>
<g>
</g>
<g>
</g>
<g>
</g>
<g>
</g>
<g>
</g>
<g>
</g>
<g>
</g>
<g>
</g>
<g>
</g>
</svg>
