<?xml version="1.0" encoding="iso-8859-1"?>
<!-- Generator: Adobe Illustrator 19.0.0, SVG Export Plug-In . SVG Version: 6.00 Build 0)  -->
<svg version="1.1" id="Layer_1" xmlns="http://www.w3.org/2000/svg" xmlns:xlink="http://www.w3.org/1999/xlink" x="0px" y="0px"
	 viewBox="0 0 481.882 481.882" style="enable-background:new 0 0 481.882 481.882;" xml:space="preserve">
<path style="fill:#F0F0F0;" d="M477.056,154.729c-2.628-2.635-6.249-4.141-10.232-4.141h-75.294v150.588h75.294
	c8.297,0,15.059-6.761,15.059-15.059V165.647C481.882,161.363,480,157.448,477.056,154.729z"/>
<rect x="203.294" y="331.294" style="fill:#733725;" width="75.294" height="150.588"/>
<rect x="203.294" y="331.294" style="fill:#8F4D38;" width="37.647" height="150.588"/>
<path style="fill:#F0F0F0;" d="M361.412,331.294H22.588C10.112,331.294,0,321.182,0,308.706V112.941
	c0-12.476,10.112-22.588,22.588-22.588h338.824V331.294z"/>
<rect x="361.412" y="90.353" style="fill:#CFD3D4;" width="30.118" height="240.941"/>
<path style="fill:#D32F2F;" d="M240.941,0h-128c-16.64,0-30.118,13.485-30.118,30.118v37.647h128v97.882
	c0,8.32,6.746,15.059,15.059,15.059s15.059-6.739,15.059-15.059V0z"/>
<path style="fill:#EF5350;" d="M82.824,30.118v37.647h26.18L176.768,0h-63.827C96.301,0,82.824,13.493,82.824,30.118z"/>
<path style="fill:#FFFFFF;" d="M391.529,228.036l85.527-73.306c-2.628-2.635-6.249-4.141-10.232-4.141h-75.294V228.036z"/>
<g>
</g>
<g>
</g>
<g>
</g>
<g>
</g>
<g>
</g>
<g>
</g>
<g>
</g>
<g>
</g>
<g>
</g>
<g>
</g>
<g>
</g>
<g>
</g>
<g>
</g>
<g>
</g>
<g>
</g>
</svg>
