<?xml version="1.0" encoding="iso-8859-1"?>
<!-- Generator: Adobe Illustrator 19.0.0, SVG Export Plug-In . SVG Version: 6.00 Build 0)  -->
<svg version="1.1" id="Layer_1" xmlns="http://www.w3.org/2000/svg" xmlns:xlink="http://www.w3.org/1999/xlink" x="0px" y="0px"
	 viewBox="0 0 481.893 481.893" style="enable-background:new 0 0 481.893 481.893;" xml:space="preserve">
<path style="fill:#FDD835;" d="M481.68,118.819c0.444-1.37,0.181-2.861-0.663-4.028c-0.858-1.16-2.199-1.845-3.652-1.845h-0.03
	c-0.843,0-1.664,0.286-2.319,0.813c-6.272,5.105-43.196,32.392-86.302,38.325c-1.438,0.188-2.65,1.212-3.087,2.62
	c-0.429,1.4-0.008,2.921,1.092,3.9c12.205,11.016,19.87,26.97,19.87,44.695c0,33.28-26.955,60.235-60.235,60.235
	s-60.235-26.955-60.235-60.235c0-24.952,15.164-46.336,36.759-55.492c1.333-0.572,2.221-1.852,2.289-3.298
	c0.075-1.446-0.7-2.808-1.98-3.494c-28.913-15.578-56.9-55.74-78.705-115.945c-0.542-1.483-1.95-2.477-3.539-2.477
	c-1.581,0-2.997,0.994-3.539,2.477c-21.805,60.205-49.784,100.367-78.705,115.945c-1.28,0.685-2.04,2.04-1.98,3.494
	c0.068,1.438,0.956,2.718,2.289,3.298c21.602,9.156,36.759,30.539,36.759,55.492c0,33.28-26.955,60.235-60.235,60.235
	s-60.235-26.955-60.235-60.235c0-17.724,7.665-33.679,19.87-44.702c1.092-0.979,1.506-2.5,1.084-3.9
	c-0.444-1.408-1.641-2.424-3.087-2.62c-43.098-5.933-80.03-33.22-86.302-38.325c-0.663-0.52-1.468-0.806-2.312-0.806H4.511
	c-1.438,0-2.793,0.685-3.637,1.845c-0.843,1.167-1.099,2.665-0.655,4.028l52.488,295.304h376.471L481.68,118.819z"/>
<polygon style="fill:#EF5350;" points="240.942,105.417 210.824,143.064 240.942,180.711 271.06,143.064 "/>
<path style="fill:#FFEE58;" d="M240.942,22.594c-1.581,0-2.997,0.994-3.539,2.477c-21.805,60.205-49.784,100.367-78.705,115.945
	c-1.28,0.685-2.04,2.04-1.98,3.494c0.068,1.438,0.956,2.718,2.289,3.298c21.602,9.156,36.759,30.539,36.759,55.492
	c0,33.28-26.955,60.235-60.235,60.235s-60.235-26.955-60.235-60.235c0-17.724,7.665-33.679,19.87-44.702
	c1.092-0.979,1.506-2.5,1.084-3.9c-0.444-1.408-1.641-2.424-3.087-2.62c-43.098-5.933-80.03-33.22-86.302-38.325
	c-0.663-0.52-1.468-0.806-2.312-0.806H4.511c-1.438,0-2.793,0.685-3.637,1.845c-0.851,1.167-1.099,2.673-0.663,4.028l52.495,295.304
	h188.235V22.594z"/>
<polygon style="fill:#D32F2F;" points="36.639,323.77 52.707,414.123 429.177,414.123 445.245,323.77 "/>
<path style="fill:#FFEE58;" d="M436.707,451.77c0,4.164-3.373,7.529-7.529,7.529H52.707c-4.156,0-7.529-3.366-7.529-7.529v-30.118
	c0-4.156,3.373-7.529,7.529-7.529h376.471c4.156,0,7.529,3.373,7.529,7.529V451.77z"/>
<g>
	<path style="fill:#FFF59D;" d="M459.295,316.241c0,4.164-3.373,7.529-7.529,7.529H30.118c-4.156,0-7.529-3.366-7.529-7.529v-15.059
		c0-4.156,3.373-7.529,7.529-7.529h421.647c4.156,0,7.529,3.373,7.529,7.529V316.241z"/>
	<circle style="fill:#FFF59D;" cx="346.354" cy="368.947" r="15.059"/>
</g>
<polygon style="fill:#EF5350;" points="240.942,323.77 36.639,323.77 52.707,414.123 240.942,414.123 "/>
<polygon style="fill:#E57373;" points="210.824,143.064 240.942,180.711 240.942,105.417 "/>
<g>
	<circle style="fill:#FFF59D;" cx="135.53" cy="368.947" r="15.059"/>
	<circle style="fill:#FFF59D;" cx="240.942" cy="368.947" r="15.059"/>
</g>
<g>
</g>
<g>
</g>
<g>
</g>
<g>
</g>
<g>
</g>
<g>
</g>
<g>
</g>
<g>
</g>
<g>
</g>
<g>
</g>
<g>
</g>
<g>
</g>
<g>
</g>
<g>
</g>
<g>
</g>
</svg>
