<?xml version="1.0" encoding="iso-8859-1"?>
<!-- Generator: Adobe Illustrator 19.0.0, SVG Export Plug-In . SVG Version: 6.00 Build 0)  -->
<svg version="1.1" id="Layer_1" xmlns="http://www.w3.org/2000/svg" xmlns:xlink="http://www.w3.org/1999/xlink" x="0px" y="0px"
	 viewBox="0 0 512 512" style="enable-background:new 0 0 512 512;" xml:space="preserve">
<rect x="100.593" y="454.54" style="fill:#353F49;" width="402.24" height="57.46"/>
<g>
	<rect x="169.563" y="454.54" style="fill:#F2F2F2;" width="34.47" height="57.46"/>
	<rect x="146.573" y="454.54" style="fill:#F2F2F2;" width="11.489" height="57.46"/>
	<rect x="399.403" y="454.54" style="fill:#F2F2F2;" width="34.481" height="57.46"/>
	<rect x="445.373" y="454.54" style="fill:#F2F2F2;" width="11.5" height="57.46"/>
</g>
<path style="fill:#76D0DE;" d="M373.168,385.5c-3.154-3.139-7.273-4.708-11.397-4.708H9.167v9.382h352.602
	c1.805,0,3.494,0.699,4.746,1.961c1.26,1.267,1.964,2.957,1.964,4.746v41.564c0,1.784-0.701,3.474-1.964,4.744
	c-1.252,1.26-2.941,1.953-4.746,1.953H9.167v9.398h352.602c4.124,0,8.243-1.58,11.397-4.715c3.123-3.149,4.69-7.26,4.69-11.377
	v-41.564C377.858,392.76,376.288,388.641,373.168,385.5z"/>
<path style="fill:#F2F2F2;" d="M18.534,445.143v-54.968h343.237c1.805,0,3.494,0.699,4.746,1.961
	c1.26,1.267,1.964,2.957,1.964,4.746v41.564c0,1.784-0.701,3.474-1.964,4.744c-1.252,1.26-2.941,1.953-4.746,1.953H18.534z"/>
<g>
	<path style="fill:#CCCBCA;" d="M193.507,393.254H367.41c-0.257-0.399-0.554-0.775-0.896-1.119c-1.249-1.26-2.939-1.961-4.746-1.961
		H193.507V393.254z"/>
	<path style="fill:#CCCBCA;" d="M193.507,399.025h174.971v-2.143c0-0.318-0.03-0.632-0.074-0.942H193.507V399.025z"/>
	<rect x="193.503" y="401.7" style="fill:#CCCBCA;" width="174.97" height="3.092"/>
	<rect x="193.503" y="407.47" style="fill:#CCCBCA;" width="174.97" height="3.093"/>
	<rect x="193.503" y="413.24" style="fill:#CCCBCA;" width="174.97" height="3.085"/>
	<path style="fill:#CCCBCA;" d="M193.507,445.143h168.261c1.805,0,3.494-0.694,4.746-1.953c0.341-0.343,0.638-0.72,0.895-1.119
		H193.507V445.143z"/>
	<rect x="193.503" y="430.54" style="fill:#CCCBCA;" width="174.97" height="3.085"/>
	<path style="fill:#CCCBCA;" d="M193.507,439.386h174.897c0.044-0.309,0.074-0.622,0.074-0.939v-2.148H193.507V439.386z"/>
	<rect x="193.503" y="424.77" style="fill:#CCCBCA;" width="174.97" height="3.085"/>
	<rect x="193.503" y="419" style="fill:#CCCBCA;" width="174.97" height="3.08"/>
</g>
<g>
	<path style="fill:#FFFFFF;" d="M193.507,395.94h174.897c-0.135-0.961-0.472-1.874-0.994-2.685H193.507V395.94z"/>
	<rect x="193.503" y="399.02" style="fill:#FFFFFF;" width="174.97" height="2.675"/>
	<rect x="193.503" y="404.79" style="fill:#FFFFFF;" width="174.97" height="2.675"/>
	<rect x="193.503" y="410.56" style="fill:#FFFFFF;" width="174.97" height="2.675"/>
	<rect x="193.503" y="416.32" style="fill:#FFFFFF;" width="174.97" height="2.685"/>
	<rect x="193.503" y="422.08" style="fill:#FFFFFF;" width="174.97" height="2.688"/>
	<rect x="193.503" y="427.86" style="fill:#FFFFFF;" width="174.97" height="2.683"/>
	<rect x="193.503" y="433.63" style="fill:#FFFFFF;" width="174.97" height="2.673"/>
	<path style="fill:#FFFFFF;" d="M193.507,442.071h173.902c0.522-0.812,0.86-1.725,0.995-2.685H193.507V442.071z"/>
</g>
<polygon style="fill:#F77B55;" points="328.562,430.541 305.886,430.541 305.886,481.626 317.227,470.285 328.562,481.626 "/>
<rect x="73.203" y="332.66" style="fill:#353F49;" width="360.68" height="48.13"/>
<rect x="100.263" y="332.66" style="fill:#F2F2F2;" width="306.56" height="48.13"/>
<rect x="111.683" y="332.66" style="fill:#F77B55;" width="283.73" height="48.13"/>
<rect x="126.459" y="118.058" transform="matrix(0.7072 0.7071 -0.7071 0.7072 165.7849 -152.8919)" style="fill:#353F49;" width="282.017" height="11.273"/>
<path style="fill:#92DEEB;" d="M391.154,123.679c0,68.308-55.378,123.694-123.715,123.694c-68.268,0-123.694-55.386-123.694-123.694
	S199.17,0,267.44,0C335.776,0,391.154,55.37,391.154,123.679z"/>
<path style="fill:#76D0DE;" d="M310.88,7.864c22.564,20.6,36.731,50.266,36.731,83.244c0,62.246-50.463,112.727-112.781,112.727
	c-32.952,0-62.564-14.162-83.192-36.723c17.595,46.881,62.784,80.264,115.802,80.264c68.337,0,123.715-55.386,123.715-123.694
	C391.154,70.646,357.782,25.441,310.88,7.864z"/>
<path style="fill:#FFFFFF;" d="M238.496,227.092c0.507,0.09,1.82-0.371,2.24-0.468c-0.955-0.753-2.947-0.829-4.06-1.533
	c0.069,0.033-3.748-2.273-2.931-0.366c0.195,0.456,0.952,0.041,1.239,0.276c-0.448,0.689-0.676,0.471-0.174,0.776
	c0-0.01-4.204-2.304,0.02-2.442c-2.924-2.647,0.212-1.83-0.712-3.487c-0.64-1.155,2.504-2.24,0.788-3.223
	c-0.781-0.476-1.644-0.381-2.509-0.96c-1.134-0.832-0.082-2.332,1.044-2.186c0.108,0,0.676-2.662,0.85-3.092
	c-0.297-0.118-2.501-2.826-1.976-3.407c0.681-0.678,3.484,1.756,4.214-0.041c0.238-0.65-0.993-2.394-0.865-3.121
	c1.267-0.123,9.708,0.202,8.271-3.676c-0.499-1.336-4.06-3.351-3.671-4.465c1.236,0.192,3.277,1.976,4.557,1.265
	c1.124-0.566,1.984,0.632,3.121-0.637c0.195-0.23,2.086-2.232,1.536-2.627c-0.573-0.013-0.891,0.317-0.94,0.988
	c-0.671-0.904,0.489-1.541,1.093-2.199c0.133,0.205,0.279,0.407,0.422,0.581c0.689-1.062,4.618-6.149,4.728-6.259
	c1.997-2.314,0.374-5.432,2.353-7.288c1.789-1.705,3.756-2.813,6.029-3.712c0.681-0.282,3.167-1.595,3.671-1.444
	c4.147,1.28,3.653-3.674,6.298-5.911c2.655-2.237,0.681-13.691,2.87-14.554c1.201-0.461,4.713-4.79,6.538-6.774
	c1.761-1.902,1.987-4.355,1.295-6.781c-1.047-3.702-2.092-1.605-4.759-3.203c-2.145-1.28-3.807-3.837-6.444-4.204
	c-1.572-0.22-3.2,0.253-4.746-0.205c-0.64-0.197-2.429-1.285-3.105-0.364c0.123-0.156-1.428,0.568-1.313,0.614
	c-0.174-0.1-0.028-2.03-0.54-2.504c-0.799-0.773-3.584-1.559-4.588-1.805c-2.296-0.584-2.862,2.138-3.456-1.121
	c-1.894-0.515-3.776-2.721-3.466-3.29c0.192-0.22-2.952-6.838-3.382-6.213c-0.036-2.22-6.909-4.977-8.671-3.922
	c-1.582,1.142-4.452-1.019-5.425-2.063c-1.106-1.178-1.057-2.435-2.88-3.195c-0.799-0.338-2.127-0.169-1.802-1.505
	c0.305-1.421-3.43-1.705-3.756-3.085c0.53,0.1,0.97-0.156,1.457-0.297c-1.436,0.502-3.203-0.545-4.636,0.614
	c-2.061,1.725-3.256-0.804-5.553-0.366c-2.847,0.55-0.934-0.499-2.721-1.595c0.719,0.456-3.325-1.882-2.378-1.8
	c-0.896-0.097,0.09,1.423-0.865,1.754c-1.485,0.548-2.76,0.886-1.789,2.685c1.672,3.282-3.43,1.733-1.052-0.494
	c0.428-0.389,0.558-4.652,1.019-4.506c-0.594-0.202-5.248,2.808-5.745,3.446c-1.503-2.386-4.001,5.908-4.874,5.965
	c-0.42-2.04-2.35-2.865-4.068-3.466c-1.423-0.563-2.867,2.883-4.736,0.991c-3.32-3.377-1.859-8.832-0.192-12.703
	c0.727-1.782-6.147-2.337-7.032-1.613c-1.646,1.38,0.297-2.824,0.282-2.706c0.154-1.7,0.602-2.821,1.313-2.798
	c0.443-1.004,3.016-5.596,2.772-6.152c-1.032-2.404-5.435,1.871-5.816,2.934c-0.443,1.052-1.265,1.633-1.654,2.578
	c-0.451,0.952-1.231-0.207-1.948,0.174c-1.851,1.057-4.549,0.507-4.093-2.212c0.394-3.284-0.873-9.759,2.834-12.006
	c1.147-0.694,1.272-3.96,2.598-5.115c0.138-0.143,3.881-2.294,3.535-2.724c0.558,0.568,3.461-0.596,3.817,0.164
	c0.284,0.614,2.012,1.28,2.621,0.927c-0.033,0.074,0.292-1.444,0.292-1.464c-0.077-0.018-1.167-0.161-1.155-0.532
	c0.133-0.512,3.63-0.164,3.743-0.148c1.682,0.108,2.867,1.487,4.114,0.65c1.907-1.29,0.714,7.212,1.5,7.985
	c0.415,0.461,0.131,1.487,0.909,1.413c1.093-0.12,1.428-11.034,4.252-13.304c2.025-1.664,4.28-3.156,6.536-4.388
	c0.745-0.356,2.629-1.272,3-1.987c-0.056-0.34-0.41-0.776-0.796-0.397c-0.131-0.673,1.014-0.259,1.244-0.96
	c0.182-0.694-0.586-0.937-0.504-1.18c-0.015,0.064,0.686-1.431,0.468-1.234c0.036,0.046,0.036,0.12,0.054,0.161
	c1.08,0.177-0.279-1.062-0.328-1.244c1.475,0.763,0.832-1.633,2.33-1.748c-1.032,0.433-0.86,1.585-0.714,2.307
	c0.266,1.546,1.7-2.166,1.508-2.017c1.38-0.566,3.553-1.731,5.046-2.772c-0.358-0.148-0.732,0.12-1.147-0.179
	c1.523-0.548,3.264-0.371,4.708-1.119c-0.074-1.541,0.837-3.149,2.586-3.43c2.621-0.44,5.716-2.048,8.371-2.957
	c-0.387,0.919,0.182,0.225,0.919,0.556c-0.835-2.232-5.54,4.147-3.297,2.847c1.869-1.088,8.215-2.081,9.044-3.907
	c-0.015-0.102-0.397-1.313-0.387-1.313c-1.585,0-1.667,1.93-3.63,1.92c-3.507-0.049-1.377-2.191-2.074-3.156
	c-0.65,0.143-1.183-0.031-1.597-0.507c0.34-0.072,4.667-1.068,2.381-1.585c-3.712-0.794-6.182,3.328-9.234,3.226
	c2.296-1.38,5.427-4.352,8.151-4.718c2.918-0.404,7.03,1.037,9.618-0.786c2.294-1.6,3.878-0.422,5.192-3.023
	c0.392-0.704-1.7-1.597-2.232-1.715c0.243-0.266,0.699,0,0.858-0.438c-3.474-1.546-4.163-3.087-4.585-7.094
	c-1.779,1.288-7.695,4.042-4.513-0.435c-1.155-0.486-4.759-3.487-6.131-1.416c-0.635,0.929-1.646,2.491-2.708,2.972
	c-2.342,1.055-0.228,0.858-1.068,2.435c-1.306,2.601-4.544,2.24-6.057,4.508c-0.963,1.428-1.234,2.435-2.732,3.1
	c-1.272,0.566-1.792-0.97-1.167-2.191c0.438,0.52,0.893,0.599,1.288,0.212c0.084-0.55-0.712-0.279-0.94-0.507
	c0.461-0.794,1.024-1.533,1.654-2.212c-0.207-0.118-3.561-0.645-3.423-1.523c0.243-1.805-2.071-0.812-2.473-1.359
	c1.784-2.24,1.784-3.272,5.266-5.028c1.183-0.594,7.875-4.006,9.085-3.149c-0.11,0.763-0.96,0.604-1.405,1.001
	c0.963,0.246,3.786,0.538,4.71-0.12c-0.207-0.174-1.357-2.035-0.763-2.47c-0.102,0.087,1.897,0.044,2.074-0.018
	c1.068-0.256,2.276-0.384,2.842-1.477c0.53-0.963,4.058-2.212,4.948-1.736c4.585,2.609-6.285,5.384-6.423,5.092
	c0.261,0.758,3.18-0.52,3.935,1.49c0.161,0.486,3.52,1.554,3.83,1.098c0.172-0.23-0.947-1.452-0.991-1.751
	c3.5,1.695,3.297,0.817,2.698-1.533c-0.535-2.235,2.066,0.159,2.22,0.215c0.581,0.3,2.947-1.047,3.29-1.533
	c-0.852-0.671-2.324-0.658-3.054-1.449c-0.707-0.689,1.82-0.86,0.94-1.585c-1.057-0.878-2.749-0.663-2.15-2.36
	c-0.617-0.166-1.208-0.105-1.756,0.22c0.174,0.317,0.512,0.082,0.668,0.251c-0.614,0.356-1.221,0.417-1.894,0.397
	c0.205-0.292,0.786-0.292,0.804-0.878c-1.8-0.215-2.76,0.878-4.337,1.359c0.448-0.65,1.224-0.855,1.736-1.336
	c-1.7,0.218-3.361,0.86-4.708,1.984c0.22,0.197,0.387,0.399,0.525,0.645c-1.306,1.157-3.09,1.513-4.636,2.237
	c0.297-1.042,1.367-0.799,1.777-1.567c-0.586,0.003-1.142,0.128-1.641,0.371c0.673-0.079,2.621-2.028,3.049-2.527
	c-2.842-0.32-3.988,3.32-6.666,2.806c0.561-0.645,1.692-0.307,2.058-1.318c-0.975,0.108-4.733,2.642-5.289,1.318
	c-0.033-0.074,6.792-2.806,7.524-3.794c-0.471-0.038-0.991,0.433-1.441-0.115c0.376-0.384,0.94-0.402,1.306-0.817
	c-2.268-0.026-8.906,2.691-8.399,4.262c-0.909,0.699-1.825,0.896-2.893,0.453c0.438-0.648,1.92-0.663,0.707-1.595
	c-2.171,0.799-4.268,1.664-6.316,2.58c-4.874,2.148-9.564,4.657-14.021,7.437c-7.411,4.57-13.537,9.989-19.651,16.11
	c-3.264,3.297-15.611,17.713-15.552,20.728c0.028,2.222-1.265,4.191-2.138,6.195c-0.625,1.631-0.727,3.922-1.564,5.435
	c-1.772,3.2-0.975,6.897-1.764,10.578c1.029-0.763,3.126-17.605,4.938-16.973c0.325,0.125-1.149,6.994-1.508,7.854
	c-1.528,3.53,0.484,7.857-0.53,11.535c-0.125,0.353-0.627,2.24-0.64,2.601c-1.674,1.308,0.476,3.259,0.468,4.7
	c0,0.845,4.326,4.646,5.158,5.146c1.851,1.098,2.194-0.852,3.85-0.499c1.521,0.32,1.948,3.026,2.726,4.173
	c1.062,1.603,5.125,1.431,5.796,2.179c0.476,0.568,0.064,3.671,1.964,4.101c-0.008-0.205-0.056-1.311,0.174-1.464
	c0.579-0.346,1.779,1.718,1.336,2.115c-0.53,0.12-1.062-0.092-1.503-0.648c0,0.284-0.333,4.339,0.86,3.548
	c0.026-0.241,0.113-0.507,0.146-0.748c1.495,0.666,1.418,2.936,2.496,3.259c1.521,0.407,2.65,2.317,3.781,2.862
	c1.024,0.504,0.74-3.569,2.703-3.763c1.516-0.156,2.435,3.922,2.967,4.908c0.809,1.426-1.106,4.869-0.028,5.98
	c1.08,1.134-2.708,3.848-2.898,4.997c-0.09,0.881-2.004,1.702-1.984,2.04c0.166,0.937-0.394,2.243-0.727,3.146
	c-0.952,2.545-0.486,2.767,1.178,3.942c0.008,0.033-3.044,6.19-1.295,7.764c2.826,2.312,6.533,8.02,7.434,11.615
	c1.869,4.923,4.659,7.954,9.382,10.391c3.809,2.017,6.487,5.44,6.487,10.033c0.151,2.708-0.256,6.098,0.922,8.65
	c0.768,1.772-0.748,4.667,0.407,6.292c0.704,0.993-0.261,1.541,0.195,2.483c0.468,1.006,1.477,2.66,1.477,3.814
	c-0.008,1.946,0,4.239,0.11,6.175c0.044,0.64-0.586,1.764-0.215,2.179c0.435,0.532,3.064,6.943,3.064,8.832
	c-0.015,0.448,1.997-0.131,0.138-1.958c2.171-1.208,1.748,3.866,1.902,3.909c-1.976-0.658-0.704-0.133-0.517,2.363
	c0.041,1.462-0.438,0.763,0.783,1.044c1.915,0.417,0,1.708,0.732,2.734c1.454,2.079,3.643,3.983,5.146,5.599
	C231.334,226.89,235.578,226.476,238.496,227.092C238.919,227.167,237.956,226.98,238.496,227.092z M246.563,25.472
	c-0.684,0.62-1.39,0.719-2.196,0.952C244.912,25.605,245.736,25.731,246.563,25.472z M240.137,24.922
	c0.499-0.069,0.891,0.069,1.129,0.42c0.008,0.202-2.586,0.32-3.003,1.001C238.594,25.175,239.556,25.375,240.137,24.922
	C240.386,25.265,239.556,25.375,240.137,24.922z M233.678,29.501C234.231,29.64,232.808,29.379,233.678,29.501
	C233.704,29.509,233.492,29.478,233.678,29.501z M230.102,22.717c0.207-0.269,0.422-0.225,0.568,0.143
	C230.394,23.127,230.228,23.094,230.102,22.717C230.11,22.569,230.069,22.886,230.102,22.717z M226.549,33.295
	C225.556,33.226,227.606,33.334,226.549,33.295C226.411,33.295,226.726,33.308,226.549,33.295z M227.606,29.189
	c-3.418,3.226-0.796,0.046-1.792,1.044c0.02,0.049,0,0.108-0.046,0.108C225.507,30.029,227.524,29.22,227.606,29.189
	C227.199,29.627,227.005,29.299,227.606,29.189z M226.313,25.377c-0.579,0.735-0.579,0.735-1.485,0.561
	C225.277,25.631,225.914,25.754,226.313,25.377z M241.735,13.233c-0.236,0.013-0.471,0.013-0.824,0.013
	C242.011,12.326,241.801,13.233,241.735,13.233C241.499,13.248,241.858,13.233,241.735,13.233z M244.223,11.592
	c-0.42,0.428-0.957,0.172-1.444,0.379C243.276,11.013,243.386,11,244.223,11.592z M230.263,12.723
	c0.284-0.269,0.635-0.397,1.004-0.361C231.618,12.849,229.204,13.123,230.263,12.723C230.394,12.465,230.143,12.772,230.263,12.723z
	 M229.659,12.019c0.374,0.179,0.338,0.353-0.125,0.556C229.216,12.372,229.265,12.198,229.659,12.019
	C229.751,12.019,229.444,12.042,229.659,12.019z M211.611,42.79c0.028-0.023-5.384,2.161-4.984,0.822
	c-0.143,0.422,1.846-1.536,1.436-1.354c0.443-0.187,4.101-0.41,5.166-0.397C212.676,42.412,212.131,42.606,211.611,42.79
	C210.388,43.241,212.131,42.606,211.611,42.79z M215.93,40.115c4.48,0.428-2.662,1.777-3.423,0.991
	C213.521,40.225,214.727,39.964,215.93,40.115C216.268,40.143,214.727,39.964,215.93,40.115z M215.231,12.262
	c1.162-0.765,2.47-1.334,4.032-1.687c-1.162,0.945-2.696,1.334-4.078,1.72L215.231,12.262z M215.439,36.46
	c-0.174,0.197-0.387,0.189-0.586-0.008C215.17,36.357,215.403,36.273,215.439,36.46C215.546,36.649,215.403,36.273,215.439,36.46z
	 M214.138,39.14C214.036,39.14,213.71,39.05,214.138,39.14C214.184,39.14,213.984,39.107,214.138,39.14z M212.784,36.864
	c1.646,0.763,0.724,3.279-0.671,1.308c-0.049,1.175-2.089,3.159-3.187,3.4c0.402-0.463,0.553-0.975,0.402-1.536
	c-0.338-0.276-1.029,0.509-1.382,0.494c0.156,0.709,2.911-4.744,0.602-3.164c-0.829,0.645-6.444,6.597-6.804,6.262
	c-0.481-0.52,2.519-4.908,2.724-5.059C206.386,36.982,210.388,35.725,212.784,36.864z M209.725,16.054
	c0.195-0.138,2.012-1.231,2.222-0.973c0.584,0.712-2.885,1.6-3.069,1.615C209.103,16.261,209.422,16.205,209.725,16.054
	C210.306,15.69,209.422,16.205,209.725,16.054z M210.086,30.641c-0.013,0.097-0.748,1.457-1.16,0.922
	C208.578,31.183,209.947,30.029,210.086,30.641C210.024,31.012,210.045,30.487,210.086,30.641z M206.171,19.379
	c0.159,0,3.092-1.815,3.159-1.075C209.387,18.524,205.785,19.43,206.171,19.379z M205.316,22.374
	c-0.133,0.325-0.317,0.499-0.732,0.499C204.745,22.52,205.001,22.484,205.316,22.374z M203.296,29.379
	c0.448-0.305,1.395-1.83,0.934-2.427c0.236,0.328-1.772-0.22-0.86-0.568c0.374-0.11,2.655-1.354,3.016-0.983
	c0.666,0.691-2.829,4.342-3.561,4.652C202.915,29.678,203.13,29.524,203.296,29.379C203.89,28.943,203.13,29.524,203.296,29.379z
	 M205.278,33.994c2.504-0.804,3.459-2.217,4.972-0.302c0.52,0.701,0.463,2.563-0.919,2.125c0.407,0.113-4.06-0.302-3.218-0.781
	c-0.878,0.545-2.619,0.94-3.671,0.479C203.412,34.964,204.264,34.345,205.278,33.994C205.92,33.792,204.264,34.345,205.278,33.994z
	 M201.794,29.345c0.261,0.586,0.082,0.888-0.579,0.996C201.456,29.932,201.663,29.627,201.794,29.345z M166.281,83.328
	C165.183,83.287,167.218,83.287,166.281,83.328C166.194,83.318,166.414,83.318,166.281,83.328z M180.663,93.627
	C180.29,93.729,181.529,93.407,180.663,93.627C180.579,93.637,180.761,93.601,180.663,93.627z M215.618,105.167
	C215.008,105.083,216.288,105.234,215.618,105.167C215.556,105.167,215.728,105.188,215.618,105.167z M221.316,207.68
	C220.326,207.514,221.854,206.907,221.316,207.68C221.101,207.647,221.334,207.647,221.316,207.68z M223.866,156.403
	C223.526,156.045,224.112,156.611,223.866,156.403C223.812,156.37,223.948,156.46,223.866,156.403z M224.268,188.355
	C223.664,188.575,224.967,188.109,224.268,188.355C224.127,188.393,224.358,188.314,224.268,188.355z M227.67,222.789
	c-0.445-0.264-0.445-0.428-0.033-0.512C228.139,222.474,228.164,222.646,227.67,222.789
	C227.465,222.753,227.78,222.822,227.67,222.789z M232.122,224.727c-0.456-0.102-0.415-0.276,0.143-0.545
	C232.66,224.358,232.601,224.54,232.122,224.727C231.907,224.727,232.258,224.684,232.122,224.727z M222.683,212.012
	c-0.069,0.033-0.131,0.041-0.179,0.056C222.676,211.955,222.711,211.932,222.683,212.012z M233.745,6.139c0,0,0,0-0.008,0
	c0.008,0,0.008-0.013,0.008-0.013V6.139z M191.743,26.068c0,0.02-0.008,0.02-0.008,0.02L191.743,26.068z M192.882,25.093
	L192.882,25.093L192.882,25.093z M389.129,101.519l0.013,0.013c-2.409-8.911-4.227-17.725-7.91-26.365
	c-4.403-10.26-10.143-19.919-17.106-28.623c-6.577-8.223-14.18-15.606-22.61-21.903c-4.106-3.072-8.371-5.865-12.831-8.404
	c-2.117-1.224-4.285-2.378-6.479-3.476c-0.957-0.451-4.339-1.344-4.846-2.158c0.026,0.376,1.956,1.354,2.232,1.608
	c-1.326-0.335-4.78-1.81-4.844-2.028c0.09-0.156,0.374,0,0.338-0.261c-1.943-1.254-9.259-3.937-10.721-1.943
	c0.338-0.394,5.046,5.061,5.169,6.029c0.299,2.12,3.643,4.378,5.74,5.069c2.962,0.991,0.753-0.34,1.987-1.016
	c0.804-0.412,1.539,1.334,2.296,0.94c-0.018-0.018,0-0.036,0.033-0.054c-0.215-0.402-0.448-0.809-0.694-1.211
	c-0.195,0,5.366,5.727,6.039,4.475c-0.663-1.554-1.649-3.305-3.223-4.764c-1.4-1.318-3.589-1.426-5.089-2.747
	c-0.781-0.653-3.594-2.729-3.891-3.674c3.709,0.118,8.008,8.008,11.763,4.956c-0.522-0.353-1.032-0.737-1.51-1.147
	c0.686,0.195,3.807,1.196,2.755,2.511c-3-0.527,2.519,2.506,2.606,2.834c-0.545-0.044-0.914-0.471-1.418-0.515
	c0.236,1.039,3.156,2.115,3.369,3.873c-1.759,0.282-1.011-1.073-2.163,0.364c-0.379,0.468-1.946,0.325-2.829,0.387
	c-2.04,0.164-4.321-3.31-5.806-4.375c0.635,1.938,1.713,2.87,3.85,4.227c1.047,0.599-1.467,0.863-1.434,1.731
	c0.074,0,0.696,0.31,0.676,0.486c0,0.105-0.581-0.402-0.676-0.486c0.218-0.12-0.361,3.415-0.41,3.361
	c1.7,1.948-2.243,1.388-2.312,1.446c0.305,0.445,0.929,0.681,1.065,1.318c-1.137,0.069-2.074-0.102-3.174,0.312
	c1.615,0.468,10.476,4.567,8.533,7.654c-0.612,1.004-6.618-0.251-7.739-0.292c-2.312-0.159-0.146,2.212-0.105,2.491
	c0.376,1.769,1.743,2.537,1.631,4.613c-0.115,1.454,1.375,1.503,1.843,2.721c0.41,1.078,0.164,1.172,1.28,1.331
	c1.979,0.251,2.028-0.054,3.709,1.247c1.167,0.922,1.628-0.863,3.031-0.924c3.533-0.141,0.532-0.852,2.22-1.326
	c2.081-0.591-0.586-3.855-0.461-4.477c0.169-0.86-0.141-1.82,1.019-2.153c1.766-0.468-0.476-2.317-0.609-2.816
	c-0.346-1.462,4.923,1.247,4.298-2.46c3.008,0.955,6.126,3.702,8.934,5.261c1.633,0.991,3.274,1.948,4.5,3.505
	c1.426,1.861-2.053,1.103-2.291,1.636c-0.207,0.586,3.072,2.071,3.61,2.045c0.082-0.325-0.397-2.235-0.448-2.552
	c-0.156-1.316-2.068-2.614-1.925-3.668c0.612,0.064,1.144,0.305,1.626,0.681c-1.777-2.191-4.646-2.399-6.664-4.006
	c-1.221-0.996-2.76-1.8-3.942-2.821c0-0.015-2.143-2.742-0.65-2.217c2.36,0.822,4.931,3.205,7.334,4.462
	c1.92,1.009,2.394,1.62,3.809,3.259c0.558,0.64,3.492,4.065,4.134,4.168c-0.026-0.031,2.409,2.153,3.389,2.47
	c-0.428-0.991-0.822-2.243-1.326-3.016c-0.655-1.08-3.412-1.695-3.412-3.292c0.627,0.044,0.704-0.607,2.033-0.55
	c-0.709-0.036,0.863-1.055,0.796-0.909c-2.583-1.464-6.029-5.745-6.981-8.637c0.719,0.028,1.093,0.965,1.882,0.486
	c-0.264-0.486-0.33-1.006-0.264-1.549c0.205,0.233,2.629,2.312,2.143,2.729c-0.691-0.02-1.249-0.305-1.756-0.837
	c0.363,1.219,1.572,1.247,2.079,2.081c0.046-0.335-0.174-0.609,0.11-0.988c2.122,0.891,6.444,4.257,7.02,6.633
	c-0.922,0.084-2.716-1.887-3.331-1.403c-0.207,0.484-0.187,0.96,0.095,1.421c-0.294,0.015-0.525,0.067-0.778,0.212
	c0.343,0.269,0.532,0.622,0.573,1.052c-0.333,0.1-0.684,0.212-1.044,0.302c0.284,1.201,6.574,7.181,7.009,6.564
	c0.138-0.205-0.266-0.814-0.161-0.904c0.338-0.387,1.321,1.344,1.848,1.014c0.407-0.266-0.425-0.822,0.051-1.05
	c0.947-0.486,4.687,6.879,5.164,7.749c1.812,3.407,0.609,1.336-0.768,1.81c-0.207,0.348-0.364,0.707-0.394,1.121
	c-2.176-0.504-4.577-1.777-6.362-3.046c-2.836-2.04,0.901,5.573-0.719,4.623c-0.968-0.563-1.544-1.37-2.726-1.464
	c-1.723-0.172-2.209-2.017-3.807-2.552c-1.303-0.43-6.395-0.896-5.752-3.241c0.538-2.01-2.028-3.666-2.89-4.429
	c-0.428-0.402-6.118,0.333-7.037,0.614c-1.556,0.502-4.032,1.016-4.905,2.47c-1.5,2.719-4.971-0.858-6.362-0.289
	c-0.74,0.284-0.013,2.522-0.42,3.241c-0.54,1.068-1.956,1.139-2.294,2.401c-0.609,2.322,1.155,4.232,0.338,6.359
	c-0.625,1.7-3.904,2.429-3.955,3.817c-0.033,0.745-0.159,1.572-0.86,1.961c-1.49,0.868,0.036,2.824-0.876,3.802
	c-5.046,5.12,1.618,10.135,0.481,15.752c-0.668,3.185-1.029,3.84,0.338,6.589c0.333,0.684,0.077,5.627,2.588,3.628
	c0.302,2.895,4.035,3.476,4.693,6.213c0.786,3.254,3.988,4.687,6.449,6.63c1.001,0.773,1.853,1.787,3,2.36
	c2.033,1.047,3.389-0.558,5.34-1.101c1.746-0.502,3.602-0.328,5.266,0.463c0.942,0.438,8.02-4.577,9.969-3.615
	c1.411,0.699,1.475,2.409,2.104,3.64c0.94,1.741,2.913-0.543,4.206,0.049c2.324,1.042,3.016,9.549,1.055,11.108
	c-1.475,1.093,1.894,5.732,2.337,6.689c1.334,2.621,2.542,7.206,2.13,10.127c-0.328,2.358,0.305,6.106-1.032,8.172
	c-1.347,2.097-2.138,4.301-3.223,6.674c-2.801,6.057-0.092,12.925-2.527,19.236c-1.459,3.22-1.18,6.659-1.989,10.033
	c-0.515,2.171-3.133,5.309-2.099,7.565c1.551-1.423,3.922-1.234,5.696-2.125c3.676-1.805,5.402-6.026,8.064-8.852
	c1.428-1.485,2.317-3.354,3.154-5.204c0.794-1.741,2.411-2.857,3.162-4.582c1.871-4.306,3.556-8.614,5.448-12.938
	c3.912-9.326,4.552-18.273,5.921-28.262C391.088,122.109,391.126,112.074,389.129,101.519z M379.791,76.941
	c-0.502-1.247-7.076-10.906-6.328-11.43c0.891-0.561,14.971,24.376,13.455,28.244C384.744,88.069,382.205,82.542,379.791,76.941
	C379.76,76.887,380.269,78.093,379.791,76.941z M385.824,121.075c-0.251-0.701,0.108-1.295,0.31-2.104
	C386.406,119.828,385.952,120.41,385.824,121.075z M385.097,124.987c-0.023-0.412-0.036-0.755,0.207-1.068
	C385.525,124.347,385.325,124.626,385.097,124.987z M382.745,157.005c-0.228,0.095-0.494,0.179-0.74,0.266
	c-0.461,0,0.812-0.622,0.883-0.658C382.809,156.833,382.809,156.908,382.745,157.005
	C382.573,157.281,382.809,156.908,382.745,157.005z M383.108,144c-0.015-1.175,0.051-1.236,1.221-1.997
	C384.096,142.84,383.264,143.214,383.108,144z M384.434,137.943c-0.02-2.158-0.077-4.718,0.389-6.82
	c0.09,3.671,0.271,7.393,0.154,11.09C384.388,141.432,384.434,138.875,384.434,137.943
	C384.434,137.16,384.434,138.696,384.434,137.943z M386.38,144.873c-0.046,1.984-0.323,7.383-1.636,8.919
	c0.138-3.351,1.382-6.39,1.441-9.708C386.444,144.394,386.38,144.64,386.38,144.873C386.38,145.093,386.38,144.64,386.38,144.873z
	 M387.918,124.662c-0.571,2.363-0.008,3.1-1.421,4.426c0-1.769-0.658-5.135,1.167-6.182
	C387.895,123.487,388.108,123.95,387.918,124.662C387.691,125.627,388.108,123.95,387.918,124.662z M310.269,239.544
	c0.207,0.34-15.532,4.785-17.147,5.125c-6.536,1.382-13.187,2.235-19.858,2.568c-12.728,0.627-25.999-0.54-38.223-4.252
	c1.582,0.172,3.456,0.988,5.066,0.732c-1.528-0.94-3.387-0.609-4.785-1.812c5.12,0.829,9.958,0.456,14.643,1.05
	c-0.484-0.643-4.723-1.667-4.7-2.115c0.586-0.056,3.878-0.154,4.004-0.248c1.528-1.208-2.463-1.05-2.104-1.928
	c0.113-0.218,1.208,0.161,1.582-0.348c0.617-0.817,0-1.231,0.236-1.651c0.197-0.346,6.339-1.426,6.999-1.134
	c-0.714,0.422-1.572-0.082-1.244,1.121c-0.63-0.074-2.532-0.028-2.65,0.801c0.046-0.195,2.089,2.655,2.163,2.785
	c0.694,1.114,3.192,1.789,3.382,3.131c0.42,2.232,12.114,2.004,13.878,1.812c4.365-0.504,8.468-2.056,12.772-2.808
	c2.565-0.458,5.125-1.175,7.729-1.436c1.208-0.113,5.24-1.521,6.17-1.198C298.743,241.833,308.118,239.114,310.269,239.544
	C310.292,239.58,309.92,239.47,310.269,239.544z M381.519,171.256c0.509-1.27,0.906-2.578,1.544-3.809
	C382.663,168.773,382.107,170.004,381.519,171.256z M383.574,166.134c0.059-0.154,0.143-0.32,0.169-0.463
	C383.759,165.868,383.646,165.988,383.574,166.134z M248.294,4.198c-0.658-0.097-1.367-0.023-2.053-0.125
	c0.358-0.33,2.435-0.407,1.51-0.983c2.867-1.751,8.835-2.107,12.104-1.71c3.686,0.458,7.378-0.691,10.993-0.113
	c1.467,0.243,2.755,0.271,4.214,0.361c1.262,0.156-0.192,1.464,1.262,1.684c0.881,0.097,2.565,2.048,3.366,1.618
	c-0.038,1.354-0.655,0.422-0.238,1.679c0.11,0.282,1.62,1.142,1.562,1.252c-0.151,0.195-4.257-0.097-4.065-0.049
	c-0.323-0.049,0.064,0.637,0.333,0.538c0.822,0.21,2.596-0.061,3.484,0.015c-2.063,1.866-5.169,1.644-7.478,3.149
	c-1.411,0.922-3.533,0.845-5.053,1.395c0,1.585-1.208,3.502-2.26,5.146c-0.73,1.116-5.97-1.482-6.502-2.156
	c-1.147-1.367-3.74-4.961-0.924-6.077c3.438-1.362,0.033-0.251-0.98-0.98c0.804-1.167,1.708-0.763,3.023-0.581
	c-0.671-0.922-1.503-1.147-2.491-0.666c-0.338-0.988,1.426-1.879-0.118-2.936c-0.671-0.456-4.273,0.092-4.383-0.548
	c-0.23-1.574,4.396-0.74,5.204-2.028C255.354,1.357,251.663,4.721,248.294,4.198C247.633,4.101,248.908,4.298,248.294,4.198z
	 M313.399,27.799c0.573-0.072-0.694-1.841-1.019-2.191c0.366,0.033,0.709,0.064,1.093-0.164c-0.276-0.801-3.901-2.88-4.147-2.739
	c-1.359,0.865-3.059-2.952-3.244-3.466c2.324-0.317,3.766,2.173,5.883,3.2c1.779,0.876,8.274,3.945,8.43,5.903
	c0.156,0.963-4.877,0.556-5.642,1.71c-0.54-1.418,1.277-1.416,1.239-1.859C315.911,27.853,313.673,27.763,313.399,27.799
	C313.269,27.822,314.191,27.676,313.399,27.799z M247.513,29.627c-0.348,0.238-4.759,4.38-4.631,4.767
	c0.102,0.384,4.549,0.11,5.33,0.548c-0.064,0.509-0.663,0.248-0.76,0.689c0.581,0,2.371-1.126,2.675-0.781
	c0.036,0.276,0,0.556-0.161,0.809c1.979,1.948,1.772-2.281,1.894-2.499c-1.382-0.195,0.305-2.132-2.045-1.303
	c0.151-0.064-2.529-0.801-2.383-0.645c-0.2-0.202,1.882-2.051,2.061-2.286C248.265,28.626,248.089,29.164,247.513,29.627
	C246.745,30.149,247.677,29.478,247.513,29.627z M251.814,34.194C252.006,34.353,251.522,34.353,251.814,34.194
	C251.857,34.225,251.752,34.214,251.814,34.194z M250.825,34.097c0.143-0.161,0.873-0.468,0.422-0.036
	C251.089,34.345,250.439,34.542,250.825,34.097C250.874,34.028,250.743,34.194,250.825,34.097z M247.735,29.053l0.015-0.01
	c0,0.01,0,0.023,0.015,0.044C247.751,29.066,247.751,29.066,247.735,29.053z M243.767,33.014c0.143,0,0.228,0,0.333,0.09
	C243.985,33.103,243.501,33.078,243.767,33.014C243.911,33.014,243.737,33.029,243.767,33.014z M200.841,84.611
	c-1.149,0.123,0.829-0.952,0.637-1.334c-0.794-1.889-6.418-2.294-6.938-3.796c0.22-0.108,0.407-0.271,0.489-0.509
	c-1.92-0.783-2.903,1.564-4.641,1.413c3.602-6.111,12.544,0.886,16.143,3.715C204.666,84.329,202.743,84.344,200.841,84.611
	C200.736,84.626,201.904,84.462,200.841,84.611z M205.547,87.869c-0.883-0.402,2.959-0.361,3.487-0.571
	c-0.768-1.172-0.077-1.823-1.574-2.281c1.341-1.646,5.829,0.287,7.286,0.901c-0.113,0.207-0.407,0.026-0.512,0.279
	c0.077,0.1,3.036,2.545,1.037,1.715c-2.153-0.927-3.369,0.376-4.943,1.234C209.172,87.416,207.18,88.627,205.547,87.869
	C205.327,87.788,205.895,88.038,205.547,87.869z M310.269,25.295c2.086,2.179-1.142,3.848-2.634,2.452
	c-0.719-0.745-0.297-2.504-1.964-3.018c0.443-0.141,0.891-0.282,1.336-0.438C305.863,21.606,309.736,24.73,310.269,25.295
	C310.737,25.792,310.115,25.126,310.269,25.295z M282.874,12.076c-0.131-0.445,3.028-0.238,3.553-0.338
	c0.842-0.146,7.117,0.471,4.897,1.487c-1.702,0.765-4.196,1.649-5.824,0.159C285.094,13.041,282.894,12.16,282.874,12.076
	C282.79,11.776,282.999,12.5,282.874,12.076z M340.159,43.151c0.707,0,2.504,2.819,2.194,3.269c-0.829,1.336-2.227-2.035-3.09-2.55
	C339.563,43.658,339.867,43.425,340.159,43.151z M242.267,5.064c2.13-1.613,2.627-0.689,5.302-0.428
	C246.727,5.409,244.684,5.581,242.267,5.064C242.841,4.626,244.684,5.581,242.267,5.064z M289.479,3.223
	c-1.572-0.433-3.231-0.509-4.754-1.108c1.838-0.21,4.045,0.499,5.325,0.858C290.472,3.116,289.374,3.185,289.479,3.223
	C287.907,2.79,289.64,3.259,289.479,3.223z M284.725,2.117c-0.169,0.013-0.356,0.026-0.512,0.054
	C284.369,1.997,284.553,1.981,284.725,2.117C284.553,2.13,284.646,2.089,284.725,2.117z M201.325,87.962
	c0.402,0.031,0.553,0.21,0.627,0.535c-0.207,0.893-2.995-0.371-3.272-0.758C199.633,87.181,200.509,87.511,201.325,87.962z
	 M221.268,87.892C219.785,91.502,216.107,85.379,221.268,87.892C221.053,88.41,220.407,87.468,221.268,87.892z M227.02,105.388
	L227.02,105.388c0.049-0.1,0.159-0.141,0.248-0.154C227.225,105.285,227.163,105.321,227.02,105.388z M227.524,105.285
	c-0.059-0.023,0.399-1.467,1.347-1.546C229.979,104.43,228.082,105.357,227.524,105.285
	C227.455,105.265,228.745,105.434,227.524,105.285z M239.264,4.298c-1.001,0.653-2.186,0.22-3.215,0.594
	C237.472,3.924,238.123,3.996,239.264,4.298C238.263,4.951,239.065,4.25,239.264,4.298z M202.07,76.818
	c-0.366-1.472-0.942-1.495,0.046-2.79C202.487,75.405,202.487,76.237,202.07,76.818C201.904,76.221,202.487,76.237,202.07,76.818z
	 M175.264,127.969c0,0.53-0.292,0.745-0.804,0.553c-0.192-0.148-0.243-1.943,0.049-2.324
	C174.745,126.792,175.021,127.368,175.264,127.969C175.334,128.215,175.021,127.368,175.264,127.969z M237.265,31.227
	c1.126-0.036,2.04,0.32,3.052,1.083C238.988,32.571,238.123,32.051,237.265,31.227z M339.686,42.652l0.02,0.013
	c-0.353-0.102-2.36-1.326-1.533-1.989C338.743,40.264,339.601,42.447,339.686,42.652z M360.434,52.979
	c-0.376-0.399-1.17-0.128-1.411-0.945c0.712,0.366,1.467,0.184,2.143,0.712C360.926,52.946,360.672,53.192,360.434,52.979
	C360.058,52.582,360.672,53.192,360.434,52.979z M240.992,4.982c-0.241-0.297-0.548-0.105-0.727-0.356
	c0.504-0.632,1.321-0.428,2.004-0.607C242.265,4.101,241.422,5.622,240.992,4.982C240.752,4.685,241.103,5.171,240.992,4.982z
	 M237.521,5.747c-0.899,0.684-1.838,1.372-3.139,1.249C235.263,6.108,236.397,5.978,237.521,5.747z M237.224,36.367
	c0.218,0.046,0.512-0.01,0.899-0.054c-1.234,1.49-2.642-0.589-2.371-0.676C235.565,35.694,237.127,36.357,237.224,36.367
	C237.444,36.413,236.745,36.296,237.224,36.367z M237.736,6.346c0.835-0.696,1.82-0.806,2.88-0.724
	C239.735,6.139,238.752,6.431,237.736,6.346z M334.491,46.126c-0.96-0.143,1.823-1.027,0.812,0.261
	C335.024,46.364,334.745,46.282,334.491,46.126C334.343,46.1,334.796,46.144,334.491,46.126z M365.391,53.179
	c-0.586-0.284-0.801-0.676-0.645-1.359C365.239,52.17,365.434,52.567,365.391,53.179z M239.805,10.829
	c0.402-0.625,0.768-0.788,1.946-0.773C241.207,10.737,240.524,10.865,239.805,10.829z M230.898,14.976
	c-0.671,0.384-1.206,0.663-1.992,0.614C229.444,14.976,230.069,15.004,230.898,14.976z M305.141,20.081
	c-0.146,0.274-0.008,0.456,0.179,0.643c-0.202-0.1-1.057-1.183-0.41-1.344C305.225,19.515,305.292,19.743,305.141,20.081
	C304.998,20.357,305.248,19.917,305.141,20.081z M193.269,80.653c-0.003,0.44-0.238,0.643-0.602,0.635
	C192.432,80.914,193.082,79.9,193.269,80.653C193.318,80.906,193.256,80.509,193.269,80.653z M234.907,209.119
	c0.358,0.113,0.507,0.371,0.558,0.724C235.465,210.918,233.517,209.252,234.907,209.119
	C235.13,209.093,234.618,209.139,234.907,209.119z M232.122,15.626c-0.251,0.346-0.566,0.517-1.088,0.701
	C231.267,15.749,231.692,15.639,232.122,15.626z M176.186,127.775C176.068,129.016,175.769,126.579,176.186,127.775
	C176.178,127.936,176.127,127.636,176.186,127.775z M240.345,17.679c0.049-0.028,0.125,0.013,0.172,0.026
	C240.345,17.807,240.107,17.807,240.345,17.679z M234.81,5.873c-0.077,0.028-0.264,0.044-0.394,0.064
	C234.536,5.844,234.715,5.834,234.81,5.873z M234.326,5.965c-0.061,0,0.056-0.026,0.09-0.026
	C234.383,5.942,234.334,5.942,234.326,5.965z M233.745,6.129v0.013C233.745,6.129,233.745,6.129,233.745,6.129z M233.745,6.129
	c0.159-0.189,0.374-0.151,0.548-0.161C234.188,6.172,233.988,6.205,233.745,6.129z M237.71,6.346h0.023
	C237.728,6.356,237.71,6.369,237.71,6.346z M237.71,6.356c-0.041,0.223-0.241,0.195-0.428,0.195
	C237.375,6.356,237.521,6.336,237.71,6.356z M192.196,133.069C191.894,132.867,192.324,133.225,192.196,133.069
	C192.068,132.984,192.283,133.181,192.196,133.069z M324.466,16.054C325.239,16.261,324.51,16.22,324.466,16.054
	C324.466,16.054,324.5,16.182,324.466,16.054z M305.335,20.744c-0.013,0-0.013-0.018-0.013-0.018c0.084,0.018,0.1,0.067,0.084,0.161
	C305.394,20.846,305.374,20.792,305.335,20.744C305.323,20.744,305.374,20.792,305.335,20.744z M237.268,6.554
	c0.008,0,0.008,0,0.015,0c0,0.018-0.008,0.018-0.015,0.008C237.268,6.561,237.268,6.561,237.268,6.554z M237.053,6.607
	c0.074-0.033,0.172-0.033,0.215-0.046C237.198,6.712,237.086,6.733,237.053,6.607C237.127,6.574,237.065,6.625,237.053,6.607z
	 M349.744,44.826v-0.003v0.018V44.826z M251.57,124.59C251.186,124.265,251.834,124.357,251.57,124.59
	C251.522,124.562,251.663,124.49,251.57,124.59z M310.361,239.508c-0.041,0.028-0.056,0.028-0.092,0.028
	c0.023-0.064,0.036-0.105,0.092-0.077C310.361,239.46,310.361,239.501,310.361,239.508z M310.269,239.544c0-0.008,0-0.008,0-0.008
	V239.544z M211.47,37.012c0.064-0.023,1.226-0.138,0.796,0.305C211.801,37.548,211.578,37.427,211.47,37.012
	C211.611,36.989,211.476,37.261,211.47,37.012z M204.264,26.952c-0.351-0.22-0.266-0.44,0.205-0.678
	C204.83,26.404,204.761,26.644,204.264,26.952C204.095,26.934,204.5,26.875,204.264,26.952z"/>
<path style="fill:#E6E5E5;" d="M339.263,43.873c0.297-0.215,0.602-0.448,0.896-0.722c0.707,0,2.504,2.819,2.194,3.269
	C341.524,47.759,340.126,44.385,339.263,43.873z M338.175,40.676c-0.827,0.666,1.18,1.889,1.533,1.989l-0.02-0.013
	C339.601,42.447,338.743,40.264,338.175,40.676z M238.496,227.092c-2.918-0.62-7.163-0.205-9.605-2.801
	c-1.503-1.613-3.692-3.52-5.146-5.599c-0.732-1.029,1.183-2.317-0.732-2.734c-1.224-0.282-0.745,0.417-0.783-1.044
	c-0.187-2.496-1.459-3.021,0.517-2.363c-0.156-0.046,0.266-5.117-1.902-3.909c1.859,1.828-0.156,2.406-0.138,1.958
	c0-1.541-1.777-6.121-2.657-8.036c5.494,0.829,11.121,1.27,16.783,1.27c0.435,0,0.737-0.026,1.111-0.028
	c-0.146,0.003-0.205,0.013-0.276,0.013c-0.125,0.727,1.106,2.47,0.865,3.121c-0.73,1.797-3.533-0.637-4.214,0.041
	c-0.525,0.581,1.679,3.29,1.976,3.407c-0.174,0.43-0.745,3.092-0.85,3.092c-1.126-0.146-2.179,1.354-1.044,2.186
	c0.865,0.579,1.728,0.484,2.509,0.96c1.715,0.983-1.428,2.068-0.788,3.223c0.922,1.656-2.212,0.842,0.712,3.487
	c-4.224,0.138-0.02,2.432-0.02,2.442c-0.499-0.305-0.271-0.09,0.174-0.776c-0.289-0.236-1.044,0.179-1.239-0.276
	c-0.817-1.907,3,0.399,2.931,0.366c1.114,0.701,3.105,0.781,4.06,1.533c-0.42,0.097-1.7,0.548-2.207,0.468
	C238.381,227.062,238.202,227.026,238.496,227.092z M221.268,207.654c-0.003,0-0.036,0,0.049,0.023
	C221.828,206.932,220.459,207.475,221.268,207.654z M227.637,222.277c-0.415,0.084-0.415,0.248,0.033,0.512
	c-0.207-0.036,0.11,0.033,0,0C228.164,222.646,228.139,222.474,227.637,222.277z M232.265,224.182
	c-0.53,0.261-0.581,0.435-0.192,0.538c-0.033,0-0.049,0.008,0.049,0.008C232.601,224.54,232.66,224.358,232.265,224.182z
	 M232.073,224.719c0.008,0,0.015,0.008,0.049,0.008C232.209,224.694,232.122,224.694,232.073,224.719z M222.504,212.068
	c0.049-0.015,0.11-0.023,0.179-0.056C222.711,211.932,222.676,211.955,222.504,212.068z M238.53,227.092c0,0-0.008,0-0.033,0
	C238.683,227.126,238.614,227.113,238.53,227.092z M318.87,15.946c1.83,2.04,3.581,4.15,5.253,6.318
	c0.387,0.161,0.684,0.174,0.817-0.056c-0.663-1.554-1.649-3.305-3.223-4.764C320.926,16.707,319.881,16.358,318.87,15.946z
	 M324.466,16.054C324.51,16.22,325.239,16.261,324.466,16.054L324.466,16.054z M360.455,52.979h-0.02
	C360.498,53.051,360.491,53.02,360.455,52.979z M386.38,144.873c0,0,0-0.015,0-0.023C386.38,144.809,386.38,144.776,386.38,144.873z
	 M385.248,86.774c0.604,2.191,1.185,4.367,1.761,6.564C387.158,92.088,386.406,89.679,385.248,86.774z M387.895,124.746
	c0.018-0.023,0.018-0.054,0.026-0.084C387.803,125.146,387.855,124.964,387.895,124.746z M364.745,51.82
	c-0.159,0.686,0.056,1.075,0.645,1.359C365.434,52.567,365.239,52.17,364.745,51.82z M349.744,44.82v0.003v0.015V44.82z
	 M361.166,52.746c-0.676-0.527-1.431-0.346-2.143-0.712c0.241,0.814,1.032,0.545,1.411,0.945c-0.266-0.282-0.077-0.087,0.02,0
	C360.693,53.179,360.926,52.946,361.166,52.746z M389.639,132.7c-1.37,9.989-2.01,18.936-5.921,28.262
	c-1.892,4.324-3.574,8.635-5.448,12.938c-0.75,1.723-2.371,2.842-3.162,4.582c-0.837,1.851-1.728,3.72-3.154,5.204
	c-2.662,2.829-4.39,7.048-8.064,8.852c-1.772,0.891-4.142,0.701-5.696,2.125c-1.032-2.255,1.585-5.394,2.099-7.565
	c0.809-3.374,0.53-6.812,1.989-10.033c2.435-6.308-0.271-13.179,2.527-19.236c1.085-2.376,1.874-4.577,3.223-6.674
	c1.336-2.066,0.704-5.814,1.032-8.172c0.412-2.918-0.796-7.503-2.13-10.127c-0.443-0.96-3.812-5.599-2.337-6.689
	c1.961-1.559,1.27-10.068-1.055-11.108c-1.293-0.591-3.264,1.692-4.206-0.049c-0.63-1.231-0.694-2.939-2.104-3.64
	c-1.948-0.963-9.024,4.052-9.969,3.615c-0.676-0.32-1.375-0.507-2.074-0.614c1.577-7.519,2.417-15.296,2.417-23.265
	c0-14.364-2.721-28.068-7.598-40.704c2.004-0.3,5.164-0.617,5.473-0.325c0.863,0.763,3.428,2.419,2.89,4.429
	c-0.643,2.345,4.449,2.811,5.752,3.241c1.597,0.535,2.084,2.378,3.807,2.552c1.185,0.095,1.761,0.901,2.726,1.464
	c1.62,0.95-2.117-6.666,0.719-4.623c1.784,1.27,4.188,2.542,6.362,3.046c0.033-0.415,0.187-0.776,0.394-1.121
	c1.377-0.474,2.58,1.597,0.768-1.81c-0.476-0.873-4.214-8.236-5.164-7.749c-0.476,0.228,0.358,0.783-0.051,1.05
	c-0.527,0.333-1.51-1.398-1.848-1.014c-0.102,0.087,0.3,0.699,0.161,0.904c-0.435,0.617-6.725-5.363-7.009-6.564
	c0.364-0.092,0.712-0.202,1.044-0.302c-0.041-0.43-0.23-0.783-0.573-1.052c0.253-0.146,0.481-0.195,0.778-0.212
	c-0.282-0.461-0.302-0.937-0.095-1.421c0.614-0.484,2.406,1.487,3.331,1.403c-0.579-2.376-4.897-5.742-7.02-6.633
	c-0.284,0.379-0.064,0.653-0.11,0.988c-0.504-0.835-1.715-0.863-2.079-2.081c0.504,0.532,1.065,0.817,1.756,0.837
	c0.486-0.417-1.938-2.496-2.143-2.729c-0.067,0.545,0,1.062,0.264,1.549c-0.791,0.479-1.162-0.458-1.882-0.486
	c0.95,2.893,4.398,7.171,6.981,8.637c0.067-0.146-1.505,0.873-0.796,0.909c-1.329-0.054-1.405,0.594-2.033,0.55
	c0,1.6,2.757,2.212,3.412,3.292c0.502,0.773,0.899,2.028,1.326,3.016c-0.98-0.317-3.415-2.504-3.389-2.47
	c-0.643-0.105-3.576-3.528-4.134-4.168c-1.418-1.638-1.889-2.253-3.809-3.259c-2.404-1.257-4.974-3.64-7.334-4.462
	c-1.492-0.527,0.65,2.202,0.65,2.217c1.183,1.021,2.721,1.825,3.942,2.821c2.015,1.608,4.884,1.815,6.664,4.006
	c-0.481-0.376-1.014-0.617-1.626-0.681c-0.143,1.055,1.769,2.353,1.925,3.668c0.051,0.317,0.53,2.227,0.448,2.552
	c-0.538,0.026-3.817-1.457-3.61-2.045c0.238-0.532,3.715,0.223,2.291-1.636c-1.226-1.556-2.867-2.514-4.5-3.505
	c-2.811-1.559-5.926-4.306-8.934-5.261c0.159,0.986-0.095,1.508-0.53,1.782c-2.772-5.404-5.957-10.565-9.533-15.419
	c0.881-0.033,2.14,0.036,2.465-0.376c1.152-1.436,0.404-0.082,2.163-0.364c-0.212-1.761-3.136-2.834-3.369-3.873
	c0.502,0.044,0.873,0.471,1.418,0.515c-0.084-0.328-5.604-3.361-2.606-2.834c1.052-1.318-2.071-2.317-2.755-2.511
	c0.479,0.41,0.988,0.794,1.51,1.147c-2.967,2.412-6.259-1.992-9.339-4.019c-1.252-1.26-2.529-2.491-3.863-3.702
	c1.631,0.548,3.072,1.208,3.791,1.661c0.038,0.261-0.248,0.105-0.338,0.261c0.061,0.218,3.517,1.692,4.844,2.028
	c-0.276-0.253-2.207-1.231-2.232-1.608c0.504,0.814,3.889,1.708,4.846,2.158c2.194,1.098,4.362,2.253,6.479,3.476
	c4.46,2.54,8.725,5.332,12.831,8.404c8.43,6.298,16.033,13.678,22.61,21.903c6.963,8.704,12.703,18.363,17.106,28.623
	c1.618,3.837,2.908,7.708,4.017,11.607c-3.538-8.645-11.131-21.66-11.786-21.263c-0.748,0.527,5.824,10.186,6.328,11.43
	c-0.033-0.054,0.479,1.152,0,0c2.412,5.601,4.954,11.128,7.127,16.812c0.049-0.118,0.064-0.256,0.09-0.417
	c0.707,2.716,1.393,5.453,2.132,8.195l-0.013-0.013C391.126,112.074,391.088,122.109,389.639,132.7z M385.824,121.075
	c0.128-0.666,0.584-1.247,0.31-2.104C385.932,119.78,385.574,120.374,385.824,121.075z M385.097,124.987
	c0.228-0.361,0.428-0.64,0.207-1.068C385.062,124.232,385.074,124.575,385.097,124.987z M382.745,157.005
	c0.064-0.097,0.064-0.169,0.143-0.394c-0.069,0.036-1.341,0.658-0.883,0.658C382.248,157.181,382.517,157.097,382.745,157.005
	C382.573,157.281,382.809,156.908,382.745,157.005z M384.329,142.003c-1.17,0.76-1.234,0.822-1.221,1.997
	C383.264,143.214,384.096,142.84,384.329,142.003z M384.434,137.943c0,0.932-0.046,3.489,0.543,4.268
	c0.12-3.694-0.061-7.419-0.154-11.09C384.358,133.225,384.414,135.785,384.434,137.943
	C384.434,137.16,384.434,138.696,384.434,137.943z M386.185,144.084c-0.056,3.318-1.303,6.356-1.441,9.708
	c1.313-1.536,1.59-6.935,1.636-8.919c0,0.131,0,0.028,0-0.023C386.38,144.627,386.434,144.376,386.185,144.084z M387.918,124.662
	c0.187-0.712-0.026-1.175-0.253-1.756c-1.825,1.044-1.167,4.413-1.167,6.182c1.395-1.303,0.868-2.04,1.395-4.339
	C387.952,124.562,388.008,124.301,387.918,124.662z M235.465,209.841c-0.051-0.353-0.2-0.609-0.558-0.724
	C233.517,209.252,235.465,210.918,235.465,209.841z M310.153,239.532c-2.386-0.325-11.41,2.26-11.976,0.207
	c-0.929-0.32-4.961,1.085-6.17,1.198c-2.604,0.261-5.164,0.975-7.729,1.436c-4.306,0.753-8.407,2.304-12.772,2.808
	c-1.764,0.192-13.46,0.42-13.878-1.812c-0.192-1.341-2.688-2.017-3.382-3.131c-0.072-0.131-2.117-2.98-2.163-2.785
	c0.118-0.829,2.02-0.873,2.65-0.801c-0.328-1.203,0.53-0.699,1.244-1.121c-0.663-0.292-6.804,0.788-6.999,1.134
	c-0.236,0.42,0.381,0.835-0.236,1.651c-0.374,0.512-1.467,0.131-1.582,0.348c-0.358,0.878,3.633,0.719,2.104,1.928
	c-0.125,0.095-3.418,0.192-4.004,0.248c-0.023,0.448,4.214,1.472,4.7,2.115c-4.685-0.594-9.521-0.218-14.643-1.05
	c1.398,1.203,3.256,0.873,4.785,1.812c-1.608,0.256-3.484-0.561-5.066-0.732c12.224,3.712,25.495,4.879,38.223,4.252
	c6.669-0.333,13.322-1.188,19.858-2.568c1.615-0.343,17.354-4.785,17.147-5.125C310.292,239.562,310.194,239.544,310.153,239.532z
	 M310.153,239.532c0.041,0.013,0.11,0.013,0.11,0.013C310.123,239.508,310.123,239.516,310.153,239.532z M234.907,209.119
	C235.13,209.093,234.618,209.139,234.907,209.119L234.907,209.119z M310.269,239.537c0.036,0,0.054,0,0.092-0.028
	c0-0.008,0-0.049,0-0.049C310.304,239.432,310.292,239.47,310.269,239.537z M383.743,165.67c-0.028,0.141-0.11,0.31-0.169,0.463
	C383.646,165.988,383.759,165.868,383.743,165.67z M383.062,167.447c-0.635,1.231-1.032,2.54-1.544,3.809
	C382.107,170.004,382.663,168.773,383.062,167.447z"/>
<g>
	<rect x="256.823" y="264.62" style="fill:#353F49;" width="21.274" height="25.492"/>
	<rect x="214.263" y="290.11" style="fill:#353F49;" width="106.4" height="21.276"/>
	<rect x="188.983" y="311.39" style="fill:#353F49;" width="156.95" height="21.279"/>
	<path style="fill:#353F49;" d="M267.453,270.305c-80.835,0-146.639-65.772-146.639-146.616c0-49.18,24.456-94.815,65.444-122.061
		l6.216,9.38c-37.775,25.149-60.362,67.272-60.362,112.678c0,74.642,60.69,135.357,135.342,135.357
		c45.384,0,87.516-22.574,112.699-60.372l9.365,6.244C362.249,245.868,316.615,270.305,267.453,270.305z"/>
</g>
<g>
</g>
<g>
</g>
<g>
</g>
<g>
</g>
<g>
</g>
<g>
</g>
<g>
</g>
<g>
</g>
<g>
</g>
<g>
</g>
<g>
</g>
<g>
</g>
<g>
</g>
<g>
</g>
<g>
</g>
</svg>
