<?xml version="1.0" encoding="iso-8859-1"?>
<!-- Generator: Adobe Illustrator 19.0.0, SVG Export Plug-In . SVG Version: 6.00 Build 0)  -->
<svg version="1.1" id="Layer_1" xmlns="http://www.w3.org/2000/svg" xmlns:xlink="http://www.w3.org/1999/xlink" x="0px" y="0px"
	 viewBox="0 0 512 512" style="enable-background:new 0 0 512 512;" xml:space="preserve">
<path style="fill:#EFEFEF;" d="M256,0C167.087,0.013,95.04,72.053,95.04,160.969c0,47.084,20.262,89.465,52.482,118.91
	c1.526,1.272,3.052,2.603,4.631,3.987c25.147,22.948,40.934,55.934,40.934,92.629v14.002H256h62.91v-14.002
	c0-36.696,15.74-69.682,40.98-92.629c1.533-1.384,3.062-2.715,4.591-3.987c32.167-29.445,52.478-71.825,52.478-118.91
	C416.96,72.053,344.92,0.013,256,0z"/>
<g>
	<path style="fill:#F67656;" d="M224.13,47.573c13.53,0,24.437,10.907,24.437,24.437v177.733c0,11.221-7.459,20.602-17.702,23.506
		c0,0-0.046,0.053-0.056,0c-0.75,0.215-1.496,0.334-2.345,0.548c-0.822,0.165-1.761,0.271-2.775,0.32
		c-0.505,0.096-1.024,0.096-1.559,0.096c-12.985,0-23.123-9.632-24.312-22.003v-0.007c-3.409,1.813-7.403,2.904-11.581,2.904
		c-13.474,0-24.431-10.897-24.431-24.431c0-2.904,0.545-5.817,1.477-8.344c-0.486,0-0.984,0.01-1.477,0.01
		c-13.497,0-24.431-10.901-24.431-24.431c0-5.969,2.127-11.399,5.678-15.674c-7.541-4.155-12.615-12.156-12.615-21.362
		c0-10.247,6.273-19.023,15.248-22.63c-4.152-4.39-6.725-10.286-6.725-16.787c0-13.5,10.977-24.417,24.477-24.417h0.396
		c-0.608-2.131-0.925-4.496-0.925-6.844c0-13.487,10.944-24.441,24.431-24.441c3.673,0,7.564,0.882,10.683,2.319
		C201.893,56.452,211.965,47.573,224.13,47.573z"/>
	<path style="fill:#F67656;" d="M287.876,47.573c-13.5,0-24.5,10.907-24.5,24.437v177.733c0,11.221,7.502,20.602,17.745,23.506
		c0,0,0,0.053,0.056,0c0.733,0.215,1.48,0.334,2.358,0.548c0.842,0.165,1.767,0.271,2.798,0.32c0.499,0.096,1.044,0.096,1.546,0.096
		c13.001,0,23.116-9.632,24.266-22.003v-0.007c3.482,1.813,7.482,2.904,11.611,2.904c13.477,0,24.431-10.897,24.431-24.431
		c0-2.904-0.552-5.817-1.486-8.344c0.499,0,1.001,0.01,1.486,0.01c13.487,0,24.447-10.901,24.447-24.431
		c0-5.969-2.147-11.399-5.705-15.674c7.558-4.155,12.648-12.156,12.648-21.362c0-10.247-6.273-19.023-15.221-22.63
		c4.113-4.39,6.679-10.286,6.679-16.787c0-13.5-10.963-24.417-24.441-24.417h-0.462c0.641-2.131,1.001-4.496,1.001-6.844
		c0-13.487-11-24.441-24.5-24.441c-3.647,0-7.502,0.882-10.66,2.319C310.123,56.452,300.029,47.573,287.876,47.573z"/>
</g>
<g>
	<path style="fill:#D65A38;" d="M224.144,278.696c-15.964,0-28.907-12.978-28.907-28.897c0-15.955,12.945-28.897,28.907-28.897
		c2.431,0,4.43,1.998,4.43,4.436c0,2.471-1.995,4.453-4.43,4.453c-11.049,0-19.991,8.962-19.991,20.008
		c0,11.036,8.942,20.024,19.991,20.024c11.036,0,20.004-8.988,20.004-20.024V72.007c0-11.036-8.965-20.024-20.004-20.024
		c-11.049,0-19.991,8.985-19.991,20.024c0,11.043,8.942,20.004,19.991,20.004c2.431,0,4.43,1.985,4.43,4.456
		c0,2.444-1.995,4.446-4.43,4.446c-15.964,0-28.907-12.949-28.907-28.903c0-15.925,12.945-28.897,28.907-28.897
		c15.915,0,28.897,12.972,28.897,28.897v177.793C253.04,265.718,240.059,278.696,224.144,278.696z"/>
	<path style="fill:#D65A38;" d="M188.271,259.584c-15.955,0-28.897-12.995-28.897-28.897c0-3.373,0.565-6.722,1.708-9.877
		c0.68-1.771,2.359-2.973,4.215-2.973c0.512,0,1.014,0.129,1.506,0.274c1.11,0.406,2.005,1.225,2.507,2.306
		c0.505,1.064,0.542,2.299,0.129,3.419c-0.78,2.19-1.192,4.499-1.192,6.851c0,11.029,8.962,20.027,20.024,20.027
		c3.297,0,6.567-0.856,9.421-2.382c0.654-0.37,1.377-0.545,2.127-0.545c1.622,0,3.122,0.905,3.908,2.296
		c1.186,2.197,0.344,4.879-1.787,6.028C197.751,258.382,193.024,259.584,188.271,259.584z"/>
	<path style="fill:#D65A38;" d="M163.817,226.793c-15.925,0-28.883-12.955-28.883-28.874c0-6.725,2.378-13.329,6.706-18.488
		c0.829-1.014,2.065-1.592,3.412-1.592c1.007,0,2.022,0.377,2.844,1.024c0.902,0.743,1.444,1.853,1.549,3.006
		c0.116,1.209-0.264,2.349-1.004,3.227c-2.999,3.62-4.621,8.136-4.621,12.826c0,11.046,8.972,20.011,20.001,20.011l0,0
		c0.363,0,0.704,0,1.021-0.069c10.702-0.604,18.98-9.371,18.98-19.942c0-2.451,1.998-4.453,4.453-4.453
		c2.418,0,4.416,1.998,4.416,4.453c0,15.268-11.905,27.919-27.133,28.804C165.016,226.753,164.408,226.793,163.817,226.793z"/>
	<path style="fill:#D65A38;" d="M224.56,202.336c-2.441,0-4.43-1.995-4.43-4.42c0-7.581-6.167-13.718-13.702-13.718
		c-7.588,0-13.738,6.137-13.738,13.718c0,2.421-1.998,4.42-4.416,4.42c-2.454,0-4.453-1.995-4.453-4.42
		c0-12.456,10.121-22.607,22.607-22.607c12.43,0,22.571,10.151,22.571,22.607C228.996,200.341,227.024,202.336,224.56,202.336z"/>
	<path style="fill:#D65A38;" d="M156.883,189.764c-15.941,0-28.883-12.935-28.883-28.864c0-15.935,12.939-28.913,28.883-28.913
		c15.935,0,28.907,12.982,28.907,28.913c0,2.438-1.998,4.436-4.476,4.436c-2.448,0-4.42-1.998-4.42-4.436
		c0-11.056-8.975-20.018-20.011-20.018c-11.046,0-20.004,8.962-20.004,20.018c0,11.029,8.958,19.965,20.004,19.965
		c2.434,0,4.43,1.998,4.43,4.473C161.31,187.778,159.318,189.764,156.883,189.764z"/>
	<path style="fill:#D65A38;" d="M147.687,142.703c-1.249,0-2.378-0.489-3.247-1.401c-5.094-5.355-7.882-12.414-7.882-19.836
		c0-15.915,12.959-28.88,28.88-28.88c0.225,0,0.489,0,0.704,0c13.765,0.248,25.432,9.444,27.166,21.428
		c1.001,7.145,5.639,14.323,13.748,14.323c2.464,0,4.443,1.998,4.443,4.476c0,2.425-1.982,4.41-4.443,4.41
		c-11.621,0-20.682-8.81-22.531-21.973c-1.219-8.453-10.468-13.665-18.713-13.784h-0.403c-10.99,0-19.975,8.995-19.975,20.001
		c0,5.127,1.946,10.009,5.473,13.748c1.645,1.751,1.599,4.562-0.162,6.253C149.854,142.253,148.79,142.703,147.687,142.703z"/>
	<path style="fill:#D65A38;" d="M165.875,101.465c-1.956,0-3.71-1.308-4.251-3.211c-0.783-2.577-1.176-5.288-1.176-8.04
		c0-15.945,12.982-28.88,28.877-28.88c4.41,0,8.645,0.965,12.618,2.88c2.167,1.05,3.098,3.733,2.038,5.903
		c-0.74,1.579-2.273,2.517-3.974,2.517c-0.69,0-1.338-0.162-1.952-0.436c-2.742-1.344-5.655-1.975-8.73-1.975
		c-5.318,0-10.346,2.065-14.131,5.85c-3.752,3.762-5.85,8.77-5.85,14.141c0,1.873,0.264,3.752,0.809,5.586
		c0.314,1.166,0.168,2.372-0.396,3.416c-0.568,1.001-1.533,1.751-2.662,2.084C166.816,101.416,166.387,101.465,165.875,101.465z"/>
	<path style="fill:#D65A38;" d="M287.876,278.696c-15.971,0-28.92-12.978-28.92-28.897V72.007c0-15.925,12.949-28.897,28.92-28.897
		c15.945,0,28.887,12.972,28.887,28.897c0,15.955-12.942,28.903-28.887,28.903c-2.501,0-4.499-1.998-4.499-4.446
		c0-2.471,1.998-4.456,4.499-4.456c11,0,20.001-8.958,20.001-20.004c0-11.036-9.001-20.024-20.001-20.024
		c-11.013,0-20.001,8.985-20.001,20.024v177.793c0,11.036,8.988,20.024,20.001,20.024c11,0,20.001-8.988,20.001-20.024
		c0-11.046-9.001-20.008-20.001-20.008c-2.501,0-4.499-1.982-4.499-4.453c0-2.438,1.998-4.436,4.499-4.436
		c15.945,0,28.887,12.942,28.887,28.897C316.766,265.718,303.824,278.696,287.876,278.696z"/>
	<path style="fill:#D65A38;" d="M323.703,259.584c-4.74,0-9.467-1.202-13.629-3.449c-2.197-1.169-2.953-3.852-1.794-6.022
		c0.786-1.414,2.276-2.319,3.848-2.319c0.75,0,1.496,0.175,2.193,0.545c2.808,1.526,6.068,2.382,9.381,2.382
		c11.079,0,20.047-9.001,20.047-20.027c0-2.352-0.38-4.661-1.176-6.867c-0.446-1.103-0.406-2.339,0.092-3.392
		c0.499-1.093,1.453-1.913,2.517-2.322c0.482-0.142,0.984-0.271,1.51-0.271c1.883,0,3.541,1.202,4.179,2.95
		c1.186,3.181,1.757,6.481,1.757,9.903C352.629,246.589,339.628,259.584,323.703,259.584z"/>
	<path style="fill:#D65A38;" d="M348.167,226.793c-0.538,0-1.173-0.036-1.721-0.066c-15.231-0.889-27.106-13.54-27.106-28.807
		c0-2.451,1.982-4.453,4.36-4.453c2.444,0,4.44,1.998,4.44,4.453c0,10.57,8.301,19.337,18.894,19.918
		c0.443,0.092,0.836,0.092,1.133,0.092c11.033,0,20.001-8.965,20.001-20.011c0-4.681-1.599-9.199-4.601-12.83
		c-0.75-0.875-1.159-2.018-1.017-3.227c0.076-1.156,0.628-2.259,1.579-3.026c0.75-0.621,1.747-1.001,2.818-1.001
		c1.358,0,2.586,0.578,3.425,1.592c4.288,5.17,6.722,11.769,6.722,18.488C377.093,213.838,364.128,226.793,348.167,226.793z"/>
	<path style="fill:#D65A38;" d="M323.703,202.336c-2.382,0-4.36-1.995-4.36-4.42c0-7.581-6.217-13.718-13.732-13.718
		c-7.578,0-13.732,6.137-13.732,13.718c0,2.421-1.998,4.42-4.479,4.42c-2.425,0-4.4-1.995-4.4-4.42
		c0-12.456,10.124-22.607,22.614-22.607c12.45,0,22.531,10.151,22.531,22.607C328.142,200.341,326.147,202.336,323.703,202.336z"/>
	<path style="fill:#D65A38;" d="M355.13,189.764c-2.487,0-4.479-1.985-4.479-4.426c0-2.471,1.995-4.473,4.479-4.473
		c11,0,20.001-8.939,20.001-19.965c0-11.056-9.001-20.018-20.001-20.018c-11.006,0-20.001,8.962-20.001,20.018
		c0,2.438-1.998,4.436-4.482,4.436c-2.448,0-4.449-1.998-4.449-4.436c0-15.935,12.962-28.913,28.933-28.913
		c15.938,0,28.87,12.982,28.87,28.913C384,176.828,371.068,189.764,355.13,189.764z"/>
	<path style="fill:#D65A38;" d="M364.356,142.703c-1.176,0-2.226-0.449-3.052-1.229c-1.823-1.704-1.909-4.509-0.182-6.26
		c3.508-3.739,5.454-8.625,5.454-13.748c0-11.006-8.968-20.001-20.004-20.001h-0.38c-8.268,0.119-17.537,5.335-18.729,13.788
		c-1.837,13.16-10.887,21.97-22.561,21.97c-2.425,0-4.4-1.985-4.4-4.41c0-2.477,1.975-4.476,4.4-4.476
		c8.149,0,12.744-7.178,13.765-14.323c1.711-11.984,13.461-21.18,27.222-21.428c0.215,0,0.482,0,0.684,0
		c15.898,0,28.85,12.965,28.85,28.88c0,7.422-2.798,14.481-7.858,19.836C366.668,142.214,365.575,142.703,364.356,142.703z"/>
	<path style="fill:#D65A38;" d="M346.129,101.465c-0.499,0-0.961-0.053-1.311-0.215c-1.044-0.284-1.965-1.037-2.586-2.038
		c-0.601-1.054-0.694-2.249-0.357-3.416c0.499-1.833,0.756-3.713,0.756-5.586c0-11.029-8.972-19.991-20.001-19.991
		c-2.999,0-5.985,0.628-8.704,1.979c-0.552,0.271-1.282,0.433-1.932,0.433c-1.691,0-3.231-0.938-3.974-2.507
		c-1.07-2.18-0.142-4.866,2.061-5.903c3.941-1.922,8.169-2.89,12.549-2.89c15.981,0,28.923,12.939,28.923,28.88
		c0,2.748-0.423,5.46-1.179,8.06C349.871,100.164,348.124,101.465,346.129,101.465z"/>
</g>
<polygon style="fill:#CCCBCA;" points="256.023,512 212.503,486.03 299.537,486.03 "/>
<path style="fill:#333C49;" d="M327.667,475.793c0,2.623-1.001,5.236-2.999,7.234c-1.998,1.998-4.611,2.999-7.224,2.999H194.56
	c-2.613,0-5.236-1.001-7.237-2.999c-2.002-1.998-2.999-4.611-2.999-7.234v-85.296H327.67v85.296H327.667z"/>
<g>
	<rect x="184.323" y="401.111" style="fill:#3F4A5A;" width="143.36" height="10.57"/>
	<rect x="184.323" y="422.35" style="fill:#3F4A5A;" width="143.36" height="10.607"/>
	<rect x="184.323" y="443.557" style="fill:#3F4A5A;" width="143.36" height="10.617"/>
	<rect x="184.323" y="464.764" style="fill:#3F4A5A;" width="143.36" height="10.663"/>
</g>
<g>
</g>
<g>
</g>
<g>
</g>
<g>
</g>
<g>
</g>
<g>
</g>
<g>
</g>
<g>
</g>
<g>
</g>
<g>
</g>
<g>
</g>
<g>
</g>
<g>
</g>
<g>
</g>
<g>
</g>
</svg>
