<?xml version="1.0" encoding="iso-8859-1"?>
<!-- Generator: Adobe Illustrator 19.0.0, SVG Export Plug-In . SVG Version: 6.00 Build 0)  -->
<svg version="1.1" id="Layer_1" xmlns="http://www.w3.org/2000/svg" xmlns:xlink="http://www.w3.org/1999/xlink" x="0px" y="0px"
	 viewBox="0 0 356.67 356.67" style="enable-background:new 0 0 356.67 356.67;" xml:space="preserve">
<g>
	<title>learning-human-head-thinking-meditation</title>
	<path style="fill:#F78628;" d="M164.291,295.367h29.091c37.471-34.551,60.051-82.309,62.975-133.194v-6.13h-25.691l7.189,7.189
		l-7.858,7.858l-20.509-20.62l20.676-20.676l7.858,7.858l-7.245,7.245h26.36v-0.502c0.666-11.224-1.102-22.459-5.183-32.936h-43.525
		l7.189,7.189l-7.858,7.858l-20.564-20.62l20.676-20.676l7.858,7.858l-7.245,7.245h38.119c-3.012-5.182-6.602-10.005-10.7-14.378
		c-29.731-31.529-79.392-32.988-110.922-3.257c-9.967,9.398-17.3,21.242-21.269,34.354h27.865l-7.189-7.189l7.858-7.858
		l20.676,20.676l-20.676,20.676l-7.858-7.858l7.189-7.189h-30.317c-0.793,5.367-1.036,10.801-0.725,16.217l1.059,17.778
		C104.479,213.089,126.954,260.794,164.291,295.367z M200.627,183.908c0,1.393,5.907,5.573,16.719,5.573s16.719-4.18,16.719-5.573
		h11.146c0,9.53-11.982,16.719-27.865,16.719s-27.865-7.189-27.865-16.719H200.627z M195.054,245.21v11.146h-33.438V245.21H195.054z
		 M167.189,89.167h11.146v11.146h-11.146V89.167z M144.897,100.313V89.167h11.146v11.146H144.897z M111.459,183.908h11.146
		c0,1.393,5.907,5.573,16.719,5.573s16.719-4.18,16.719-5.573h11.146c0,9.53-11.982,16.719-27.865,16.719
		S111.459,193.438,111.459,183.908z"/>
	<rect x="161.616" y="245.21" style="fill:#414A52;" width="33.438" height="11.146"/>
	<path style="fill:#414A52;" d="M167.189,183.908h-11.146c0,1.393-5.907,5.573-16.719,5.573s-16.719-4.18-16.719-5.573h-11.146
		c0,9.53,11.982,16.719,27.865,16.719S167.189,193.438,167.189,183.908z"/>
	<path style="fill:#414A52;" d="M217.345,189.481c-10.812,0-16.719-4.18-16.719-5.573H189.48c0,9.53,11.982,16.719,27.865,16.719
		s27.865-7.189,27.865-16.719h-11.146C234.064,185.301,228.157,189.481,217.345,189.481z"/>
	<rect y="117.032" style="fill:#414A52;" width="16.719" height="11.146"/>
	<rect x="22.292" y="94.74" style="fill:#414A52;" width="11.146" height="11.146"/>
	<rect y="94.74" style="fill:#414A52;" width="11.146" height="11.146"/>
	<rect x="323.232" y="100.313" style="fill:#414A52;" width="11.146" height="11.146"/>
	<rect x="345.524" y="100.313" style="fill:#414A52;" width="11.146" height="11.146"/>
	<rect x="289.794" y="22.292" style="fill:#414A52;" width="11.146" height="11.146"/>
	<rect x="312.086" y="22.292" style="fill:#414A52;" width="11.146" height="11.146"/>
	<rect x="334.378" y="22.292" style="fill:#414A52;" width="11.146" height="11.146"/>
	<rect x="22.292" y="0" style="fill:#414A52;" width="11.146" height="11.146"/>
	<rect x="44.584" y="0" style="fill:#414A52;" width="11.146" height="11.146"/>
	<rect x="66.876" y="0" style="fill:#414A52;" width="11.146" height="11.146"/>
	<rect x="172.762" y="27.865" style="fill:#414A52;" width="11.146" height="11.146"/>
	<rect x="195.054" y="27.865" style="fill:#414A52;" width="11.146" height="11.146"/>
	<rect x="144.897" y="89.167" style="fill:#414A52;" width="11.146" height="11.146"/>
	<rect x="167.189" y="89.167" style="fill:#414A52;" width="11.146" height="11.146"/>
	<rect x="217.345" y="27.865" style="fill:#414A52;" width="11.146" height="11.146"/>
	<path style="fill:#414A52;" d="M263.88,111.459h48.206v-11.146h-52.72c-3.982-8.061-9.148-15.481-15.326-22.013
		c-33.108-35.11-88.074-37.697-124.333-5.852H27.865v11.146h81.198c-7.989,9.804-13.784,21.206-16.998,33.438h-64.2v11.146h62.083
		c-0.718,5.542-0.923,11.139-0.613,16.719l1.059,17.778c2.312,42.17,17.439,82.629,43.358,115.973l0,0
		c0,15.389-12.475,27.865-27.865,27.865H58.46c-10.347-0.001-20.27,4.109-27.586,11.425L1.672,347.14
		c-1.043,1.052-1.625,2.475-1.616,3.957v5.573h11.146v-3.288l27.586-27.586c5.236-5.223,12.333-8.15,19.728-8.137h47.37
		c17.235-0.02,32.415-11.348,37.339-27.865c4.774,5.323,9.815,10.401,15.103,15.214c1.022,0.929,2.353,1.445,3.734,1.449H195.5
		c1.381-0.004,2.712-0.52,3.734-1.449c5.053-4.607,9.846-9.418,14.378-14.434c5.185,16.149,20.211,27.097,37.172,27.085h47.426
		c7.395-0.013,14.492,2.914,19.728,8.137l27.586,27.586v3.288h11.146v-5.573c0.008-1.481-0.573-2.905-1.616-3.957l-29.202-29.202
		c-7.317-7.316-17.24-11.425-27.586-11.425h-47.482c-15.048,0.008-27.383-11.933-27.865-26.973
		c26.497-33.395,42.064-74.142,44.584-116.698v-6.799h89.167v-11.146h-88.331C268.985,133.569,267.472,122.222,263.88,111.459z
		 M256.356,162.173c-2.923,50.885-25.503,98.643-62.974,133.194h-29.091c-37.384-34.591-59.881-82.343-62.752-133.194l-1.226-17.778
		c-0.311-5.416-0.068-10.85,0.725-16.217h30.317l-7.189,7.189l7.858,7.858l20.676-20.676l-20.676-20.676l-7.858,7.858l7.189,7.189
		H103.49c12.556-41.477,56.359-64.922,97.837-52.366c13.112,3.969,24.956,11.302,34.354,21.269c4.099,4.373,7.688,9.197,10.7,14.378
		h-38.119l7.189-7.189l-7.858-7.858l-20.397,20.731l20.676,20.676l7.858-7.858l-7.245-7.245h43.525
		c4.081,10.477,5.849,21.712,5.183,32.936v0.502h-26.36l7.189-7.189l-7.858-7.858l-20.676,20.62l20.676,20.676l7.858-7.858
		l-7.245-7.245h25.58v6.131H256.356z"/>
</g>
<g>
</g>
<g>
</g>
<g>
</g>
<g>
</g>
<g>
</g>
<g>
</g>
<g>
</g>
<g>
</g>
<g>
</g>
<g>
</g>
<g>
</g>
<g>
</g>
<g>
</g>
<g>
</g>
<g>
</g>
</svg>
