<?xml version="1.0" encoding="iso-8859-1"?>
<!-- Generator: Adobe Illustrator 19.0.0, SVG Export Plug-In . SVG Version: 6.00 Build 0)  -->
<svg version="1.1" id="Layer_1" xmlns="http://www.w3.org/2000/svg" xmlns:xlink="http://www.w3.org/1999/xlink" x="0px" y="0px"
	 viewBox="0 0 512.002 512.002" style="enable-background:new 0 0 512.002 512.002;" xml:space="preserve">
<g>
	<path style="fill:#232E38;" d="M123.134,475.532c-0.486,0-0.978-0.138-1.413-0.43C60.814,434.347,24.454,366.34,24.454,293.186
		c0-2.865,0.077-5.901,0.246-9.848c0.061-1.405,1.247-2.455,2.657-2.435c1.405,0.061,2.493,1.252,2.435,2.657
		c-0.169,3.871-0.246,6.84-0.246,9.626c0,71.45,35.517,137.874,95.007,177.684c1.17,0.781,1.485,2.363,0.699,3.53
		C124.765,475.138,123.956,475.532,123.134,475.532z"/>
	<path style="fill:#232E38;" d="M128.677,176.698c-0.668,0-1.336-0.261-1.838-0.781c-0.973-1.014-0.942-2.624,0.074-3.602
		c2.335-2.245,4.782-4.465,7.278-6.597c1.065-0.916,2.67-0.794,3.589,0.276c0.914,1.068,0.791,2.678-0.279,3.589
		c-2.419,2.071-4.797,4.224-7.063,6.403C129.946,176.465,129.312,176.698,128.677,176.698z"/>
	<path style="fill:#232E38;" d="M78.03,300.768c-1.37,0-2.499-1.085-2.542-2.465c-0.054-1.7-0.079-3.402-0.079-5.112
		c0.003-4.15,0.156-8.32,0.453-12.396c0.1-1.398,1.267-2.47,2.726-2.353c1.4,0.102,2.455,1.324,2.353,2.726
		c-0.289,3.95-0.438,7.995-0.44,12.024c0,1.654,0.026,3.302,0.079,4.951c0.044,1.403-1.06,2.581-2.465,2.621
		C78.086,300.768,78.06,300.768,78.03,300.768z M80.554,266.426c-0.148,0-0.3-0.015-0.451-0.044
		c-1.388-0.248-2.307-1.569-2.061-2.954c1.024-5.716,2.365-11.451,3.991-17.05c0.394-1.349,1.8-2.115,3.156-1.736
		c1.349,0.392,2.127,1.805,1.736,3.156c-1.577,5.425-2.877,10.988-3.868,16.525C82.837,265.558,81.765,266.426,80.554,266.426z
		 M90.156,233.356c-0.323,0-0.648-0.061-0.963-0.189c-1.303-0.532-1.928-2.02-1.395-3.32c2.194-5.376,4.708-10.706,7.468-15.841
		c0.663-1.239,2.209-1.702,3.451-1.039c1.236,0.668,1.702,2.212,1.039,3.451c-2.678,4.979-5.112,10.143-7.24,15.355
		C92.11,232.757,91.16,233.356,90.156,233.356z M106.443,203.015c-0.494,0-0.991-0.141-1.431-0.443
		c-1.162-0.791-1.462-2.376-0.671-3.535c3.282-4.818,6.845-9.513,10.591-13.947c0.906-1.073,2.514-1.206,3.589-0.302
		c1.073,0.906,1.208,2.514,0.302,3.589c-3.633,4.301-7.089,8.85-10.273,13.524C108.058,202.626,107.257,203.015,106.443,203.015z"/>
	<path style="fill:#232E38;" d="M81.053,327.577c-1.193,0-2.258-0.845-2.496-2.063c-0.63-3.218-1.167-6.479-1.605-9.69
		c-0.189-1.393,0.786-2.675,2.179-2.865c1.39-0.223,2.68,0.783,2.867,2.176c0.428,3.118,0.95,6.282,1.559,9.411
		c0.269,1.377-0.632,2.716-2.012,2.985C81.378,327.559,81.214,327.577,81.053,327.577z"/>
	<path style="fill:#232E38;" d="M226.648,479.346c-0.077,0-0.156-0.003-0.233-0.01c-3.22-0.292-6.497-0.673-9.743-1.132
		c-1.393-0.197-2.36-1.485-2.166-2.877c0.2-1.393,1.513-2.358,2.88-2.166c3.159,0.448,6.351,0.819,9.492,1.103
		c1.398,0.131,2.432,1.367,2.304,2.767C229.062,478.353,227.951,479.346,226.648,479.346z"/>
	<path style="fill:#232E38;" d="M246.037,480.076c-1.39,0-2.524-1.116-2.545-2.506c-0.023-1.403,1.101-2.563,2.506-2.583
		c6.39-0.1,12.81-0.532,19.08-1.288c1.375-0.166,2.665,0.824,2.831,2.225c0.169,1.395-0.824,2.665-2.222,2.829
		c-6.446,0.781-13.043,1.226-19.615,1.324C246.066,480.076,246.05,480.076,246.037,480.076z M284.491,475.455
		c-1.162,0-2.209-0.799-2.478-1.979c-0.317-1.37,0.54-2.734,1.912-3.046c6.2-1.423,12.39-3.19,18.399-5.256
		c1.326-0.456,2.775,0.248,3.236,1.58c0.456,1.331-0.251,2.78-1.579,3.236c-6.175,2.125-12.539,3.94-18.918,5.399
		C284.87,475.432,284.681,475.455,284.491,475.455z M321.14,462.855c-0.96,0-1.879-0.545-2.312-1.472
		c-0.591-1.272-0.044-2.788,1.231-3.384c5.763-2.691,11.443-5.716,16.878-8.998c1.208-0.73,2.77-0.343,3.497,0.863
		s0.338,2.77-0.865,3.494c-5.591,3.374-11.43,6.487-17.357,9.257C321.867,462.776,321.501,462.855,321.14,462.855z M354.323,442.841
		c-0.773,0-1.533-0.348-2.033-1.009c-0.85-1.121-0.63-2.719,0.492-3.569c5.082-3.848,10.002-7.992,14.63-12.324
		c1.024-0.965,2.637-0.909,3.597,0.118c0.963,1.024,0.909,2.637-0.118,3.597c-4.751,4.452-9.812,8.717-15.037,12.669
		C355.395,442.677,354.858,442.841,354.323,442.841z M382.603,416.368c-0.591,0-1.185-0.205-1.667-0.622
		c-1.062-0.919-1.18-2.529-0.259-3.592c4.17-4.815,8.123-9.892,11.745-15.094c0.801-1.149,2.386-1.441,3.548-0.632
		c1.152,0.804,1.436,2.391,0.63,3.548c-3.72,5.343-7.785,10.563-12.073,15.514C384.024,416.068,383.312,416.368,382.603,416.368z
		 M404.752,384.591c-0.415,0-0.837-0.1-1.226-0.317c-1.229-0.681-1.677-2.227-1.001-3.459c3.067-5.568,5.87-11.359,8.333-17.211
		c0.548-1.298,2.043-1.907,3.333-1.359c1.3,0.545,1.907,2.038,1.359,3.333c-2.529,6.019-5.412,11.973-8.566,17.695
		C406.524,384.117,405.651,384.591,404.752,384.591z M419.772,348.889c-0.243,0-0.489-0.036-0.735-0.11
		c-1.344-0.404-2.109-1.825-1.705-3.172c1.828-6.08,3.354-12.334,4.529-18.586c0.259-1.38,1.582-2.307,2.972-2.03
		c1.382,0.259,2.294,1.592,2.03,2.972c-1.208,6.428-2.772,12.854-4.649,19.11C421.876,348.175,420.865,348.889,419.772,348.889z
		 M426.94,310.819c-0.069,0-0.138-0.003-0.207-0.005c-1.405-0.115-2.445-1.341-2.335-2.744c0.399-4.91,0.602-9.917,0.602-14.881
		c0-1.421-0.018-2.836-0.051-4.247c-0.033-1.408,1.083-2.573,2.488-2.606c0.02,0,0.041,0,0.056,0c1.382,0,2.516,1.101,2.545,2.488
		c0.033,1.449,0.051,2.906,0.051,4.365c0,5.102-0.207,10.248-0.612,15.293C429.369,309.816,428.253,310.819,426.94,310.819z
		 M426.036,272.073c-1.26,0-2.358-0.934-2.519-2.22c-0.812-6.316-1.969-12.646-3.438-18.826c-0.325-1.367,0.52-2.739,1.889-3.067
		c1.341-0.325,2.739,0.522,3.064,1.889c1.51,6.349,2.701,12.861,3.53,19.354c0.182,1.398-0.801,2.673-2.199,2.849
		C426.254,272.068,426.146,272.073,426.036,272.073z M417.074,234.38c-1.047,0-2.03-0.655-2.401-1.7
		c-2.117-5.99-4.582-11.935-7.319-17.677c-0.609-1.27-0.069-2.788,1.201-3.395c1.275-0.612,2.79-0.067,3.392,1.201
		c2.821,5.903,5.353,12.019,7.529,18.173c0.471,1.326-0.228,2.78-1.551,3.251C417.642,234.334,417.353,234.38,417.074,234.38z"/>
	<path style="fill:#232E38;" d="M400.285,199.27c-0.855,0-1.692-0.433-2.173-1.216c-1.682-2.729-3.436-5.417-5.212-7.99
		c-0.801-1.157-0.509-2.744,0.648-3.543c1.162-0.801,2.742-0.502,3.543,0.645c1.828,2.65,3.63,5.409,5.361,8.218
		c0.737,1.196,0.366,2.765-0.835,3.502C401.202,199.147,400.741,199.27,400.285,199.27z"/>
	<path style="fill:#232E38;" d="M39.453,295.733c-1.408,0-2.545-1.137-2.545-2.545c0-113.733,92.518-206.259,206.241-206.259
		c90.056,0,169.014,57.574,196.477,143.263c0.43,1.339-0.31,2.772-1.649,3.203c-1.352,0.422-2.772-0.31-3.203-1.649
		c-26.788-83.576-103.798-139.73-191.626-139.73c-110.915,0-201.152,90.245-201.152,201.17
		C41.998,294.594,40.858,295.733,39.453,295.733z"/>
	<path style="fill:#232E38;" d="M243.15,512.002c-24.781,0-49.183-4.16-72.53-12.365c-1.326-0.466-2.025-1.92-1.556-3.249
		c0.466-1.331,1.917-2.028,3.249-1.556c22.802,8.013,46.636,12.081,70.838,12.081c66.125,0,127.488-29.926,168.351-82.107
		c0.86-1.106,2.455-1.308,3.574-0.435c1.108,0.868,1.303,2.468,0.435,3.574C373.674,481.364,310.851,512.002,243.15,512.002z"/>
</g>
<path style="fill:#FFFFFF;" d="M123.613,412.968c-1.388,0-2.716,0.236-3.963,0.66c0.364-1.856,0.563-3.763,0.563-5.714
	c0-16.315-13.22-29.519-29.527-29.519c-16.315,0-29.532,13.217-29.532,29.519c0,0.223,0.018,0.433,0.01,0.648
	c-1.861-0.824-3.927-1.293-6.103-1.293c-8.343,0-15.091,6.753-15.091,15.086c0,8.333,6.758,15.091,15.091,15.091l68.549-0.005
	c6.758,0,12.234-5.478,12.234-12.234C135.847,418.452,130.369,412.968,123.613,412.968z"/>
<path style="fill:#232E38;" d="M55.064,439.989L55.064,439.989c-9.725,0-17.636-7.91-17.636-17.636
	c0-9.723,7.91-17.631,17.636-17.631c1.244,0,2.468,0.131,3.666,0.381c1.428-16.371,15.212-29.258,31.956-29.258
	c17.687,0,32.072,14.382,32.072,32.064c0,0.842-0.033,1.69-0.102,2.537c8.456-0.553,15.736,6.282,15.736,14.753
	c0,8.151-6.63,14.779-14.779,14.779L55.064,439.989z M55.064,409.814c-6.917,0-12.544,5.627-12.544,12.539
	c0,6.917,5.629,12.544,12.544,12.544l68.549-0.005c5.34,0,9.69-4.347,9.69-9.69c0-5.343-4.347-9.69-9.69-9.69
	c-1.068,0-2.122,0.177-3.139,0.522c-0.855,0.3-1.81,0.11-2.499-0.486c-0.686-0.596-1.001-1.516-0.824-2.406
	c0.338-1.748,0.515-3.505,0.515-5.228c0-14.876-12.104-26.975-26.982-26.975c-14.881,0-26.988,12.101-26.988,26.975
	c0.013,0.369,0.018,0.54,0.013,0.719c-0.023,0.847-0.468,1.628-1.185,2.081c-0.722,0.451-1.615,0.517-2.394,0.174
	C58.528,410.178,56.818,409.814,55.064,409.814z"/>
<path style="fill:#FFFFFF;" d="M372.035,290.728c0.01,0,0.018,0,0.023,0c-0.005-0.346-0.023-0.686-0.023-1.029
	c0-19.86,16.095-35.955,35.955-35.955c16.233,0,29.952,10.767,34.412,25.541c2.716-1.283,5.734-1.994,8.927-1.994
	c11.574,0,20.961,9.385,20.961,20.961c0,2.668-0.502,5.212-1.411,7.56c0.236-0.02,0.458-0.038,0.691-0.038
	c7.419,0,13.435,6.019,13.435,13.435c0,7.419-6.016,13.44-13.435,13.44h-99.535c-11.579,0-20.961-9.385-20.961-20.964
	C351.077,300.108,360.457,290.728,372.035,290.728z"/>
<path style="fill:#232E38;" d="M471.571,335.195h-99.535c-12.961,0-23.506-10.547-23.506-23.514
	c0-12.106,9.203-22.103,20.982-23.363c0.73-20.595,17.707-37.12,38.477-37.12c15.908,0,30.313,10.038,35.955,24.732
	c2.368-0.788,4.844-1.185,7.386-1.185c12.961,0,23.506,10.542,23.506,23.506c0,1.761-0.192,3.5-0.579,5.202
	c7.534,1.28,13.292,7.859,13.292,15.754C487.55,328.022,480.382,335.195,471.571,335.195z M407.991,256.288
	c-18.422,0-33.411,14.989-33.411,33.411l0.023,0.986c0.013,0.686-0.253,1.344-0.727,1.83c-0.481,0.486-1.134,0.76-1.818,0.76
	c-10.176,0-18.437,8.261-18.437,18.406c0,10.156,8.264,18.419,18.414,18.419h99.535c6.006,0,10.89-4.887,10.89-10.895
	c0-6.003-4.884-10.888-10.89-10.888c-0.159,0-0.31,0.013-0.469,0.026c-0.916,0.082-1.736-0.325-2.25-1.019
	c-0.52-0.699-0.666-1.618-0.348-2.435c0.822-2.127,1.239-4.362,1.239-6.641c0-10.153-8.264-18.414-18.414-18.414
	c-2.739,0-5.381,0.589-7.841,1.754c-0.673,0.317-1.441,0.325-2.122,0.023c-0.678-0.299-1.19-0.881-1.403-1.59
	C435.751,266.05,422.598,256.288,407.991,256.288z"/>
<g>
	<path style="fill:#FFFFFF;" d="M326.516,86.98h-22.405l-9.4,31.337h5.796c2.071,0,4.168-0.502,6.1-1.6
		c1.94-1.088,3.459-2.619,4.534-4.388L326.516,86.98z"/>
	<path style="fill:#FFFFFF;" d="M326.516,86.98h-22.405l-9.4-31.337h5.796c2.071,0,4.168,0.507,6.1,1.595
		c1.94,1.096,3.459,2.624,4.534,4.396L326.516,86.98z"/>
	<path style="fill:#FFFFFF;" d="M434.712,77.936h-92.593c-12.173,0-23.447,3.351-32.707,9.044
		c9.259,5.699,20.534,9.047,32.707,9.047h92.593c7.421,0,13.814-3.709,16.755-9.047C448.523,81.638,442.133,77.936,434.712,77.936z"
		/>
</g>
<g>
	<path style="fill:#F77B55;" d="M381.871,136.465c-0.328-0.325-0.763-0.494-1.198-0.494h-0.361h-12.145
		c-7.913,0-15.096,0.998-20.411,2.619c-0.113,0.038-0.64,0.202-0.64,0.202c-0.146,0.051-0.269,0.136-0.361,0.264
		c-0.097,0.131-0.138,0.282-0.138,0.43v4.314c0,0.141,0.041,0.292,0.138,0.42c0.09,0.128,0.215,0.223,0.361,0.271
		c0,0,0.527,0.161,0.64,0.197c5.312,1.623,12.498,2.624,20.411,2.624h12.145h0.361c0.435,0,0.87-0.166,1.198-0.492
		c0.33-0.338,0.494-0.76,0.494-1.193v-7.964C382.365,137.225,382.201,136.793,381.871,136.465z"/>
	<path style="fill:#F77B55;" d="M391.435,113.4c-0.333-0.333-0.758-0.494-1.193-0.494h-0.366h-12.142
		c-7.91,0-15.094,0.996-20.419,2.619c-0.108,0.031-0.637,0.202-0.637,0.202c-0.141,0.041-0.271,0.133-0.361,0.266
		c-0.1,0.12-0.138,0.274-0.138,0.422v4.316c0,0.148,0.038,0.292,0.138,0.422c0.087,0.136,0.22,0.215,0.361,0.266
		c0,0,0.53,0.164,0.637,0.202c5.322,1.623,12.508,2.621,20.419,2.621h12.142h0.366c0.435,0,0.86-0.166,1.193-0.494
		c0.33-0.335,0.489-0.763,0.489-1.201v-7.951C391.927,114.16,391.765,113.727,391.435,113.4z"/>
</g>
<path style="fill:#FFFFFF;" d="M344.751,171.86l7.255-2.45c1.825-0.617,3.574-1.549,5.161-2.824
	c1.592-1.272,2.885-2.772,3.884-4.413l40.131-66.148h-39.178v18.327L344.751,171.86z"/>
<g>
	<path style="fill:#F77B55;" d="M381.871,27.151c-0.328-0.333-0.763-0.497-1.198-0.497h-0.361h-12.145
		c-7.913,0-15.096,0.998-20.411,2.619c-0.113,0.036-0.64,0.207-0.64,0.207c-0.146,0.044-0.269,0.133-0.361,0.256
		c-0.097,0.131-0.138,0.284-0.138,0.433v4.311c0,0.156,0.041,0.302,0.138,0.425c0.09,0.128,0.215,0.223,0.361,0.264
		c0,0,0.527,0.166,0.64,0.207c5.312,1.623,12.498,2.614,20.411,2.614h12.145h0.361c0.435,0,0.87-0.164,1.198-0.492
		c0.33-0.33,0.494-0.763,0.494-1.193v-7.959C382.365,27.913,382.201,27.483,381.871,27.151z"/>
	<path style="fill:#F77B55;" d="M391.435,50.216c-0.333-0.328-0.758-0.499-1.193-0.499h-0.366h-12.142
		c-7.91,0-15.094,1.004-20.419,2.627c-0.108,0.036-0.637,0.202-0.637,0.202c-0.141,0.046-0.271,0.131-0.361,0.261
		c-0.1,0.128-0.138,0.279-0.138,0.428v4.316c0,0.143,0.038,0.297,0.138,0.425c0.087,0.123,0.22,0.215,0.361,0.264
		c0,0,0.53,0.169,0.637,0.202c5.322,1.631,12.508,2.619,20.419,2.619h12.142h0.366c0.435,0,0.86-0.161,1.193-0.492
		c0.33-0.33,0.489-0.76,0.489-1.196v-7.954C391.927,50.984,391.765,50.546,391.435,50.216z"/>
</g>
<path style="fill:#FFFFFF;" d="M344.751,2.101l7.255,2.445c1.825,0.617,3.574,1.554,5.161,2.824c1.592,1.27,2.885,2.775,3.884,4.419
	l40.131,66.148h-39.178v-18.33L344.751,2.101z"/>
<g>
	<path style="fill:#232E38;" d="M300.507,120.416h-5.796c-0.666,0-1.288-0.315-1.682-0.847c-0.394-0.532-0.517-1.221-0.328-1.856
		l9.4-31.337c0.266-0.886,1.083-1.495,2.01-1.495h22.405c0.758,0,1.454,0.41,1.828,1.068c0.374,0.66,0.358,1.469-0.036,2.12
		l-15.375,25.347c-1.303,2.14-3.136,3.914-5.299,5.128C305.486,119.766,303.015,120.416,300.507,120.416z M297.529,116.218h2.977
		c1.81,0,3.512-0.445,5.066-1.326c1.569-0.881,2.836-2.109,3.781-3.653l13.44-22.162h-17.126L297.529,116.218z"/>
	<path style="fill:#232E38;" d="M326.572,89.077c-0.015,0-0.036,0-0.056,0h-22.405c-0.927,0-1.746-0.609-2.01-1.495l-9.4-31.337
		c-0.189-0.635-0.067-1.324,0.328-1.856c0.394-0.532,1.016-0.845,1.682-0.845h5.796c2.501,0,4.964,0.645,7.13,1.866
		c2.168,1.221,4.001,2.995,5.294,5.128l15.155,24.986c0.364,0.376,0.586,0.888,0.586,1.454
		C328.672,88.14,327.732,89.077,326.572,89.077z M305.667,84.884h17.121l-13.445-22.162c-0.937-1.541-2.204-2.772-3.771-3.656
		c-1.536-0.865-3.292-1.324-5.069-1.324h-2.977L305.667,84.884z"/>
	<path style="fill:#232E38;" d="M434.712,98.124h-92.6c-6.848,0-13.527-1.016-19.848-3.028c-0.883-0.248-1.536-1.057-1.536-2.017
		c0-1.16,0.919-2.097,2.081-2.097h0.033c0.215,0,0.43,0.036,0.637,0.1c5.924,1.889,12.193,2.847,18.632,2.847h92.6
		c5.944,0,11.418-2.696,14.298-6.956c-2.88-4.242-8.356-6.927-14.298-6.927h-92.6c-6.426,0-12.708,0.945-18.678,2.811
		c-1.101,0.335-2.284-0.269-2.627-1.375c-0.343-1.106,0.269-2.281,1.375-2.627c6.374-1.992,13.082-3.003,19.93-3.003h92.6
		c7.905,0,15.204,3.965,18.593,10.107c0.346,0.63,0.348,1.393,0,2.022C449.918,94.143,442.622,98.124,434.712,98.124z"/>
	<path style="fill:#232E38;" d="M352.556,147.983c-0.138,0-0.276-0.013-0.415-0.041c-1.777-0.358-3.459-0.776-5.005-1.247
		c-0.113-0.036-0.223-0.079-0.33-0.133l-0.266-0.061c-0.586-0.179-1.103-0.54-1.469-1.029c-0.399-0.653-0.54-1.165-0.54-1.677
		v-4.319c0-0.494,0.136-0.993,0.384-1.444c0.054-0.097,0.115-0.187,0.182-0.274c0.366-0.463,0.845-0.801,1.388-0.973l0.484-0.146
		c2.324-0.727,4.861-1.293,7.918-1.795c1.121-0.197,2.222,0.586,2.406,1.728c0.187,1.144-0.586,2.222-1.731,2.409
		c-2.696,0.44-4.936,0.932-6.84,1.498v2.314c1.318,0.387,2.742,0.735,4.242,1.037c1.134,0.228,1.871,1.334,1.646,2.468
		C354.407,147.296,353.534,147.983,352.556,147.983z"/>
	<path style="fill:#232E38;" d="M380.681,149.406h-10.616c-1.16,0-2.097-0.94-2.097-2.097s0.937-2.097,2.097-2.097h10.212v-7.15
		h-3.338c-1.157,0-2.097-0.94-2.097-2.099c0-1.157,0.94-2.097,2.097-2.097h3.743c1.001,0,1.979,0.41,2.685,1.121
		c0.699,0.701,1.106,1.677,1.106,2.67v7.951c0,1.001-0.389,1.951-1.101,2.67C382.657,149.001,381.679,149.406,380.681,149.406z"/>
	<path style="fill:#232E38;" d="M359.637,124.346c-0.148,0-0.3-0.018-0.453-0.051c-0.852-0.187-1.677-0.422-2.473-0.66l-0.699-0.236
		c-0.62-0.259-1.001-0.538-1.306-0.901c-0.415-0.515-0.635-1.132-0.635-1.764v-4.316c0-0.643,0.225-1.27,0.632-1.761
		c0.343-0.422,0.783-0.74,1.257-0.909c0.041-0.015,0.791-0.253,0.973-0.287c1.098-0.366,2.652-0.758,4.646-1.167
		c1.139-0.233,2.245,0.497,2.476,1.633c0.236,1.134-0.494,2.243-1.633,2.476c-1.687,0.346-3.018,0.673-4.155,1.021v2.309
		c0.507,0.146,1.155,0.325,1.815,0.471c1.132,0.248,1.848,1.37,1.597,2.499C361.468,123.68,360.6,124.346,359.637,124.346z"/>
	<path style="fill:#232E38;" d="M390.255,126.345h-6.211c-1.16,0-2.099-0.94-2.099-2.097s0.94-2.099,2.099-2.099h5.783v-7.306
		c-0.627-0.364-1.057-1.042-1.057-1.815c0-1.5,1.759-2.557,3.095-1.853c0.31,0.164,0.758,0.397,1.157,0.868
		c0.586,0.52,1.001,1.49,1.001,2.555v7.951c0,1.042-0.42,2.035-1.157,2.726C392.167,125.956,391.233,126.345,390.255,126.345z"/>
	<path style="fill:#232E38;" d="M344.751,173.959c-0.535,0-1.06-0.205-1.457-0.591c-0.566-0.545-0.778-1.357-0.553-2.109
		l17.162-57.211v-18.02c0-1.16,0.937-2.097,2.097-2.097h39.178c0.758,0,1.454,0.41,1.828,1.068c0.374,0.66,0.358,1.469-0.036,2.12
		l-40.128,66.148c-1.157,1.9-2.624,3.569-4.365,4.961c-1.741,1.39-3.689,2.458-5.801,3.172l-7.258,2.45
		C345.202,173.92,344.976,173.959,344.751,173.959z M364.099,98.124v16.228c0,0.205-0.031,0.407-0.087,0.602l-16.087,53.619
		l3.412-1.149c1.646-0.556,3.164-1.39,4.521-2.473c1.357-1.088,2.504-2.386,3.4-3.863l38.198-62.963
		C397.456,98.124,364.099,98.124,364.099,98.124z"/>
	<path style="fill:#232E38;" d="M355.227,39.101c-0.105,0-0.21-0.008-0.317-0.023c-2.888-0.443-5.501-1.016-7.777-1.713
		c-0.044-0.008-0.684-0.22-0.684-0.22c-0.502-0.151-0.993-0.481-1.352-0.937c-0.061-0.082-0.12-0.166-0.169-0.256
		c-0.261-0.453-0.397-0.963-0.397-1.467v-4.319c0-0.443,0.105-0.878,0.317-1.334c0.064-0.138,0.146-0.266,0.236-0.381
		c0.351-0.456,0.835-0.794,1.403-0.975c-0.005,0-0.005,0-0.005,0s0.663-0.212,0.788-0.243c1.326-0.41,3.008-0.827,4.864-1.208
		c1.139-0.228,2.245,0.497,2.475,1.633c0.236,1.134-0.499,2.243-1.633,2.476c-1.574,0.32-3.005,0.673-4.25,1.039v2.294
		c2.017,0.591,4.298,1.08,6.817,1.464c1.142,0.174,1.93,1.242,1.759,2.391C357.141,38.358,356.245,39.101,355.227,39.101z"/>
	<path style="fill:#232E38;" d="M380.681,40.076h-3.743c-1.157,0-2.097-0.94-2.097-2.097c0-1.16,0.94-2.099,2.097-2.099h3.338
		v-7.117h-10.212c-1.16,0-2.097-0.94-2.097-2.097s0.937-2.097,2.097-2.097h10.616c1.05,0,2.045,0.425,2.729,1.157
		c0.671,0.673,1.06,1.62,1.06,2.624v7.956c0,0.957-0.374,1.887-1.055,2.624C382.662,39.682,381.687,40.076,380.681,40.076z"/>
	<path style="fill:#232E38;" d="M362.008,61.718c-0.141,0-0.279-0.015-0.425-0.046c-2.01-0.412-3.569-0.801-4.902-1.229
		l-0.668-0.225c-0.369-0.067-0.901-0.407-1.321-0.922c-0.405-0.512-0.62-1.124-0.62-1.743v-4.319c0-0.653,0.233-1.283,0.65-1.774
		c0.266-0.333,0.653-0.64,1.083-0.835c0.207-0.082,0.991-0.323,1.178-0.351c0.515-0.182,1.347-0.42,2.202-0.607
		c1.137-0.241,2.248,0.466,2.499,1.597c0.251,1.129-0.466,2.25-1.597,2.499c-0.62,0.138-1.226,0.305-1.815,0.481v2.304
		c1.065,0.325,2.414,0.658,4.155,1.014c1.137,0.23,1.866,1.339,1.633,2.476C363.859,61.032,362.983,61.718,362.008,61.718z"/>
	<path style="fill:#232E38;" d="M390.882,63.037c-1.157,0-2.109-0.94-2.109-2.097c0-0.783,0.422-1.469,1.057-1.828v-7.296h-5.783
		c-1.16,0-2.099-0.94-2.099-2.097c0-1.157,0.94-2.097,2.099-2.097h6.211c0.963,0,1.892,0.381,2.621,1.083
		c0.74,0.707,1.144,1.672,1.144,2.719v7.949c0,1.044-0.422,2.043-1.162,2.729c-0.223,0.225-0.678,0.599-1.262,0.814
		C391.369,62.993,391.128,63.037,390.882,63.037z"/>
	<path style="fill:#232E38;" d="M401.235,80.035c-0.015,0-0.036,0.003-0.056,0H362c-1.16,0-2.097-0.94-2.097-2.099V59.913
		L342.741,2.703c-0.225-0.753-0.013-1.564,0.553-2.109c0.566-0.55,1.388-0.735,2.127-0.481l7.255,2.45
		c2.107,0.712,4.058,1.779,5.804,3.172c1.731,1.385,3.2,3.054,4.365,4.969l39.905,65.782c0.364,0.376,0.586,0.891,0.586,1.454
		C403.334,79.096,402.395,80.035,401.235,80.035z M364.099,75.839h33.354l-38.198-62.963c-0.906-1.49-2.048-2.79-3.397-3.868
		c-1.359-1.088-2.885-1.92-4.526-2.476l-3.41-1.149l16.087,53.622c0.056,0.197,0.087,0.397,0.087,0.602v16.233H364.099z"/>
	<path style="fill:#232E38;" d="M435.237,94.066c-1.16,0-2.097-0.94-2.097-2.097c0-1.16,0.937-2.099,2.097-2.099
		c1.59,0,2.888-1.295,2.888-2.89c0-1.592-1.298-2.888-2.888-2.888c-1.16,0-2.097-0.94-2.097-2.097c0-1.157,0.937-2.097,2.097-2.097
		c3.904,0,7.084,3.177,7.084,7.084S439.141,94.066,435.237,94.066z"/>
	<path style="fill:#232E38;" d="M332.762,89.077h-43.72c-1.16,0-2.097-0.94-2.097-2.097s0.937-2.097,2.097-2.097h43.72
		c1.16,0,2.097,0.94,2.097,2.097S333.925,89.077,332.762,89.077z"/>
	<path style="fill:#232E38;" d="M335.514,34.416h-33.682c-1.157,0-2.097-0.94-2.097-2.097c0-1.157,0.94-2.099,2.097-2.099h33.682
		c1.16,0,2.097,0.94,2.097,2.099S336.674,34.416,335.514,34.416z"/>
	<path style="fill:#232E38;" d="M335.514,143.738h-33.682c-1.157,0-2.097-0.94-2.097-2.097s0.94-2.097,2.097-2.097h33.682
		c1.16,0,2.097,0.94,2.097,2.097S336.674,143.738,335.514,143.738z"/>
	<path style="fill:#232E38;" d="M281.852,120.736h-81.014c-1.16,0-2.097-0.94-2.097-2.097c0-1.157,0.939-2.097,2.097-2.097h81.014
		c1.16,0,2.097,0.94,2.097,2.097C283.948,119.797,283.011,120.736,281.852,120.736z"/>
	<path style="fill:#232E38;" d="M281.852,57.433h-81.014c-1.16,0-2.097-0.94-2.097-2.097c0-1.16,0.939-2.099,2.097-2.099h81.014
		c1.16,0,2.097,0.94,2.097,2.099C283.948,56.491,283.011,57.433,281.852,57.433z"/>
</g>
<path style="fill:#FFFFFF;" d="M387.431,293.191c0,79.66-64.584,144.253-144.271,144.253c-79.66,0-144.228-64.591-144.228-144.253
	c0-79.672,64.568-144.246,144.228-144.246C322.848,148.945,387.431,213.521,387.431,293.191z"/>
<g>
	<path style="fill:#92DEEB;" d="M286.419,155.552l12.147,17.057l9.818,1.818l-5.985-8.694l12.82,8.694l-12.854,11.914l8.673,7.017
		l-10.222,2.954l12.001,14.29l12.616-16.266l12.851,12.762l0.773-3.487l-11.564-12.265l19.082,15.383l-6.712-13.972l-0.264-3.891
		l9.713,8.988l-2.348,4.529l8.492,4.306l6.331,11.159l-22.851-3.067l-10.755-7.104l-24.476,26.033l7.419,37.02l36.723,8.097
		l13.025,29.537l-11.886,64.604l15.665-7.332l11.584-16.663c7.209-17.157,11.195-36.004,11.195-55.782
		C387.431,228.589,344.966,173.92,286.419,155.552z"/>
	<path style="fill:#92DEEB;" d="M258.988,298.124l-82.844-29.238l-10.959,8.87l-13.76-7.368l-6.185-21.947l-15.37,0.397
		l11.689-23.217l12.36-0.596l8.402,9.971l2.673-11.42l52.037-34.957l-1.324-17.426l-26.565,9.976l2.691-14.264l28.367-4.442
		l-11.517-9.339c-29.985,7.355-56.276,24.082-75.61,46.915l-5.716,11l-7.15,38.272l38.602,38.784l-8.96,18.455l30.257,33.884
		l4.756,48.494l24.545,24.845l-1.411-28.887l42.685-40.904L258.988,298.124z"/>
	<path style="fill:#92DEEB;" d="M223.248,150.345l-5.266,2.417l14.272,4.493l9.211,12.746l8.52-7.613l9.006-4.27l-9.444-9.011
		c-2.117-0.087-4.242-0.159-6.385-0.159C236.402,148.945,229.761,149.449,223.248,150.345z"/>
</g>
<g>
	<path style="fill:#232E38;" d="M243.16,439.989c-80.932,0-146.772-65.853-146.772-146.798c0-80.94,65.841-146.79,146.772-146.79
		c80.957,0,146.816,65.851,146.816,146.79C389.976,374.135,324.115,439.989,243.16,439.989z M243.16,151.492
		c-78.124,0-141.683,63.57-141.683,141.701c0,78.136,63.56,141.706,141.683,141.706c78.147,0,141.724-63.57,141.724-141.706
		C384.884,215.06,321.306,151.492,243.16,151.492z"/>
	<path style="fill:#232E38;" d="M348.985,375.515c-0.553,0-1.103-0.177-1.554-0.53c-0.755-0.584-1.121-1.539-0.947-2.476
		l11.74-63.836l-12.186-27.638l-35.464-7.821c-0.986-0.218-1.754-0.998-1.948-1.987l-7.419-37.02
		c-0.164-0.806,0.074-1.644,0.64-2.243l24.476-26.033c0.855-0.906,2.227-1.062,3.259-0.379l10.268,6.781l17.185,2.307l-3.42-6.026
		l-4.467-2.268c0.02,0.125,0.028,0.251,0.028,0.384c0,1.408-1.139,2.545-2.547,2.545c-0.015,0-0.038,0-0.056,0
		c-0.568,0-1.132-0.187-1.597-0.561l-3.773-3.041l-0.435,1.974c-0.202,0.906-0.881,1.633-1.769,1.892
		c-0.896,0.264-1.853,0.018-2.509-0.635l-10.808-10.734l-10.852,13.99c-0.471,0.609-1.193,0.97-1.964,0.986
		c-0.804-0.015-1.503-0.317-1.999-0.906l-12.001-14.29c-0.553-0.66-0.735-1.556-0.484-2.378c0.253-0.824,0.901-1.464,1.731-1.705
		l5.532-1.6l-4.874-3.945c-0.579-0.466-0.919-1.157-0.945-1.897c-0.026-0.737,0.271-1.452,0.812-1.951l8.113-7.519
		c-0.105,0.01-0.156,0.028-0.325,0.018c-0.148,0.003-0.333-0.008-0.499-0.041l-9.818-1.82c-0.65-0.12-1.226-0.489-1.61-1.027
		L284.35,157.03c-0.635-0.893-0.627-2.089,0.015-2.972c0.64-0.883,1.779-1.257,2.826-0.932
		c61.484,19.284,102.792,75.576,102.792,140.068c0,19.681-3.832,38.776-11.392,56.768c-0.067,0.161-0.156,0.323-0.256,0.468
		l-11.584,16.666c-0.259,0.369-0.607,0.66-1.014,0.852l-15.665,7.329C349.72,375.436,349.354,375.515,348.985,375.515z
		 M313.294,268.6l35.1,7.741c0.794,0.174,1.452,0.714,1.779,1.459l13.025,29.537c0.21,0.468,0.269,0.986,0.177,1.485l-10.99,59.743
		l10.565-4.946l11.041-15.88c7.224-17.29,10.89-35.643,10.89-54.551c0-26.985-7.493-52.48-20.815-74.227
		c-0.051,0.105-0.108,0.207-0.174,0.305c-0.54,0.801-1.467,1.226-2.45,1.101l-22.848-3.067c-0.381-0.054-0.745-0.187-1.065-0.402
		l-8.965-5.921l-22.108,23.514L313.294,268.6z M305.281,197.672l7.455,8.876l10.68-13.773c0.389-0.504,0.952-0.84,1.572-0.95
		c-0.148-0.771,0.061-1.597,0.63-2.212c0.914-0.988,2.429-1.091,3.466-0.256l10.309,8.312l-1.836-3.814
		c-0.138-0.292-0.223-0.609-0.243-0.932l-0.264-3.891c-0.046-0.632,0.151-1.242,0.52-1.723
		c-7.606-6.761-15.985-12.733-25.042-17.782l4.114,2.79c0.643,0.435,1.05,1.142,1.111,1.915c0.056,0.776-0.241,1.533-0.806,2.061
		l-10.701,9.915l6.385,5.166c0.74,0.596,1.083,1.556,0.896,2.483c-0.187,0.929-0.878,1.679-1.787,1.943L305.281,197.672z
		 M350.406,201.272l1.457,0.737c-0.379-0.451-0.763-0.899-1.144-1.341L350.406,201.272z M344.789,197.14l0.975,2.022l0.389-0.76
		L344.789,197.14z M300.043,170.293l2.752,0.512l-2.496-3.625c-0.694-1.011-0.573-2.371,0.289-3.238
		c0.084-0.084,0.172-0.164,0.266-0.236c-2.545-1.126-5.125-2.179-7.757-3.164L300.043,170.293z"/>
	<path style="fill:#232E38;" d="M209.409,416.322c-0.668,0-1.324-0.261-1.812-0.755l-24.545-24.845
		c-0.412-0.415-0.668-0.96-0.722-1.541l-4.675-47.67l-29.706-33.262c-0.689-0.773-0.842-1.882-0.392-2.811l8.166-16.827
		l-37.325-37.501c-0.591-0.594-0.852-1.441-0.699-2.266l7.15-38.275c0.046-0.246,0.128-0.481,0.246-0.704l5.716-11
		c0.087-0.169,0.192-0.328,0.317-0.471c20.183-23.839,46.792-40.348,76.948-47.744c0.765-0.195,1.595-0.005,2.209,0.494
		l11.515,9.339c0.781,0.635,1.119,1.667,0.855,2.639c-0.261,0.97-1.07,1.7-2.063,1.853L194,169.141l-1.518,8.051l22.328-8.384
		c0.753-0.276,1.59-0.189,2.266,0.238c0.676,0.433,1.108,1.155,1.17,1.953l1.324,17.426c0.069,0.916-0.356,1.797-1.121,2.309
		l-51.205,34.396l-2.447,10.445c-0.218,0.94-0.947,1.674-1.884,1.897c-0.95,0.243-1.92-0.097-2.542-0.835l-7.588-9.009l-9.618,0.466
		l-9.108,18.089l11.116-0.287c0.023,0,0.046,0,0.067,0c1.137,0,2.14,0.755,2.452,1.856l5.891,20.902l11.315,6.06l9.646-7.808
		c0.691-0.558,1.613-0.714,2.452-0.422l82.842,29.24c1.175,0.415,1.882,1.626,1.654,2.854l-8.302,45.862
		c-0.092,0.53-0.353,1.014-0.742,1.382l-41.846,40.1l1.352,27.73c0.054,1.052-0.553,2.03-1.518,2.455
		C210.105,416.253,209.754,416.322,209.409,416.322z M187.308,387.785l19.233,19.466l-1.085-22.239
		c-0.038-0.735,0.248-1.452,0.781-1.961l42.086-40.33l7.772-42.918l-79.457-28.042l-9.851,7.974
		c-0.801,0.648-1.907,0.748-2.806,0.266l-13.76-7.368c-0.609-0.325-1.062-0.888-1.249-1.554l-5.647-20.04l-13.391,0.346
		c-1.037,0.013-1.738-0.428-2.217-1.183c-0.479-0.755-0.527-1.708-0.123-2.506l11.692-23.217c0.412-0.822,1.234-1.354,2.15-1.398
		l12.357-0.596c0.799-0.054,1.559,0.294,2.071,0.901l5.133,6.09l1.518-6.479c0.148-0.63,0.525-1.175,1.06-1.536l50.803-34.132
		l-0.955-12.559l-23.388,8.783c-0.858,0.32-1.836,0.156-2.534-0.435c-0.704-0.591-1.037-1.516-0.863-2.419l2.693-14.264
		c0.2-1.06,1.044-1.879,2.107-2.045l22.71-3.556l-6.08-4.931c-28.511,7.258-53.676,22.989-72.865,45.563l-5.409,10.412
		l-6.835,36.588l37.655,37.834c0.763,0.768,0.96,1.935,0.486,2.908l-8.212,16.919l29.12,32.612c0.361,0.402,0.584,0.909,0.635,1.446
		L187.308,387.785z"/>
	<path style="fill:#232E38;" d="M241.463,172.543c-0.092,0-0.182-0.003-0.274-0.015c-0.717-0.074-1.367-0.453-1.787-1.039
		l-8.719-12.058l-13.463-4.242c-1.006-0.317-1.713-1.219-1.779-2.271c-0.064-1.05,0.525-2.033,1.48-2.473l5.266-2.417
		c0.228-0.105,0.468-0.177,0.714-0.207c9.139-1.26,18.089-1.618,26.749-1.265c0.617,0.026,1.206,0.274,1.654,0.701l9.444,9.011
		c0.604,0.579,0.891,1.418,0.755,2.248c-0.133,0.827-0.666,1.539-1.423,1.894l-8.673,4.116l-8.246,7.368
		C242.691,172.318,242.085,172.543,241.463,172.543z M225.865,152.575l7.153,2.253c0.525,0.164,0.98,0.492,1.3,0.937l7.557,10.455
		l6.413-5.732c0.182-0.161,0.387-0.3,0.604-0.402l5.658-2.685l-6.067-5.791C241.143,151.318,233.591,151.625,225.865,152.575z"/>
</g>
<path style="fill:#FFFFFF;" d="M48.551,159.608c-0.059-0.955-0.095-1.894-0.095-2.854c0-25.7,20.849-46.548,46.541-46.548
	c24.417,0,44.424,18.801,46.377,42.708c2.417-0.742,4.961-1.147,7.613-1.142c6.835-0.005,13.03,2.662,17.654,7.004
	c5.115-7.432,13.699-12.319,23.411-12.319c15.091,0.005,27.425,11.768,28.349,26.629c1.352-0.387,2.767-0.602,4.229-0.602
	c8.52,0,15.396,6.894,15.406,15.406c0,8.502-6.904,15.401-15.406,15.396H51.224c-12.111,0-21.924-9.812-21.924-21.924
	C29.3,170.162,37.71,160.918,48.551,159.608z"/>
<path style="fill:#232E38;" d="M222.644,205.833c0,0-0.01,0-0.013,0H51.224c-13.494,0-24.471-10.977-24.471-24.471
	c0-11.566,8.087-21.45,19.164-23.887c-0.005-0.241-0.005-0.481-0.005-0.722c0-27.072,22.019-49.093,49.085-49.093
	c24.364,0,45.148,18.255,48.581,42.081c7.995-1.554,16.32,0.474,22.659,5.35c5.855-7.048,14.564-11.18,23.816-11.18
	c15.337,0.005,28.247,11.274,30.577,26.14c10.604-1.196,19.945,7.27,19.955,17.836C240.585,197.785,232.536,205.833,222.644,205.833
	z M94.997,112.749c-24.259,0-43.996,19.74-43.996,44.001c0,0.906,0.036,1.8,0.092,2.701c0.082,1.347-0.899,2.522-2.24,2.683
	c-9.695,1.172-17.009,9.439-17.009,19.228c0,10.685,8.694,19.379,19.379,19.379h171.42c7.084,0,12.851-5.763,12.851-12.851
	c-0.01-7.089-5.78-12.859-12.861-12.859c-1.17,0-2.358,0.169-3.53,0.504c-0.737,0.21-1.541,0.077-2.168-0.369
	c-0.632-0.445-1.024-1.155-1.073-1.923c-0.847-13.588-12.183-24.236-25.807-24.243c-8.515,0-16.481,4.193-21.315,11.213
	c-0.422,0.612-1.088,1.011-1.825,1.088c-0.737,0.092-1.475-0.166-2.017-0.676c-4.337-4.068-9.976-6.313-15.887-6.313h-0.003
	c-2.376,0-4.667,0.348-6.884,1.029c-0.74,0.228-1.539,0.108-2.176-0.323c-0.64-0.433-1.047-1.132-1.111-1.902
	C136.986,130.482,117.73,112.749,94.997,112.749z"/>
<g>
</g>
<g>
</g>
<g>
</g>
<g>
</g>
<g>
</g>
<g>
</g>
<g>
</g>
<g>
</g>
<g>
</g>
<g>
</g>
<g>
</g>
<g>
</g>
<g>
</g>
<g>
</g>
<g>
</g>
</svg>
