<?xml version="1.0" encoding="iso-8859-1"?>
<!-- Generator: Adobe Illustrator 19.0.0, SVG Export Plug-In . SVG Version: 6.00 Build 0)  -->
<svg version="1.1" id="Layer_1" xmlns="http://www.w3.org/2000/svg" xmlns:xlink="http://www.w3.org/1999/xlink" x="0px" y="0px"
	 viewBox="0 0 512 512" style="enable-background:new 0 0 512 512;" xml:space="preserve">
<path style="fill:#FF7059;" d="M146.103,47.328c-6.294-2.91-14.126-4.656-21.509-4.656c-27.174,0-49.242,22.045-49.242,49.265
	c0,4.709,0.659,9.445,1.869,13.773c-0.236-0.009-0.56-0.009-0.79-0.009c-27.25,0-49.314,22.045-49.314,49.263
	c0,13.09,5.105,24.999,13.464,33.818c-18,7.327-30.669,24.999-30.669,45.655c0,18.536,10.228,34.671,25.405,43.09
	c-7.168,8.547-11.455,19.519-11.455,31.529c0,27.208,22.069,49.271,49.241,49.271c1.014,0,2-0.036,2.978-0.101
	c0.005,0,0.005,0,0.005,0c-1.855,5.21-2.983,11.056-2.983,16.891c0,27.226,22.064,49.309,49.323,49.309
	c8.34,0,16.418-2.227,23.269-5.9c0,0.01,0,0.019,0.003,0.029c2.427,24.9,22.859,44.327,49.077,44.327
	c8.764,0,14.418-2.773,19.454-2.773c11.436,0,17.347,9.564,17.347,19.656v26.255h12.45V55.264c0-27.218-22.045-49.282-49.249-49.282
	C170.231,5.982,149.921,23.9,146.103,47.328z"/>
<g>
	<path style="fill:#E64732;" d="M122.427,430.401c-30.481,0-55.31-24.8-55.31-55.282c0-6.455,1.145-12.836,3.359-18.927
		c1.104-3.11,4.536-4.71,7.641-3.599c3.104,1.145,4.741,4.572,3.577,7.671c-1.708,4.782-2.604,9.781-2.604,14.855
		c0,23.89,19.437,43.327,43.337,43.327c7.141,0,14.218-1.782,20.485-5.154c2.91-1.565,6.533-0.492,8.086,2.435
		c1.56,2.881,0.486,6.528-2.437,8.091C140.586,428.119,131.546,430.401,122.427,430.401z"/>
	<path style="fill:#E64732;" d="M73.102,364.309c-30.464,0-55.223-24.783-55.223-55.253c0-12.873,4.555-25.446,12.8-35.347
		c2.156-2.534,5.891-2.9,8.428-0.763c2.541,2.099,2.895,5.873,0.795,8.41c-6.485,7.764-10.054,17.618-10.054,27.699
		c0,23.89,19.381,43.29,43.254,43.29c0.877,0,1.737-0.027,2.533-0.082c22.917-1.336,40.805-20.308,40.805-43.208
		c0-3.292,2.656-5.982,5.987-5.982c3.272,0,5.985,2.69,5.985,5.982c0,29.218-22.851,53.437-51.963,55.153
		C75.435,364.273,74.304,364.309,73.102,364.309z"/>
	<path style="fill:#E64732;" d="M195.604,315.037c-3.272,0-5.977-2.681-5.977-5.982c0-16.874-13.71-30.611-30.609-30.611
		s-30.606,13.737-30.606,30.611c0,3.301-2.714,5.982-5.985,5.982c-3.331,0-5.987-2.681-5.987-5.982
		c0-23.482,19.096-42.573,42.578-42.573s42.568,19.092,42.568,42.573C201.585,312.356,198.935,315.037,195.604,315.037z"/>
	<path style="fill:#E64732;" d="M59.159,289.691c-30.473,0-55.231-24.791-55.231-55.255c0-30.473,24.759-55.264,55.231-55.264
		c30.469,0,55.282,24.791,55.282,55.264c0,3.29-2.664,5.982-5.987,5.982c-3.326,0-5.985-2.691-5.985-5.982
		c0-23.892-19.432-43.319-43.308-43.319c-23.837,0-43.259,19.427-43.259,43.319c0,23.856,19.422,43.29,43.259,43.29
		c3.323,0,5.987,2.681,5.987,5.982C65.148,287.008,62.48,289.691,59.159,289.691z"/>
	<path style="fill:#E64732;" d="M40.59,194.773c-1.568,0-3.14-0.618-4.328-1.853c-9.745-10.3-15.126-23.764-15.126-37.955
		c0-30.473,24.818-55.245,55.294-55.245c0.41,0,0.877,0,1.241,0.027c26.296,0.435,48.759,17.891,51.965,40.6
		c2.244,15.672,12.554,31.473,30.7,31.473c3.272,0,5.985,2.681,5.985,5.973c0,3.301-2.714,5.982-5.985,5.982
		c-21.905,0-38.987-16.763-42.518-41.737c-2.673-18.599-22.75-30.046-40.637-30.336l-0.749-0.019
		c-23.895,0-43.332,19.4-43.332,43.281c0,11.1,4.236,21.654,11.855,29.718c2.246,2.391,2.15,6.173-0.254,8.436
		C43.553,194.237,42.072,194.773,40.59,194.773z"/>
	<path style="fill:#E64732;" d="M77.318,111.7c-2.628,0-4.978-1.7-5.769-4.309c-1.468-5.018-2.178-10.209-2.178-15.454
		c0-30.473,24.747-55.247,55.223-55.247c8.458,0,16.555,1.847,24.076,5.528c2.973,1.446,4.236,5.018,2.782,7.991
		c-1.454,2.973-5.009,4.209-8.001,2.755c-5.895-2.881-12.24-4.326-18.859-4.326c-23.873,0-43.259,19.417-43.259,43.3
		c0,4.091,0.577,8.163,1.7,12.09c0.935,3.181-0.899,6.49-4.055,7.427C78.431,111.601,77.871,111.7,77.318,111.7z"/>
	<path style="fill:#E64732;" d="M244.027,512h-12.45c-3.273,0-5.987-2.681-5.987-5.982v-26.255c0-6.299-2.973-13.672-11.36-13.672
		c-1.463,0-3.432,0.445-5.731,0.954c-3.587,0.8-8.064,1.801-13.723,1.801c-31,0-55.291-24.272-55.291-55.264
		c0-30.473,24.818-55.264,55.291-55.264c3.277,0,5.944,2.69,5.944,5.99c0,3.292-2.668,5.973-5.944,5.973
		c-23.887,0-43.319,19.437-43.319,43.3c0,24.299,19.019,43.319,43.319,43.319c4.304,0,7.764-0.792,11.122-1.509
		c2.823-0.647,5.536-1.254,8.332-1.254c15.322,0,23.332,12.89,23.332,25.627v20.273h0.478V55.264c0-23.863-19.432-43.3-43.264-43.3
		c-23.887,0-43.319,19.437-43.319,43.3c0,23.873,19.432,43.283,43.319,43.283c3.277,0,5.944,2.691,5.944,5.982
		c0,3.301-2.668,5.99-5.944,5.99c-30.473,0-55.291-24.783-55.291-55.255C139.485,24.791,164.303,0,194.776,0
		c30.423,0,55.236,24.791,55.236,55.264v450.755C250.012,509.319,247.353,512,244.027,512z"/>
</g>
<path style="fill:#FF7059;" d="M365.891,47.328c6.299-2.91,14.131-4.656,21.513-4.656c27.172,0,49.241,22.045,49.241,49.265
	c0,4.709-0.659,9.445-1.877,13.773c0.246-0.009,0.568-0.009,0.8-0.009c27.25,0,49.314,22.045,49.314,49.263
	c0,13.09-5.105,24.999-13.464,33.818c18,7.327,30.669,24.999,30.669,45.655c0,18.536-10.228,34.671-25.405,43.09
	c7.168,8.547,11.455,19.519,11.455,31.529c0,27.208-22.069,49.271-49.244,49.271c-1.01,0-2-0.036-2.973-0.101c0,0-0.005,0-0.01,0
	c1.86,5.21,2.983,11.056,2.983,16.891c0,27.226-22.06,49.309-49.318,49.309c-8.282,0-16.423-2.227-23.269-5.9
	c0,0.01-0.005,0.019-0.005,0.029c-2.427,24.9-22.859,44.327-49.077,44.327c-8.765,0-14.418-2.773-19.454-2.773
	c-11.436,0-17.345,9.564-17.345,19.656v26.255h-12.442V55.264c0-27.218,22.031-49.282,49.242-49.282
	C341.768,5.982,362.075,23.9,365.891,47.328z"/>
<g>
	<path style="fill:#E64732;" d="M389.573,430.401c-9.115,0-18.156-2.282-26.141-6.581c-2.924-1.563-3.995-5.2-2.437-8.091
		c1.55-2.918,5.178-4,8.086-2.435c6.274,3.372,13.355,5.154,20.492,5.154c23.9,0,43.336-19.437,43.336-43.327
		c0-5.074-0.894-10.073-2.603-14.855c-1.164-3.099,0.471-6.526,3.577-7.671c3.094-1.109,6.542,0.481,7.644,3.599
		c2.196,6.089,3.347,12.472,3.347,18.927C444.872,405.6,420.054,430.401,389.573,430.401z"/>
	<path style="fill:#E64732;" d="M438.891,364.309c-1.196,0-2.328-0.036-3.429-0.108c-29.027-1.708-51.876-25.926-51.876-55.146
		c0-3.292,2.714-5.982,5.987-5.982c3.331,0,5.985,2.69,5.985,5.982c0,22.9,17.886,41.871,40.673,43.201
		c0.927,0.063,1.787,0.09,2.661,0.09c23.876,0,43.259-19.4,43.259-43.29c0-10.081-3.569-19.937-10.056-27.699
		c-2.099-2.536-1.744-6.31,0.797-8.41c2.531-2.137,6.272-1.772,8.427,0.763c8.245,9.9,12.8,22.473,12.8,35.347
		C494.117,339.526,469.358,364.309,438.891,364.309z"/>
	<path style="fill:#E64732;" d="M389.568,315.037c-3.268,0-5.987-2.681-5.987-5.982c0-16.874-13.708-30.611-30.601-30.611
		c-16.899,0-30.609,13.737-30.609,30.611c0,3.301-2.705,5.982-5.978,5.982c-3.331,0-5.982-2.681-5.982-5.982
		c0-23.482,19.087-42.573,42.568-42.573s42.573,19.092,42.573,42.573C395.555,312.356,392.899,315.037,389.568,315.037z"/>
	<path style="fill:#E64732;" d="M452.841,289.691c-3.323,0-5.987-2.683-5.987-5.984c0-3.301,2.664-5.982,5.987-5.982
		c23.835,0,43.259-19.436,43.259-43.29c0-23.892-19.424-43.319-43.259-43.319c-23.883,0-43.315,19.427-43.315,43.319
		c0,3.29-2.664,5.982-5.985,5.982c-3.318,0-5.987-2.691-5.987-5.982c0-30.473,24.818-55.264,55.287-55.264
		c30.471,0,55.231,24.791,55.231,55.264C508.072,264.9,483.312,289.691,452.841,289.691z"/>
	<path style="fill:#E64732;" d="M471.408,194.773c-1.485,0-2.963-0.536-4.108-1.654c-2.408-2.265-2.5-6.045-0.254-8.436
		c7.619-8.064,11.855-18.618,11.855-29.718c0-23.881-19.437-43.281-43.332-43.281c-0.082,0.009-0.66,0.009-0.754,0.019
		c-17.886,0.29-37.958,11.737-40.632,30.336c-3.536,24.972-20.623,41.737-42.523,41.737c-3.277,0-5.985-2.681-5.985-5.982
		c0-3.29,2.708-5.973,5.985-5.973c18.147,0,28.45-15.8,30.705-31.473c3.205-22.709,25.668-40.165,52.214-40.619
		c0.123-0.009,0.582-0.009,0.992-0.009c30.476,0,55.294,24.772,55.294,55.245c0,14.191-5.381,27.655-15.14,37.955
		C474.55,194.154,472.976,194.773,471.408,194.773z"/>
	<path style="fill:#E64732;" d="M434.675,111.7c-0.558,0-1.113-0.101-1.659-0.246c-3.161-0.935-4.995-4.244-4.06-7.427
		c1.128-3.937,1.705-8.009,1.705-12.09c0-23.883-19.389-43.3-43.259-43.3c-6.618,0-12.964,1.446-18.869,4.326
		c-2.978,1.446-6.542,0.218-7.996-2.755c-1.456-2.973-0.191-6.545,2.785-7.991c7.528-3.681,15.623-5.528,24.078-5.528
		c30.469,0,55.221,24.772,55.221,55.247c0,5.228-0.713,10.409-2.181,15.454C439.654,110,437.307,111.7,434.675,111.7z"/>
	<path style="fill:#E64732;" d="M280.423,512h-12.442c-3.326,0-5.987-2.681-5.987-5.982V55.264C261.995,24.791,286.804,0,317.222,0
		c30.471,0,55.289,24.791,55.289,55.264s-24.818,55.255-55.289,55.255c-3.279,0-5.949-2.691-5.949-5.99
		c0-3.29,2.671-5.982,5.949-5.982c23.881,0,43.319-19.41,43.319-43.283c0-23.863-19.437-43.3-43.319-43.3
		c-23.828,0-43.255,19.437-43.255,43.3v444.773h0.468v-20.273c0-12.737,8.013-25.627,23.332-25.627c2.796,0,5.506,0.608,8.332,1.254
		c3.359,0.717,6.818,1.509,11.124,1.509c24.3,0,43.319-19.019,43.319-43.319c0-23.863-19.437-43.3-43.319-43.3
		c-3.279,0-5.949-2.681-5.949-5.973c0-3.301,2.671-5.99,5.949-5.99c30.471,0,55.289,24.789,55.289,55.264
		c0,30.991-24.289,55.264-55.289,55.264c-5.659,0-10.136-1-13.723-1.801c-2.301-0.509-4.268-0.954-5.731-0.954
		c-8.387,0-11.36,7.371-11.36,13.672v26.255C286.407,509.319,283.695,512,280.423,512z"/>
</g>
<g>
</g>
<g>
</g>
<g>
</g>
<g>
</g>
<g>
</g>
<g>
</g>
<g>
</g>
<g>
</g>
<g>
</g>
<g>
</g>
<g>
</g>
<g>
</g>
<g>
</g>
<g>
</g>
<g>
</g>
</svg>
