<?xml version="1.0" encoding="iso-8859-1"?>
<!-- Generator: Adobe Illustrator 19.0.0, SVG Export Plug-In . SVG Version: 6.00 Build 0)  -->
<svg version="1.1" id="Layer_1" xmlns="http://www.w3.org/2000/svg" xmlns:xlink="http://www.w3.org/1999/xlink" x="0px" y="0px"
	 viewBox="0 0 371.161 371.161" style="enable-background:new 0 0 371.161 371.161;" xml:space="preserve">
<circle style="fill:#F2F2F2;" cx="184.475" cy="192.699" r="178.462"/>
<path style="fill:#FF6D3B;" d="M300.054,204.647v-23.889l-17.546-6.001c-0.5-2.651-1.078-5.27-1.758-7.835l-46.053,12.332
	c1.145,4.29,1.765,8.795,1.765,13.447c0,28.709-23.274,51.983-51.98,51.983c-4.66,0-9.172-0.62-13.465-1.772l-12.342,46.048
	c2.585,0.694,5.204,1.278,7.87,1.758l5.984,17.546h23.906l5.982-17.546c5.354-0.96,10.538-2.368,15.54-4.155l13.952,12.209
	l20.709-11.978l-3.596-18.156l-0.098,0.047c2.07-1.755,4.074-3.614,5.999-5.531c1.92-1.922,3.776-3.929,5.534-5.999l-0.052,0.081
	l18.176,3.596l11.963-20.694l-12.197-13.952c1.792-5.002,3.183-10.191,4.16-15.54L300.054,204.647z"/>
<path style="fill:#FFFFFF;" d="M290.528,145.268l-11.948-20.694l-18.176,3.582l0.052,0.113c-1.758-2.087-3.614-4.094-5.534-6.009
	c-1.922-1.922-3.929-3.778-5.999-5.538l0.098,0.052l3.579-18.176l-20.692-11.946l-13.952,12.192c-2.518-0.896-5.086-1.703-7.705-2.4
	l-12.332,46.041c17.9,4.775,31.993,18.868,36.775,36.77l46.053-12.332c-0.697-2.617-1.509-5.186-2.405-7.705L290.528,145.268z"/>
<path style="fill:#FFD55C;" d="M184.482,140.719c4.65,0,9.152,0.62,13.44,1.767l12.332-46.041c-2.567-0.682-5.184-1.28-7.838-1.777
	l-5.982-17.529h-23.906l-5.984,17.529c-2.666,0.497-5.285,1.093-7.87,1.777l12.342,46.043
	C175.311,141.339,179.823,140.719,184.482,140.719z"/>
<g>
	<path style="fill:#3E4959;" d="M132.497,192.704c0-24.054,16.34-44.278,38.521-50.213l-12.342-46.043
		c-2.599,0.706-5.169,1.502-7.687,2.4l-13.95-12.192l-20.692,11.946l3.594,18.176l0.101-0.052c-2.09,1.76-4.094,3.616-6.016,5.538
		c-1.92,1.915-3.776,3.924-5.531,6.009l0.064-0.113l-18.193-3.582l-11.948,20.714l12.197,13.932c-1.792,5.019-3.2,10.188-4.16,15.54
		l-17.546,6.001v23.889l17.546,5.999c0.962,5.351,2.37,10.538,4.16,15.54l-12.197,13.952l11.963,20.694l18.176-3.577l-0.064-0.101
		c1.755,2.07,3.611,4.074,5.531,5.999c1.922,1.918,3.929,3.776,6.001,5.531l-3.678,18.11l20.709,11.978l13.932-12.209
		c2.518,0.911,5.088,1.703,7.687,2.4l12.342-46.048C148.834,236.982,132.497,216.756,132.497,192.704z"/>
	<path style="fill:#3E4959;" d="M365.147,79.729V69.711l-7.358-2.516c-0.209-1.11-0.453-2.208-0.738-3.286
		c-0.29-1.095-0.633-2.174-1.004-3.232l5.105-5.851l-5.009-8.677l-7.623,1.499l0.02,0.052c-0.736-0.874-1.511-1.713-2.316-2.521
		c-0.807-0.807-1.647-1.585-2.516-2.319l0.044,0.022l1.499-7.623l-8.677-5.009l-5.851,5.113c-1.058-0.374-2.134-0.716-3.23-1.009
		c-1.078-0.283-2.178-0.534-3.289-0.741l-2.511-7.353H311.67l-2.508,7.353c-1.12,0.207-2.215,0.458-3.301,0.741
		c-1.09,0.298-2.169,0.635-3.227,1.009l-5.849-5.113l-8.677,5.009l1.506,7.623l0.042-0.022c-0.874,0.736-1.716,1.511-2.523,2.319
		c-0.802,0.807-1.583,1.647-2.316,2.521l0.027-0.052l-7.628-1.499l-5.009,8.687l5.113,5.841c-0.751,2.107-1.342,4.273-1.745,6.516
		l-7.355,2.516v10.018l7.355,2.513c0.404,2.242,0.994,4.423,1.745,6.518l-5.113,5.849l5.014,8.677l7.623-1.499l-0.027-0.044
		c0.736,0.871,1.514,1.711,2.316,2.516c0.807,0.805,1.649,1.585,2.516,2.319l-1.541,7.596l8.684,5.024l5.841-5.12
		c1.058,0.377,2.134,0.714,3.227,1.004c1.083,0.293,2.181,0.534,3.301,0.738l2.508,7.355h10.023l2.511-7.355
		c2.242-0.404,4.421-0.992,6.516-1.743l5.851,5.12l8.682-5.024l-1.504-7.616l-0.044,0.02c0.871-0.736,1.708-1.514,2.516-2.319
		c0.805-0.805,1.583-1.644,2.316-2.516l-0.02,0.042l7.623,1.502l5.017-8.677l-5.113-5.849c0.748-2.097,1.332-4.276,1.743-6.518
		L365.147,79.729z M316.682,96.517c-1.954,0-3.845-0.258-5.647-0.743c-9.3-2.484-16.153-10.969-16.153-21.056
		s6.85-18.57,16.153-21.058c1.802-0.48,3.692-0.743,5.647-0.743c1.95,0,3.84,0.261,5.637,0.743
		c7.508,2.001,13.415,7.911,15.422,15.417c0.48,1.799,0.741,3.69,0.741,5.642C338.479,86.757,328.719,96.517,316.682,96.517z"/>
</g>
<path style="fill:#FF6D3B;" d="M266.759,31.175v-5.839l-4.29-1.47c-0.121-0.647-0.261-1.285-0.428-1.915
	c-0.17-0.638-0.369-1.265-0.586-1.883l2.976-3.412l-2.922-5.058l-4.443,0.874l0.01,0.03c-0.428-0.51-0.879-0.999-1.351-1.472
	c-0.468-0.47-0.96-0.923-1.467-1.351l0.025,0.012l0.874-4.446l-5.058-2.919l-3.412,2.981c-0.615-0.222-1.246-0.418-1.883-0.588
	c-0.63-0.165-1.27-0.313-1.918-0.433L241.423,0h-5.844l-1.462,4.286c-0.652,0.121-1.29,0.266-1.922,0.433
	c-0.638,0.172-1.265,0.367-1.881,0.588l-3.412-2.981l-5.058,2.919l0.876,4.446l0.025-0.012c-0.51,0.428-0.999,0.879-1.472,1.351
	c-0.468,0.47-0.923,0.962-1.351,1.472l0.017-0.03l-4.448-0.874l-2.922,5.063l2.981,3.407c-0.438,1.228-0.78,2.494-1.017,3.798
	l-4.288,1.47v5.839l4.288,1.467c0.236,1.305,0.578,2.577,1.017,3.801l-2.981,3.409l2.924,5.058l4.446-0.874l-0.017-0.025
	c0.428,0.51,0.881,0.997,1.351,1.467c0.47,0.47,0.962,0.923,1.47,1.354l-0.898,4.428l5.063,2.927l3.407-2.983
	c0.615,0.219,1.243,0.416,1.881,0.583c0.633,0.17,1.273,0.313,1.922,0.431l1.462,4.288h5.844l1.462-4.288
	c1.31-0.236,2.58-0.576,3.801-1.014l3.412,2.983l5.063-2.927l-0.879-4.441l-0.025,0.012c0.507-0.431,0.997-0.881,1.467-1.354
	c0.47-0.468,0.923-0.958,1.351-1.467l-0.01,0.025l4.443,0.874l2.924-5.058l-2.981-3.409c0.436-1.223,0.775-2.496,1.014-3.801
	L266.759,31.175z M238.503,40.965c-1.137,0-2.24-0.153-3.291-0.433c-5.42-1.45-9.415-6.395-9.415-12.273s3.995-10.826,9.415-12.276
	c1.051-0.281,2.154-0.433,3.291-0.433c1.137,0,2.238,0.153,3.289,0.433c4.374,1.169,7.82,4.61,8.987,8.985
	c0.281,1.051,0.433,2.151,0.433,3.291C251.212,35.274,245.524,40.965,238.503,40.965z"/>
<g>
</g>
<g>
</g>
<g>
</g>
<g>
</g>
<g>
</g>
<g>
</g>
<g>
</g>
<g>
</g>
<g>
</g>
<g>
</g>
<g>
</g>
<g>
</g>
<g>
</g>
<g>
</g>
<g>
</g>
</svg>
