<?xml version="1.0" encoding="iso-8859-1"?>
<!-- Generator: Adobe Illustrator 19.0.0, SVG Export Plug-In . SVG Version: 6.00 Build 0)  -->
<svg version="1.1" id="Layer_1" xmlns="http://www.w3.org/2000/svg" xmlns:xlink="http://www.w3.org/1999/xlink" x="0px" y="0px"
	 viewBox="0 0 512 512" style="enable-background:new 0 0 512 512;" xml:space="preserve">
<polygon style="fill:#2FB49E;" points="280.791,106.043 71.542,257.219 71.542,512 489.999,512 489.999,257.219 "/>
<path style="fill:#FF7059;" d="M64.576,0C41.057,0,22.001,19.057,22.001,42.58h85.153V0H64.576z"/>
<path style="fill:#E6EAEE;" d="M454.41,42.58v344.855H107.151V42.58C107.151,19.057,88.087,0,64.576,0h347.261
	C435.343,0,454.41,19.057,454.41,42.58z"/>
<rect x="149.043" y="95.027" style="fill:#FF7059;" width="126.131" height="126.131"/>
<g>
	<path style="fill:#F6F8FB;" d="M212.109,179.581c-11.863,0-21.496-9.638-21.496-21.499c0-11.853,9.633-21.499,21.496-21.499
		c11.86,0,21.494,9.649,21.494,21.499C233.605,169.943,223.972,179.581,212.109,179.581z M212.109,143.752
		c-7.91,0-14.321,6.433-14.321,14.328c0,7.905,6.41,14.339,14.321,14.339c7.908,0,14.344-6.433,14.344-14.339
		C226.452,150.188,220.019,143.752,212.109,143.752z"/>
	<path style="fill:#F6F8FB;" d="M212.109,197.499c-21.719,0-39.414-17.687-39.414-39.419c0-21.734,17.695-39.406,39.414-39.406
		c21.737,0,39.419,17.672,39.419,39.406c0,1.984-1.595,3.589-3.581,3.589c-1.976,0-3.576-1.605-3.576-3.589
		c0-17.782-14.467-32.248-32.261-32.248c-17.787,0-32.243,14.467-32.243,32.248c0,17.784,14.456,32.248,32.243,32.248
		c5.681,0,11.244-1.5,16.118-4.319c1.723-0.991,3.904-0.41,4.895,1.3c0.996,1.718,0.415,3.914-1.285,4.908
		C225.848,195.671,219.028,197.499,212.109,197.499z"/>
	<path style="fill:#F6F8FB;" d="M238.989,179.581c-3.356,0-6.5-1.306-8.876-3.668c-2.35-2.371-3.661-5.519-3.661-8.87v-8.96
		c0-1.981,1.595-3.576,3.581-3.576c1.976,0,3.571,1.595,3.571,3.576v8.96c0,1.434,0.566,2.78,1.577,3.794
		c1.019,1.024,2.365,1.582,3.809,1.582c1.444,0,2.79-0.556,3.799-1.582c1.019-1.014,1.582-2.36,1.582-3.794v-8.96
		c0-1.981,1.6-3.576,3.576-3.576c1.987,0,3.581,1.595,3.581,3.576v8.96c0,3.354-1.318,6.5-3.671,8.87
		C245.491,178.276,242.342,179.581,238.989,179.581z"/>
</g>
<g>
	<rect x="299.213" y="95.027" style="fill:#AAB5BD;" width="120.269" height="13.494"/>
	<rect x="299.213" y="132.562" style="fill:#AAB5BD;" width="120.269" height="13.494"/>
	<rect x="299.213" y="170.086" style="fill:#AAB5BD;" width="120.269" height="13.494"/>
	<rect x="299.213" y="207.642" style="fill:#AAB5BD;" width="120.269" height="13.504"/>
	<rect x="149.043" y="245.197" style="fill:#AAB5BD;" width="270.438" height="13.504"/>
	<rect x="149.043" y="282.726" style="fill:#AAB5BD;" width="135.209" height="13.501"/>
</g>
<g>
	<polygon style="fill:#4BD6C0;" points="489.999,257.219 489.999,512 280.791,384.609 	"/>
	<polygon style="fill:#4BD6C0;" points="280.791,384.609 71.542,512 71.542,257.219 	"/>
</g>
<polygon style="fill:#2FB49E;" points="489.999,512 71.542,512 280.791,384.609 "/>
<g>
</g>
<g>
</g>
<g>
</g>
<g>
</g>
<g>
</g>
<g>
</g>
<g>
</g>
<g>
</g>
<g>
</g>
<g>
</g>
<g>
</g>
<g>
</g>
<g>
</g>
<g>
</g>
<g>
</g>
</svg>
