<?xml version="1.0" encoding="iso-8859-1"?>
<!-- Generator: Adobe Illustrator 19.0.0, SVG Export Plug-In . SVG Version: 6.00 Build 0)  -->
<svg version="1.1" id="Layer_1" xmlns="http://www.w3.org/2000/svg" xmlns:xlink="http://www.w3.org/1999/xlink" x="0px" y="0px"
	 viewBox="0 0 512 512" style="enable-background:new 0 0 512 512;" xml:space="preserve">
<path style="fill:#F67656;" d="M256,445.746c-104.801,0-189.742-84.941-189.742-189.742S151.199,66.262,256,66.262V0.129
	C114.778,0.129,0,114.638,0,256.122c0,141.386,114.778,255.749,256,255.749c70.833,0,134.774-28.69,180.769-74.982l-46.659-46.664
	C355.784,424.531,308.37,445.746,256,445.746z"/>
<path style="fill:#84D7E8;" d="M445.742,256.122c-0.036,52.383-21.292,99.791-55.629,134.103l46.659,46.664
	C482.767,390.721,512,326.77,512,256.122H445.742z"/>
<path style="fill:#3F4A5A;" d="M445.742,256.004c0,0.044,0,0.084,0,0.118H512C512,114.638,397.432,0.129,256,0.129v66.132
	C360.794,66.264,445.742,151.205,445.742,256.004z"/>
<path style="fill:#EFEFEF;" d="M400.568,256.004c0,79.821-64.735,144.54-144.576,144.54c-79.826,0-144.556-64.719-144.556-144.54
	c0-79.826,64.732-144.538,144.556-144.538C335.834,111.469,400.568,176.18,400.568,256.004z"/>
<path style="fill:#84D7E8;" d="M350.625,256.004c0,52.265-42.394,94.625-94.615,94.625c-52.26,0-94.646-42.363-94.646-94.625
	c0-52.25,42.388-94.625,94.646-94.625C308.232,161.381,350.625,203.754,350.625,256.004z"/>
<path style="fill:#3F4A5A;" d="M300.718,256.004c0,24.704-20.042,44.741-44.708,44.741c-24.735,0-44.759-20.037-44.759-44.741
	c0-24.717,20.024-44.741,44.759-44.741C280.676,211.263,300.718,231.29,300.718,256.004z"/>
<path style="fill:#FFFFFF;" d="M246.771,224.38c0,12.367-10.051,22.359-22.362,22.359c-12.419,0-22.433-9.992-22.433-22.359
	c0-12.37,10.017-22.382,22.433-22.382C236.721,201.998,246.771,212.01,246.771,224.38z"/>
<g>
</g>
<g>
</g>
<g>
</g>
<g>
</g>
<g>
</g>
<g>
</g>
<g>
</g>
<g>
</g>
<g>
</g>
<g>
</g>
<g>
</g>
<g>
</g>
<g>
</g>
<g>
</g>
<g>
</g>
</svg>
