<?xml version="1.0" encoding="iso-8859-1"?>
<!-- Generator: Adobe Illustrator 19.0.0, SVG Export Plug-In . SVG Version: 6.00 Build 0)  -->
<svg version="1.1" id="Layer_1" xmlns="http://www.w3.org/2000/svg" xmlns:xlink="http://www.w3.org/1999/xlink" x="0px" y="0px"
	 viewBox="0 0 512.005 512.005" style="enable-background:new 0 0 512.005 512.005;" xml:space="preserve">
<circle style="fill:#21D8DE;" cx="256.742" cy="273.588" r="214.733"/>
<path style="fill:#F2F2F2;" d="M434.56,393.985c-0.051,0.074-0.128,0.177-0.205,0.279c-0.026,0.077-0.077,0.156-0.154,0.23
	c-0.282,0.435-0.589,0.899-0.922,1.334c-10.138,14.666-22.093,28.004-35.507,39.68h-0.026c-33.334,29.056-75.699,48-122.342,51.994
	c-6.144,0.538-12.365,0.819-18.662,0.819c-41.984,0-81.126-12.032-114.176-32.845c-25.267-15.872-46.976-36.864-63.667-61.517
	c13.261-43.809,42.294-80.758,80.461-104.289c0.018-0.01,0.033-0.023,0.051-0.033c0.187-0.115,0.384-0.22,0.571-0.335
	c2.342-1.431,4.703-2.831,7.112-4.16c2.616-1.446,5.276-2.834,7.956-4.157c24.653-12.106,52.352-18.893,81.664-18.893
	c29.389,0,57.216,6.835,81.92,19.021c0.102,0.054,0.205,0.077,0.307,0.131c1.92,0.973,3.84,1.971,5.732,3.021
	c1.357,0.717,2.691,1.459,4.019,2.227c1.961,1.124,3.894,2.294,5.814,3.482c1.078,0.666,2.145,1.344,3.208,2.033
	c0.963,0.625,1.915,1.265,2.87,1.907c1.559,1.052,3.105,2.125,4.634,3.226c0.909,0.655,1.828,1.3,2.726,1.974
	c0.182,0.138,0.353,0.287,0.535,0.425c2.778,2.094,5.514,4.239,8.166,6.487c0.922,0.794,1.869,1.587,2.79,2.406
	c0.922,0.817,1.846,1.638,2.765,2.483c1.818,1.661,3.61,3.354,5.35,5.094c0.873,0.87,1.743,1.741,2.614,2.634
	c3.328,3.43,6.502,6.966,9.523,10.65c0.947,1.126,1.869,2.253,2.765,3.405c2.586,3.277,5.069,6.63,7.424,10.061
	c1.021,1.485,2.022,2.995,2.995,4.508C422.17,361.601,429.517,377.294,434.56,393.985z"/>
<path style="fill:#242D3C;" d="M162.099,301.544c-0.64,0.358-0.794,0.666-0.358,0.998h0.026l0.026,0.028
	c0.102-0.028,0.128-0.054,0.128-0.077C162.586,302.056,162.662,301.748,162.099,301.544z M172.672,317.672c-0.026,0-0.026,0-0.026,0
	c0,0.128,0.026,0.156,0.051,0.156c0.179,0.509,0.538,0.64,1.152,0.305C174.413,317.518,172.928,317.62,172.672,317.672z
	 M162.099,301.544c-0.64,0.358-0.794,0.666-0.358,0.998h0.026l0.026,0.028c0.102-0.028,0.128-0.054,0.128-0.077
	C162.586,302.056,162.662,301.748,162.099,301.544z M172.672,317.672c-0.026,0-0.026,0-0.026,0c0,0.128,0.026,0.156,0.051,0.156
	c0.179,0.509,0.538,0.64,1.152,0.305C174.413,317.518,172.928,317.62,172.672,317.672z M281.344,472.833
	c-1.587-5.555-3.174-2.406-7.171-4.787c-3.226-1.946-5.683-5.786-9.674-6.323c-2.355-0.333-4.787,0.381-7.142-0.307
	c-0.947-0.307-3.584-1.894-4.634-0.589c-0.23,0-1.997,0.845-1.997,0.947c-0.256-0.154-0.026-3.044-0.794-3.738
	c-1.203-1.152-5.376-2.33-6.861-2.714c-3.456-0.922-4.301,3.2-5.222-1.69c-2.842-0.796-5.683-4.099-5.197-4.943
	c0.282-0.333-4.429-10.24-5.094-9.341c-0.051-3.302-10.368-7.45-13.005-5.862c-2.355,1.715-6.682-1.562-8.141-3.098
	c-1.638-1.792-1.587-3.686-4.352-4.813c-1.152-0.512-3.149-0.259-2.714-2.281c0.461-2.097-5.094-2.532-5.606-4.608
	c0.794,0.156,1.434-0.256,2.176-0.435c-2.15,0.717-4.787-0.845-6.912,0.899c-3.098,2.586-4.966-1.206-8.346-0.54
	c-4.224,0.796-1.536-0.691-3.994-2.301c0-0.026-0.051-0.054-0.154-0.102c-0.742-0.41-4.198-2.432-3.763-2.662
	c-0.947,0.077,0.256,2.125-1.05,2.586c-2.253,0.845-4.198,1.334-2.739,4.045c2.458,4.915-5.171,2.614-1.587-0.742
	c0.666-0.563,0.845-6.758,1.536-6.758c-0.973-0.23-7.834,4.221-8.653,5.171c-2.227-3.581-5.99,8.858-7.245,8.96
	c-0.666-3.072-3.584-4.301-6.093-5.222c-2.202-0.845-4.378,4.352-7.168,1.51c-5.018-5.092-2.842-13.284-0.282-19.098
	c1.075-2.688-9.242-3.505-10.547-2.404c-2.509,2.074,0.41-4.25,0.384-4.07c0.282-2.56,0.87-4.25,1.997-4.201
	c0.666-1.51,4.506-8.394,4.122-9.239c-1.562-3.61-8.09,2.79-8.73,4.403c-0.614,1.562-1.869,2.458-2.483,3.891
	c-0.589,1.411-1.818-0.333-2.867,0.259c-2.816,1.587-6.835,0.768-6.221-3.356c0.64-4.915-1.254-14.643,4.301-18.022
	c1.69-1.047,1.946-5.937,3.891-7.652c0.256-0.23,5.837-3.459,5.274-4.122c0.845,0.87,5.222-0.896,5.811,0.256
	c0.384,0.947,2.995,1.948,3.942,1.411c0-0.205,0.41-2.179,0.41-2.202c-0.077-0.026-1.818-0.256-1.69-0.819
	c0.154-0.742,5.402-0.23,5.581-0.23c2.458,0.179,4.326,2.253,6.17,1.024c2.842-1.946,1.101,10.803,2.227,11.955
	c0.64,0.717,0.205,2.227,1.382,2.125c1.664-0.179,2.15-16.589,6.4-19.996c3.072-2.483,6.426-4.71,9.83-6.554
	c1.101-0.563,3.942-1.946,4.531-2.995c-0.154-0.538-0.691-1.178-1.229-0.614c-0.179-0.973,1.536-0.384,1.818-1.434
	c0.333-1.05-0.87-1.411-0.742-1.766c0,0,0.589-1.203,0.742-1.664c0,0.028,0.026,0.054,0.026,0.054
	c1.715,0.282-0.384-1.587-0.461-1.869c2.227,1.178,1.306-2.429,3.482-2.611c-1.562,0.64-1.254,2.381-1.05,3.456
	c0.435,2.33,2.509-3.251,2.253-3.021c2.099-0.87,5.35-2.611,7.578-4.198c-0.538-0.205-1.075,0.205-1.715-0.259
	c2.304-0.817,4.864-0.538,7.066-1.661c-0.128-2.304,1.28-4.71,3.84-5.174c3.994-0.666,8.627-3.072,12.57-4.426
	c-0.051,0.102-0.077,0.205-0.102,0.279c-2.355,0.899-6.042,6.349-3.43,4.813c2.816-1.638,12.339-3.098,13.67-5.834
	c-0.051-0.156-0.64-1.997-0.64-1.997c-2.355,0-2.56,2.893-5.453,2.893c-5.248-0.051-2.074-3.277-3.174-4.736
	c-0.922,0.23-1.715-0.054-2.355-0.742c0.512-0.128,7.014-1.641,3.584-2.432c-5.555-1.152-9.242,5.018-13.85,4.89
	c3.43-2.099,8.064-6.556,12.237-7.094c4.403-0.612,10.522,1.562,14.413-1.203c3.43-2.406,5.837-0.614,7.782-4.531
	c0.589-1.05-2.534-2.406-3.328-2.588c0.358-0.381,1.05,0,1.28-0.64c-5.171-2.33-6.272-4.634-6.886-10.65
	c-2.662,1.92-11.546,6.067-6.81-0.666c-1.69-0.742-7.091-5.248-9.165-2.125c-0.973,1.382-2.483,3.738-4.045,4.454
	c-3.558,1.613-0.41,1.306-1.587,3.661c-2.022,3.917-6.835,3.356-9.114,6.784c-1.434,2.125-1.894,3.635-4.147,4.659
	c-1.946,0.845-2.662-1.459-1.715-3.277c0.691,0.742,1.331,0.87,1.894,0.307c0.154-0.819-1.05-0.435-1.434-0.768
	c0.717-1.206,1.536-2.304,2.534-3.302c-0.333-0.205-5.325-0.973-5.12-2.304c0.307-2.714-3.123-1.226-3.712-2.022
	c2.637-3.354,2.662-4.941,7.885-7.552c1.792-0.919,11.827-6.039,13.696-4.759c-0.256,1.124-1.485,0.896-2.15,1.51
	c1.434,0.358,5.632,0.819,7.04-0.179c-0.307-0.256-1.997-3.044-1.101-3.712c-0.154,0.131,2.867,0.054,3.098,0
	c1.613-0.407,3.379-0.586,4.301-2.227c0.794-1.457,6.093-3.354,7.347-2.634c6.938,3.942-9.395,8.115-9.523,7.654
	c0.307,1.149,4.71-0.796,5.811,2.253c0.256,0.714,5.274,2.355,5.76,1.638c0.307-0.333-1.408-2.176-1.485-2.611
	c5.248,2.532,4.966,1.226,4.096-2.304c-0.819-3.356,3.072,0.205,3.302,0.307c0.87,0.461,4.429-1.587,4.941-2.304
	c-1.28-0.973-3.507-0.947-4.608-2.176c-1.05-1.05,2.765-1.28,1.434-2.383c-1.587-1.331-4.147-0.973-3.277-3.533
	c-0.87-0.256-1.741-0.154-2.56,0.333c0.205,0.463,0.768,0.102,0.947,0.384c-0.845,0.512-1.818,0.614-2.816,0.563
	c0.307-0.461,1.178-0.461,1.203-1.306c-2.714-0.307-4.147,1.306-6.502,2.022c0.666-0.947,1.792-1.254,2.611-1.997
	c-2.611,0.333-5.069,1.308-7.117,2.995c0.333,0.282,0.64,0.589,0.819,0.947c-1.971,1.766-4.634,2.304-6.963,3.379
	c0.41-1.587,2.074-1.203,2.637-2.355c-0.64,0-1.254,0.102-1.843,0.307c1.229-0.742,3.405-2.921,3.994-3.533
	c-4.25-0.486-6.016,4.964-10.01,4.198c0.819-0.973,2.534-0.486,3.072-1.997c-1.459,0.205-7.04,3.971-7.987,1.997
	c0-0.128,10.24-4.198,11.315-5.683c-0.691-0.102-1.459,0.64-2.099-0.179c0.486-0.586,1.357-0.614,1.92-1.226
	c-3.354-0.054-13.389,4.042-12.621,6.4c-1.306,1.047-2.714,1.331-4.275,0.666c0.614-0.973,2.79-0.973,1.024-2.383
	c-3.251,1.206-6.4,2.509-9.574,3.868c-1.792,0.817-3.584,1.638-5.376,2.506c-5.35,2.637-10.598,5.53-15.642,8.653
	c-11.136,6.886-20.301,15.002-29.466,24.218c-4.89,4.943-23.45,26.601-23.398,31.13c0.051,3.328-1.894,6.272-3.149,9.293
	c-1.024,2.458-1.101,5.916-2.355,8.166c-2.688,4.813-1.434,10.342-2.662,15.872c1.51-1.126,4.659-26.419,7.398-25.498
	c0.538,0.205-1.69,10.496-2.253,11.799c-2.304,5.299,0.717,11.779-0.794,17.334c-0.154,0.538-0.922,3.354-0.947,3.917
	c-2.56,1.971,0.691,4.887,0.666,7.04c0,1.28,6.528,6.986,7.782,7.731c2.739,1.638,3.277-1.28,5.76-0.742
	c2.227,0.486,2.893,4.534,4.07,6.272c1.638,2.381,7.706,2.15,8.73,3.277c0.717,0.842,0.154,5.501,2.893,6.167
	c-0.026-0.305-0.051-1.994,0.333-2.225c0.87-0.512,2.637,2.586,2.022,3.146c-0.87,0.205-1.664-0.102-2.33-0.922
	c0,0.41-0.435,6.502,1.331,5.299c0.051-0.358,0.128-0.768,0.179-1.124c2.304,1.021,2.15,4.426,3.789,4.887
	c2.253,0.614,3.994,3.507,5.683,4.303c1.536,0.794,1.101-5.35,4.045-5.658c2.33-0.205,3.635,5.914,4.454,7.373
	c1.229,2.15-1.638,7.347-0.051,9.011c1.613,1.69-4.045,5.76-4.301,7.503c-0.179,1.306-3.046,2.56-2.944,3.044
	c0.205,1.459-0.64,3.379-1.152,4.739c-0.051,0.177-0.128,0.333-0.179,0.484c33.05,20.813,72.192,32.845,114.176,32.845
	c6.298,0,12.518-0.282,18.662-0.819c1.485-1.661,2.918-3.328,3.942-4.506C282.035,480.155,282.368,476.468,281.344,472.833z
	 M225.357,300.34c-1.024,0.919-2.15,1.101-3.302,1.434C222.874,300.545,224.128,300.75,225.357,300.34z M215.526,299.649
	c0.051-0.051,0.102-0.077,0.154-0.128c0.768-0.102,1.357,0.102,1.741,0.64c0,0.282-3.942,0.486-4.557,1.51
	C213.35,300.008,214.682,300.187,215.526,299.649z M200.602,296.219l0.026-0.026c0.358-0.384,0.614-0.282,0.819,0.23
	c-0.358,0.435-0.64,0.358-0.845-0.179V296.219z M196.326,306.152c0.026,0,0.051-0.026,0.077-0.026
	c0.051-0.054,0.102-0.077,0.179-0.077c0.128-0.051,0.205-0.077,0.256-0.077c-0.051,0.077-0.102,0.102-0.128,0.131
	c-4.915,4.554-1.024-0.077-2.483,1.408c0.026,0.077,0,0.128-0.102,0.154c-0.282-0.333,1.306-1.124,2.202-1.485
	C196.326,306.177,196.326,306.177,196.326,306.152z M194.97,300.212c-0.922,1.078-0.922,1.078-2.253,0.819
	C193.434,300.596,194.33,300.75,194.97,300.212z M218.061,281.96c-0.333,0.028-0.64,0.028-1.178,0.028
	C218.522,280.603,218.214,281.96,218.061,281.96z M221.824,279.502c-0.589,0.64-1.408,0.282-2.099,0.589
	C220.442,278.632,220.595,278.606,221.824,279.502z M200.858,281.192c0.435-0.381,0.947-0.586,1.536-0.538
	c0.512,0.717-3.098,1.152-1.562,0.538C200.73,281.192,201.062,280.833,200.858,281.192z M199.91,280.142
	c0.614,0.259,0.563,0.512-0.128,0.845C199.245,280.654,199.347,280.398,199.91,280.142z M173.005,326.299c0,0,0,0-0.051,0.026
	c-0.026,0-0.077,0.028-0.102,0.028c0,0-0.051,0.026-0.154,0.074c-0.102,0.026-0.179,0.054-0.23,0.077
	c-0.026,0.026-0.077,0.026-0.154,0.051c-0.051,0.028-0.077,0.054-0.128,0.054c-1.869,0.717-7.219,2.586-6.835,1.024
	c0,0.381,2.509-2.099,2.227-2.099c0.819-0.282,6.093-0.589,7.654-0.563C174.464,325.736,173.747,326.017,173.005,326.299z
	 M179.021,322.305c0.051,0,0.102,0,0.154,0.026h0.179c6.707,0.64-3.968,2.688-5.146,1.485
	C175.616,322.587,177.306,322.177,179.021,322.305z M178.227,280.526c1.818-1.178,3.738-2.022,6.093-2.56
	c-1.715,1.434-4.045,2.022-6.118,2.611L178.227,280.526z M178.611,316.852C178.56,316.571,178.739,317.134,178.611,316.852
	c-0.307,0.307-0.589,0.282-0.87,0C178.15,316.699,178.56,316.571,178.611,316.852z M173.568,319.438
	c-0.026,1.741-3.123,4.71-4.762,5.092c0.64-0.714,0.845-1.457,0.666-2.301c-0.461-0.333-1.229,0.41-1.792,0.666
	c-0.179,0.179-0.307,0.23-0.333,0.077c0.102,0,0.205-0.026,0.333-0.077c0.998-1.075,3.584-6.707,0.589-4.685
	c-1.306,0.973-9.702,9.907-10.189,9.423c-0.794-0.819,3.738-7.375,4.045-7.629c2.893-2.355,8.883-4.25,12.544-2.56
	C177.101,318.593,175.693,322.382,173.568,319.438z M169.984,286.209c0.051-0.026,0.102-0.077,0.205-0.128
	c0.051-0.026,0.102-0.051,0.102-0.051c0.794-0.463,2.765-1.615,3.046-1.308c0.896,1.075-4.301,2.432-4.582,2.458
	C169.088,286.542,169.574,286.414,169.984,286.209z M170.547,308.123c0,0.051-0.026,0.074-0.026,0.102
	c-0.026,0.074-0.026,0.074-0.026,0.074c-0.256,0.486-1.126,1.869-1.69,1.178c-0.486-0.509,1.434-2.199,1.715-1.408
	C170.522,308.072,170.547,308.097,170.547,308.123z M169.446,289.588c0,0.282-3.533,1.226-4.557,1.51
	C165.888,290.638,169.318,288.59,169.446,289.588z M163.456,295.681c-0.307,0.512-0.563,0.768-1.152,0.768
	C162.534,295.912,162.893,295.86,163.456,295.681z M160.41,306.228c0.077-0.077,0.128-0.102,0.179-0.156
	c0.64-0.714,1.741-2.586,1.178-3.43c0,0.307-2.586-0.435-1.28-0.919c0.563-0.179,3.968-2.051,4.531-1.459
	c0.947,0.998-4.275,6.502-5.325,6.963C159.795,306.664,160.102,306.433,160.41,306.228z M162.97,313.294
	c-0.154,0.026-0.205,0.054,0.128-0.051c0.026-0.028,0.077-0.028,0.128-0.054c0.051-0.026,0.102-0.026,0.154-0.051
	c0.026,0,0.077-0.028,0.102-0.028c3.686-1.226,5.043-3.274,7.296-0.407c0.845,1.047,0.691,3.812-1.306,3.172
	c0.512,0.179-5.555-0.407-5.018-1.101c-1.357,0.794-3.84,1.306-5.35,0.64C160.41,314.676,161.587,313.832,162.97,313.294z
	 M158.157,306.177c0.333,0.873,0.077,1.334-0.947,1.485C157.594,307.048,157.875,306.587,158.157,306.177z M104.883,387.227h-0.128
	C103.219,387.201,106.061,387.201,104.883,387.227z M172.698,317.825c0.179,0.509,0.538,0.64,1.152,0.305
	c0.563-0.612-0.922-0.509-1.178-0.461c-0.026,0-0.026,0-0.026,0C172.646,317.8,172.672,317.825,172.698,317.825z M162.099,301.544
	c-0.64,0.358-0.794,0.666-0.358,0.998h0.026l0.026,0.028c0.102-0.028,0.128-0.054,0.128-0.077
	C162.586,302.056,162.662,301.748,162.099,301.544z M172.672,317.672c-0.026,0-0.026,0-0.026,0c0,0.128,0.026,0.156,0.051,0.156
	c0.179,0.509,0.538,0.64,1.152,0.305C174.413,317.518,172.928,317.62,172.672,317.672z M162.099,301.544
	c-0.64,0.358-0.794,0.666-0.358,0.998h0.026l0.026,0.028c0.102-0.028,0.128-0.054,0.128-0.077
	C162.586,302.056,162.662,301.748,162.099,301.544z M126.413,402.664c0,0.026,0,0.026-0.026,0.026c0.077,0,0.154,0,0.205-0.051
	C126.541,402.638,126.464,402.638,126.413,402.664z M206.08,271.31c0,0-0.026,0-0.026,0.026h0.051v-0.026H206.08z M425.421,377.652
	c-0.742-1.866-10.65-16.381-9.469-17.178c0.919-0.612,12.416,19.072,17.715,32.077c-1.664-5.888-3.584-11.75-6.067-17.559
	c-4.122-9.628-9.062-18.921-14.72-27.725c-0.973-1.513-1.974-3.023-2.995-4.508c-2.355-3.43-4.841-6.781-7.424-10.061
	c-0.179-0.256-0.384-0.486-0.563-0.717c-0.717-0.896-1.436-1.789-2.202-2.688c-3.021-3.684-6.195-7.219-9.523-10.65
	c-0.87-0.896-1.741-1.764-2.614-2.634c-1.741-1.743-3.533-3.433-5.35-5.094c-0.919-0.845-1.843-1.664-2.765-2.483
	c-0.919-0.819-1.866-1.615-2.79-2.406c-2.842-2.381-5.734-4.685-8.701-6.912c-6.17-4.608-12.598-8.804-19.254-12.621
	c-1.331-0.768-2.662-1.51-4.019-2.227c-1.892-1.05-3.812-2.048-5.732-3.021c-0.102-0.054-0.205-0.077-0.307-0.131
	c-1.766-0.691-6.246-1.946-6.989-3.123c0.077,0.589,2.97,2.076,3.356,2.458c-1.948-0.512-7.142-2.737-7.219-3.072
	c0.102-0.23,0.538,0,0.486-0.381c-2.944-1.869-13.903-5.916-16.102-2.921c0.484-0.586,7.549,7.606,7.754,9.062
	c0.463,3.2,5.453,6.556,8.602,7.606c4.454,1.485,1.124-0.486,3.021-1.539c1.178-0.586,2.304,2.022,3.405,1.436
	c0-0.028,0-0.077,0.054-0.077c-0.282-0.563-0.614-1.152-0.922-1.69c0.486,0.796,7.962,8.346,8.986,6.579
	c-0.973-2.304-2.483-4.966-4.861-7.142c-2.076-1.974-5.379-2.15-7.654-4.122c-1.152-0.998-5.379-4.07-5.837-5.53
	c5.606,0.179,12.058,12.032,17.69,7.45c-0.794-0.538-1.562-1.124-2.304-1.741c1.05,0.307,5.734,1.792,4.147,3.786
	c-4.452-0.794,3.789,3.766,3.942,4.25c-0.817-0.051-1.382-0.691-2.125-0.768c0.307,1.562,4.739,3.149,5.046,5.814
	c-2.691,0.435-1.513-1.587-3.228,0.563c-0.563,0.691-2.967,0.461-4.275,0.563c-3.044,0.282-6.474-4.964-8.73-6.554
	c0.947,2.918,2.56,4.301,5.788,6.323c1.613,0.922-2.202,1.306-2.15,2.611c0,0,0.026,0.028,0.051,0.054
	c0-0.026-0.026-0.054-0.026-0.054c0.177,0.054,0.998,0.486,0.998,0.717c0,0.156-0.742-0.484-0.973-0.64
	c0.128,0.614-0.563,5.043-0.64,4.966c2.534,2.941-3.354,2.074-3.507,2.176c0.461,0.666,1.408,1.024,1.613,1.974
	c-1.715,0.128-3.098-0.156-4.787,0.484c2.432,0.717,15.744,6.861,12.828,11.494c-0.922,1.51-9.961-0.384-11.622-0.461
	c-3.459-0.233-0.233,3.328-0.156,3.738c0.563,2.688,2.637,3.84,2.458,6.938c-0.128,2.176,2.076,2.253,2.765,4.096
	c0.589,1.613,0.259,1.766,1.946,1.997c2.995,0.358,3.046-0.077,5.53,1.894c1.766,1.354,2.486-1.334,4.582-1.411
	c5.299-0.23,0.768-1.28,3.302-1.994c3.123-0.873-0.87-5.76-0.691-6.707c0.256-1.334-0.179-2.739,1.559-3.254
	c2.662-0.691-0.742-3.479-0.919-4.221c-0.512-2.179,7.373,1.866,6.451-3.686c4.534,1.408,9.19,5.555,13.414,7.91
	c2.458,1.485,4.915,2.893,6.733,5.248c2.176,2.793-3.072,1.641-3.405,2.46c-0.333,0.896,4.636,3.123,5.402,3.069
	c0.128-0.509-0.566-3.354-0.666-3.84c-0.233-1.971-3.1-3.914-2.895-5.501c0.922,0.102,1.743,0.461,2.432,1.021
	c-2.637-3.274-6.938-3.61-9.958-6.016c-1.894-1.51-4.147-2.716-5.939-4.25c-0.026-0.026-3.226-4.096-0.998-3.328
	c3.558,1.254,7.421,4.813,11.034,6.707c2.867,1.51,3.584,2.432,5.709,4.89c0.817,0.973,5.274,6.118,6.221,6.269
	c0,0,3.61,3.228,5.094,3.712c-0.666-1.485-1.254-3.377-1.997-4.531c-0.973-1.641-5.12-2.534-5.12-4.966
	c0.947,0.077,1.075-0.896,3.046-0.819c-0.973-0.026,0.947-1.306,1.149-1.38c-3.866-2.179-9.034-8.579-10.417-12.931
	c1.05,0.054,1.613,1.459,2.765,0.717c-0.361-0.717-0.463-1.51-0.361-2.304c0.333,0.335,3.942,3.459,3.228,4.073
	c-1.024,0-1.894-0.463-2.588-1.229c0.486,1.818,2.33,1.869,3.046,3.123c0.102-0.484-0.256-0.919,0.179-1.485
	c3.226,1.334,9.651,6.374,10.545,9.935c-1.408,0.128-4.096-2.819-5.018-2.099c-0.279,0.742-0.256,1.434,0.156,2.15
	c-0.41,0-0.796,0.077-1.178,0.307c0.512,0.41,0.794,0.947,0.87,1.587c-0.512,0.154-1.024,0.333-1.562,0.435
	c0.435,1.818,9.859,10.778,10.522,9.882c0.205-0.307-0.384-1.229-0.23-1.357c0.484-0.563,1.997,2.022,2.739,1.51
	c0.612-0.384-0.614-1.229,0.074-1.562c1.459-0.714,7.094,10.342,7.757,11.622c2.739,5.12,0.947,1.997-1.126,2.716
	c-0.333,0.512-0.538,1.075-0.586,1.715c-3.302-0.768-6.886-2.662-9.6-4.582c-4.224-3.072,1.408,8.371-1.075,6.938
	c-1.436-0.819-2.281-2.048-4.099-2.202c-2.56-0.256-3.302-3.021-5.683-3.814c-1.946-0.666-9.626-1.38-8.627-4.887
	c0.796-2.995-3.072-5.504-4.352-6.659c-0.666-0.586-9.19,0.512-10.545,0.947c-2.358,0.768-6.067,1.51-7.401,3.712
	c-2.253,4.07-7.475-1.306-9.574-0.461c-1.101,0.435-0.026,3.786-0.586,4.861c-0.845,1.587-2.944,1.715-3.456,3.61
	c-0.899,3.482,1.715,6.349,0.509,9.574c-0.947,2.534-5.888,3.635-5.965,5.734c0,1.124-0.205,2.355-1.252,2.941
	c-2.253,1.306,0.074,4.224-1.357,5.683c-7.526,7.68,2.458,15.232,0.717,23.68c-0.947,4.787-1.539,5.76,0.538,9.859
	c0.461,1.05,0.102,8.474,3.891,5.478c0.435,4.326,6.019,5.222,7.014,9.344c1.178,4.89,5.99,7.014,9.702,9.933
	c1.51,1.178,2.739,2.688,4.506,3.584c3.021,1.536,5.094-0.845,8.038-1.664c2.637-0.768,5.379-0.486,7.859,0.666
	c1.459,0.694,12.083-6.861,14.979-5.427c2.122,1.05,2.225,3.635,3.2,5.481c0.714,1.331,1.818,1.101,3.021,0.666h0.026
	c13.414-11.676,25.37-25.014,35.507-39.68c-2.406-5.837-5.018-11.622-7.526-17.436L425.421,377.652z M433.664,392.552
	c0.205,0.666,0.381,1.306,0.538,1.946c0.074-0.074,0.128-0.154,0.154-0.23C434.15,393.704,433.92,393.14,433.664,392.552z
	 M271.488,274.638c-0.41,0.177-0.973-0.899-0.512-0.819c-0.279-0.077,5.891,0.384,6.121,0.077c0.128-0.156-2.202-1.436-2.33-1.869
	c-0.64-1.894,0.256-0.461,0.307-2.506c-1.152,0.64-3.712-2.304-5.018-2.458c-2.179-0.307,0-2.281-1.92-2.509
	c-2.202-0.154-4.099-0.179-6.298-0.538c-5.453-0.87-10.982,0.845-16.538,0.156c-4.915-0.589-13.85-0.054-18.15,2.586
	c1.357,0.87-1.766,0.947-2.304,1.457c0.973,0.156,1.971,0.054,2.893,0.179c0.077,0,0.128,0.026,0.205,0.026
	c0.179,0.028,0.256,0.028,0.256,0.028c4.966,0.586,10.445-4.303,15.539-3.228c-1.203,1.948-8.166,0.694-7.834,3.046
	c0.179,0.973,5.606,0.179,6.605,0.845c2.278,1.587-0.333,2.918,0.179,4.403c1.485-0.717,2.739-0.381,3.738,1.001
	c-1.971-0.282-3.328-0.873-4.557,0.87c1.51,1.101,6.63-0.566,1.485,1.485c-4.25,1.661-0.333,7.066,1.382,9.114
	c0.794,1.024,8.653,4.915,9.779,3.226c1.536-2.432,3.356-5.325,3.356-7.706c2.327-0.845,5.527-0.717,7.626-2.099
	c3.482-2.278,8.141-1.92,11.213-4.736C275.379,274.536,272.691,274.971,271.488,274.638z M323.584,295.784
	c-3.174-1.536-5.353-5.274-8.832-4.787c0.256,0.796,2.79,6.477,4.861,5.222c0.361-0.23,5.788,2.893,6.195,4.096
	c-0.538,0.361-1.047,0.307-1.613,0.259c0.486,0.512,2.355,3.174,1.539,3.277c0.41-0.054,3.763,0.074,3.866,0.586
	c0.077,0.666-2.662,0.64-1.818,2.79c1.101-1.741,8.704-1.124,8.474-2.586C335.949,301.723,326.272,297.089,323.584,295.784z
	 M233.267,311.912c-2.022-0.307,0.486-3.226-3.021-1.971c0.23-0.102-3.584-1.152-3.584-0.973c-0.23-0.41,2.842-3.072,3.098-3.433
	c-1.869-0.461-2.125,0.361-2.995,1.024c-0.026,0.026-0.102,0.077-0.205,0.154c-0.794,0.717-3.379,3.174-5.12,4.992
	c0.077,0.026,0.128,0.054,0.205,0.102c-0.051,0-0.154,0-0.256-0.026c-0.947,0.998-1.613,1.792-1.562,1.971
	c0.154,0.589,6.835,0.156,7.987,0.819c-0.077,0.768-0.973,0.358-1.152,1.05c0.87,0,3.584-1.715,4.019-1.203
	c0.051,0.41-0.026,0.845-0.205,1.226c1.971,1.974,2.509-0.23,2.662-1.997c-0.051-0.026-0.077-0.074,0.026-0.154
	C233.216,312.705,233.216,312.014,233.267,311.912z M232.371,313.243c-0.23,0.435-1.229,0.714-0.614,0.051l0.026-0.026
	C232.013,313.038,233.037,312.628,232.371,313.243z M233.242,313.473h-0.026c-0.026,0-0.051,0.026-0.051,0.026
	c-0.026,0.054-0.026,0.102-0.026,0.154C233.216,313.652,233.37,313.601,233.242,313.473z M227.098,305.716
	c0.026,0,0.026,0.026,0.051,0.026c0-0.026,0-0.051,0-0.051L227.098,305.716z M221.184,311.681c-0.307,0.077-0.051,0.102,0.205,0.102
	c0.026-0.026,0.026-0.054,0.051-0.077C221.363,311.681,221.286,311.681,221.184,311.681z M140.954,382.824
	c2.637,0.205,4.122-3.328,7.014-2.15c-0.128,0.381-0.384,0.64-0.742,0.794c0.768,2.227,9.216,2.867,10.445,5.686
	c0.23,0.586-2.765,2.199-0.947,2.02c0.102-0.026,0.205-0.026,0.307-0.051c2.739-0.358,5.478-0.41,8.192-0.742
	C159.821,384.129,146.406,373.633,140.954,382.824z M176.768,391.553c0.205-0.384,0.614-0.102,0.794-0.41
	c-2.15-0.922-8.909-3.84-10.931-1.334c2.227,0.64,1.178,1.615,2.33,3.379c-0.794,0.307-6.451,0.282-5.274,0.819c0,0,0,0,0.026,0.026
	c0.026,0,0.026,0,0.026,0c2.406,1.152,5.402-0.64,7.245,1.974c2.304-1.308,4.122-3.254,7.398-1.869
	C181.376,395.368,176.922,391.707,176.768,391.553z M321.28,300.366c0,0,0-0.026-0.051-0.054v-0.026
	c-0.054-0.077-0.131-0.154-0.205-0.23c-0.028-0.026-0.054-0.026-0.054-0.026c-0.973-0.947-6.554-5.402-4.861-1.459
	c-0.668,0.259-1.334,0.461-1.997,0.666c2.506,0.771,1.843,3.405,2.941,4.508C319.181,305.768,323.866,303.515,321.28,300.366z
	 M285.184,279.707c-0.717,0.156-5.299-0.128-5.299,0.463c0,0.026,0,0.026,0,0.051c0.026,0.128,3.354,1.459,3.942,1.974
	c2.432,2.253,6.195,0.919,8.755-0.233C295.91,280.449,286.464,279.502,285.184,279.707z M365.875,326.913
	c-0.41,0.41-0.87,0.742-1.306,1.075c1.28,0.768,3.379,5.837,4.659,3.84C369.69,331.137,366.976,326.913,365.875,326.913z
	 M218.88,269.723c0.435,0.102,0.794,0.154,1.05,0.177c0.102,0.028,0.179,0.028,0.256,0.028c3.046,0.461,5.555,0.128,6.656-0.873
	C222.848,268.673,222.106,267.291,218.88,269.723z M290.662,266.574c-1.92-0.563-5.274-1.613-8.013-1.306
	c2.15,0.845,4.426,0.998,6.656,1.536c0.077,0.028,0.128,0.028,0.205,0.054c0.077,0.026,0.179,0.051,0.259,0.051
	c0.026,0.026,0.026,0.026,0.026,0.026h0.026C290.048,266.856,291.226,266.753,290.662,266.574z M281.856,265.345
	c0.233-0.028,0.463-0.028,0.668-0.054c0.026,0,0.026,0,0.074-0.026c0.028,0,0.028,0,0.054,0
	C282.394,265.089,282.138,265.115,281.856,265.345z M157.466,394.19c-1.28-0.694-2.611-1.152-4.07-0.335
	c0.461,0.589,4.634,2.486,4.941,1.152C158.259,394.523,157.978,394.241,157.466,394.19z M187.059,393.96
	c-7.322-3.405-1.869,5.453,0.307,0.131C187.238,394.036,187.136,393.985,187.059,393.96z M195.994,420.379
	c0.154-0.102,0.282-0.154,0.41-0.23C196.198,420.148,196.045,420.225,195.994,420.379z M198.784,417.896
	c-1.434,0.102-2.125,2.278-2.022,2.33h0.102C197.786,420.225,200.397,418.92,198.784,417.896z M214.323,268.545
	c-1.664-0.435-2.637-0.566-4.787,0.919c1.331-0.512,2.816-0.074,4.173-0.586C213.53,269.032,213.581,269.057,214.323,268.545z
	 M158.592,373.275c-1.51,1.92-0.666,1.974-0.077,4.201c0.102-0.128,0.154-0.23,0.179-0.307c0.026-0.028,0.026-0.028,0.026-0.054
	C159.155,376.27,159.078,375.092,158.592,373.275z M211.354,308.993c1.306,1.226,2.611,1.997,4.659,1.613
	C214.477,309.454,213.094,308.942,211.354,308.993z M362.931,323.201c-1.203,0.973,1.69,2.765,2.255,2.944
	C365.03,325.71,363.776,322.561,362.931,323.201z M394.24,340.251c0.307,1.152,1.459,0.819,2.074,1.357
	c0.028,0.026,0.054,0.051,0.077,0.051c0.307,0.333,0.694-0.051,1.101-0.333C396.467,340.532,395.29,340.788,394.24,340.251z
	 M215.808,269.032c0.307,0.384,0.845,0.102,1.152,0.563c0.026,0.054,0.051,0.054,0.051,0.054c0.666,0.794,1.843-1.382,1.894-1.51
	C217.882,268.417,216.678,268.084,215.808,269.032z M207.053,272.616c1.92,0.177,3.354-0.845,4.71-1.894
	C210.099,271.08,208.333,271.259,207.053,272.616z M211.277,316.724c-0.41-0.074-0.23-0.051-0.077-0.026
	c-0.41-0.154-2.099-0.896-2.099-1.05c-0.205,0.361,1.792,3.123,3.558,1.001C212.045,316.699,211.661,316.776,211.277,316.724z
	 M212.045,271.617c1.587,0.156,3.021-0.305,4.352-1.075C214.835,270.414,213.325,270.593,212.045,271.617z M357.35,331.368
	c0.026,0,0.026,0,0.054,0c0.381,0.23,0.817,0.358,1.226,0.407C360.115,329.857,356.045,331.137,357.35,331.368z M402.816,339.918
	c-0.256,1.021,0.077,1.638,1.001,2.074C403.891,341.044,403.584,340.481,402.816,339.918z M215.245,278.35
	c1.05,0.051,2.022-0.131,2.944-1.152C216.346,277.172,215.782,277.428,215.245,278.35z M198.835,285.518
	c1.152,0.074,1.946-0.361,2.97-0.922C200.576,284.596,199.654,284.596,198.835,285.518z M313.293,292.353
	c0-0.026,0.026-0.077,0.054-0.102v-0.026c0.026-0.028,0.026-0.028,0.026-0.028c0.179-0.461,0.026-0.794-0.384-0.998
	c-0.896,0.23,0.077,1.587,0.512,1.92C313.293,292.891,313.165,292.66,313.293,292.353z M144.358,384.18
	c0.589,0,0.896-0.307,0.947-0.922v-0.026C145.024,382.081,144.051,383.643,144.358,384.18z M202.01,286.619
	c0.794-0.282,1.28-0.538,1.638-1.075C202.982,285.595,202.419,285.748,202.01,286.619z M216.038,288.667
	c-0.41,0.179,0.026,0.179,0.256,0.026C216.192,288.692,216.09,288.616,216.038,288.667z M207.104,271.028
	c0.205-0.026,0.435-0.077,0.64-0.102C207.514,270.849,207.309,270.875,207.104,271.028z M206.08,271.31c0,0,0,0.026,0.026,0.026
	v-0.026H206.08z M206.106,271.31c0.358,0.1,0.64,0.074,0.845-0.259C206.669,271.08,206.31,271.028,206.106,271.31z M212.019,271.617
	v0.028c0.026,0,0.026-0.028,0.026-0.028H212.019z M211.456,271.899c0.23,0,0.486,0.077,0.563-0.256
	C211.738,271.617,211.533,271.643,211.456,271.899z M342.349,286.209C342.451,286.465,343.475,286.542,342.349,286.209
	L342.349,286.209z M313.6,293.198c0,0,0,0.026,0.026,0.051c0.026,0.077,0.077,0.156,0.077,0.205
	C313.754,293.326,313.702,293.249,313.6,293.198z M211.405,271.899c0,0.026,0,0.026,0,0.026c0.051,0.028,0.051,0.028,0.051-0.026
	C211.456,271.899,211.456,271.899,211.405,271.899z M211.098,272.001c0,0,0,0-0.026,0h-0.026c0.077,0.205,0.205,0.179,0.358-0.077
	C211.302,271.976,211.2,271.976,211.098,272.001z M232.858,449.179v0.026c0.026-0.026,0.051-0.051,0.051-0.051v-0.026
	C233.139,448.846,232.371,448.744,232.858,449.179z M172.672,317.672c-0.026,0-0.026,0-0.026,0c0,0.128,0.026,0.156,0.051,0.156
	c0.179,0.509,0.538,0.64,1.152,0.305C174.413,317.518,172.928,317.62,172.672,317.672z M162.099,301.544
	c-0.64,0.358-0.794,0.666-0.358,0.998h0.026l0.026,0.028c0.102-0.028,0.128-0.054,0.128-0.077
	C162.586,302.056,162.662,301.748,162.099,301.544z"/>
<path style="fill:#F2F2F2;" d="M280.504,133.162h-28.908l-12.124,40.422h7.478c2.662,0,5.376-0.658,7.864-2.068
	c2.501-1.4,4.47-3.374,5.85-5.66L280.504,133.162z"/>
<path style="fill:#F15424;" d="M252.268,172.666c0.87-0.3,1.72-0.676,2.547-1.152c2.501-1.4,4.47-3.374,5.85-5.66l19.84-32.696
	h-4.275L252.268,172.666z"/>
<path style="fill:#FFFFFF;" d="M280.504,133.162h-28.908l-12.124-40.425h7.478c2.662,0,5.376,0.666,7.864,2.068
	c2.501,1.403,4.47,3.379,5.85,5.66L280.504,133.162z"/>
<path style="fill:#F15424;" d="M252.268,93.654c0.87,0.302,1.72,0.684,2.547,1.152c2.501,1.403,4.47,3.379,5.85,5.66l19.84,32.696
	h-4.275L252.268,93.654z"/>
<g>
	<rect x="300.621" y="121.499" style="fill:#F2F2F2;" width="119.427" height="23.319"/>
	<path style="fill:#F2F2F2;" d="M441.664,133.162c-3.796-6.889-12.045-11.658-21.609-11.658c-9.559,0-17.81,4.769-21.609,11.658
		c3.791,6.889,12.05,11.661,21.609,11.661C429.619,144.823,437.868,140.049,441.664,133.162z"/>
	<path style="fill:#F2F2F2;" d="M300.621,121.504c-15.695,0-30.241,4.319-42.189,11.658c11.953,7.352,26.499,11.661,42.189,11.661
		c15.69,0,30.244-4.314,42.186-11.661C330.865,125.82,316.311,121.504,300.621,121.504z"/>
</g>
<path style="fill:#E6E5E5;" d="M441.646,133.198c-3.804,2.435-12.04,4.127-21.599,4.127H300.621c-15.665,0-30.19-1.521-42.12-4.127
	c11.93,7.322,26.445,11.625,42.12,11.625h119.427C429.604,144.823,437.834,140.061,441.646,133.198z"/>
<path style="fill:#FFFFFF;" d="M350.359,210.976c0.563,0,1.116-0.212,1.541-0.637c0.425-0.43,0.632-0.986,0.632-1.536v-10.278
	c0-0.55-0.207-1.108-0.632-1.528c-0.425-0.428-0.978-0.64-1.541-0.64h-0.471v14.62H350.359L350.359,210.976z"/>
<path style="fill:#2B4457;" d="M334.226,210.976h15.667v-14.623h-15.667c-10.199,0-19.476,1.285-26.33,3.379
	c-0.146,0.049-0.824,0.264-0.824,0.264c-0.172,0.061-0.34,0.169-0.471,0.343c-0.115,0.161-0.169,0.361-0.169,0.543v5.565
	c0,0.184,0.054,0.384,0.169,0.55c0.131,0.164,0.287,0.279,0.471,0.346c0,0,0.684,0.207,0.824,0.261
	C314.744,209.688,324.019,210.976,334.226,210.976L334.226,210.976z"/>
<path style="fill:#FFFFFF;" d="M362.696,181.221c0.556,0,1.119-0.212,1.541-0.643c0.425-0.422,0.64-0.975,0.64-1.533v-10.273
	c0-0.55-0.215-1.116-0.64-1.533c-0.422-0.425-0.986-0.64-1.541-0.64h-0.461v14.623H362.696L362.696,181.221z"/>
<path style="fill:#2B4457;" d="M346.568,181.221h15.667v-14.625h-15.667c-10.202,0-19.471,1.288-26.33,3.382
	c-0.154,0.044-0.832,0.259-0.832,0.259c-0.179,0.056-0.343,0.177-0.463,0.343c-0.118,0.164-0.172,0.358-0.172,0.553v5.558
	c0,0.184,0.054,0.376,0.172,0.543c0.12,0.169,0.276,0.279,0.463,0.34c0,0,0.684,0.212,0.832,0.259
	C327.094,179.931,336.366,181.221,346.568,181.221L346.568,181.221z"/>
<path style="fill:#F2F2F2;" d="M304.015,242.643l9.362-3.159c2.363-0.791,4.616-1.997,6.659-3.638
	c2.051-1.638,3.72-3.576,5.015-5.699l51.75-85.325h-50.529v23.652L304.015,242.643z"/>
<polygon style="fill:#CCCBCA;" points="306.404,234.689 326.267,168.475 326.267,144.823 329.674,144.823 329.674,168.475 
	307.75,234.234 "/>
<path style="fill:#F15424;" d="M315.653,238.565c1.544-0.719,3.003-1.618,4.383-2.721c2.051-1.638,3.712-3.576,5.01-5.699
	l51.75-85.325h-4.275L315.653,238.565z"/>
<path style="fill:#F2F2F2;" d="M350.359,55.351c0.563,0,1.116,0.21,1.541,0.64c0.425,0.428,0.632,0.978,0.632,1.536v10.266
	c0,0.553-0.207,1.108-0.632,1.536c-0.425,0.425-0.978,0.64-1.541,0.64h-0.471v-14.62L350.359,55.351L350.359,55.351z"/>
<path style="fill:#2B4457;" d="M334.226,55.351h15.667v14.623h-15.667c-10.199,0-19.476-1.288-26.33-3.377
	c-0.146-0.054-0.824-0.266-0.824-0.266c-0.172-0.059-0.34-0.169-0.471-0.343c-0.115-0.164-0.169-0.353-0.169-0.545v-5.56
	c0-0.195,0.054-0.384,0.169-0.55c0.131-0.166,0.287-0.282,0.471-0.335c0,0,0.684-0.218,0.824-0.274
	C314.744,56.641,324.019,55.351,334.226,55.351L334.226,55.351z"/>
<path style="fill:#F2F2F2;" d="M362.696,85.101c0.556,0,1.119,0.218,1.541,0.64c0.425,0.425,0.64,0.991,0.64,1.546v10.258
	c0,0.558-0.215,1.116-0.64,1.539c-0.422,0.435-0.986,0.643-1.541,0.643h-0.461V85.101H362.696L362.696,85.101z"/>
<path style="fill:#2B4457;" d="M346.568,85.101h15.667v14.63h-15.667c-10.202,0-19.471-1.288-26.33-3.382
	c-0.154-0.049-0.832-0.264-0.832-0.264c-0.179-0.061-0.343-0.177-0.463-0.346c-0.118-0.159-0.172-0.353-0.172-0.543v-5.565
	c0-0.184,0.054-0.381,0.172-0.54c0.12-0.169,0.276-0.282,0.463-0.34c0,0,0.684-0.223,0.832-0.266
	C327.094,86.388,336.366,85.101,346.568,85.101L346.568,85.101z"/>
<path style="fill:#F2F2F2;" d="M304.015,23.679l9.362,3.159c2.363,0.796,4.616,1.997,6.659,3.645
	c2.051,1.631,3.72,3.576,5.015,5.693l51.75,85.33h-50.529V97.862L304.015,23.679z"/>
<polygon style="fill:#CCCBCA;" points="306.404,31.635 326.267,97.85 326.267,121.504 329.674,121.504 329.674,97.85 307.75,32.086 
	"/>
<path style="fill:#F15424;" d="M315.653,27.754c1.544,0.724,3.003,1.623,4.383,2.724c2.051,1.633,3.712,3.574,5.01,5.693
	l51.75,85.33h-4.275L315.653,27.754z"/>
<rect x="232.166" y="131.457" style="fill:#2B4457;" width="53.038" height="3.42"/>
<path style="fill:#CCCBCA;" d="M428.964,133.162c0,3.702-1.935,7.02-4.987,9.272c5.071-0.868,8.917-4.692,8.917-9.272
	c0-4.577-3.845-8.41-8.917-9.272C427.031,126.135,428.964,129.455,428.964,133.162z"/>
<g>
	<rect x="425.651" y="132.773" style="fill:#F2F2F2;" width="8.914" height="0.781"/>
	<rect x="425.651" y="127.83" style="fill:#F2F2F2;" width="8.914" height="0.771"/>
</g>
<rect x="425.651" y="137.724" style="fill:#E6E5E5;" width="8.914" height="0.773"/>
<g>
	<path style="fill:#CCCBCA;" d="M411.543,140.156c0-0.169,0.148-0.31,0.31-0.31h0.934c0.161,0,0.302,0.141,0.302,0.31v2.181
		c0,0.169-0.141,0.315-0.302,0.315h-0.934c-0.161,0-0.31-0.146-0.31-0.315V140.156z"/>
	<path style="fill:#CCCBCA;" d="M407.363,140.156c0-0.169,0.138-0.31,0.315-0.31h0.922c0.179,0,0.315,0.141,0.315,0.31v2.181
		c0,0.169-0.136,0.315-0.315,0.315h-0.922c-0.177,0-0.315-0.146-0.315-0.315V140.156z"/>
	<path style="fill:#CCCBCA;" d="M403.187,140.156c0-0.169,0.131-0.31,0.31-0.31h0.932c0.164,0,0.31,0.141,0.31,0.31v2.181
		c0,0.169-0.146,0.315-0.31,0.315h-0.932c-0.179,0-0.31-0.146-0.31-0.315V140.156z"/>
	<path style="fill:#CCCBCA;" d="M398.999,140.156c0-0.169,0.151-0.31,0.31-0.31h0.94c0.172,0,0.302,0.141,0.302,0.31v2.181
		c0,0.169-0.131,0.315-0.302,0.315h-0.94c-0.166,0-0.31-0.146-0.31-0.315V140.156z"/>
	<path style="fill:#CCCBCA;" d="M394.821,140.156c0-0.169,0.146-0.31,0.315-0.31h0.934c0.164,0,0.31,0.141,0.31,0.31v2.181
		c0,0.169-0.146,0.315-0.31,0.315h-0.934c-0.169,0-0.315-0.146-0.315-0.315V140.156z"/>
	<path style="fill:#CCCBCA;" d="M390.646,140.156c0-0.169,0.146-0.31,0.31-0.31h0.927c0.177,0,0.317,0.141,0.317,0.31v2.181
		c0,0.169-0.141,0.315-0.317,0.315h-0.927c-0.164,0-0.31-0.146-0.31-0.315V140.156z"/>
	<path style="fill:#CCCBCA;" d="M386.47,140.156c0-0.169,0.131-0.31,0.302-0.31h0.934c0.172,0,0.317,0.141,0.317,0.31v2.181
		c0,0.169-0.146,0.315-0.317,0.315h-0.934c-0.172,0-0.302-0.146-0.302-0.315V140.156z"/>
	<path style="fill:#CCCBCA;" d="M382.282,140.156c0-0.169,0.154-0.31,0.317-0.31h0.934c0.169,0,0.31,0.141,0.31,0.31v2.181
		c0,0.169-0.141,0.315-0.31,0.315H382.6c-0.172,0-0.317-0.146-0.317-0.315V140.156z"/>
	<path style="fill:#CCCBCA;" d="M378.109,140.156c0-0.169,0.136-0.31,0.3-0.31h0.945c0.161,0,0.305,0.141,0.305,0.31v2.181
		c0,0.169-0.143,0.315-0.305,0.315h-0.945c-0.164,0-0.3-0.146-0.3-0.315V140.156z"/>
	<path style="fill:#CCCBCA;" d="M368.748,140.156c0-0.169,0.143-0.31,0.315-0.31h0.927c0.174,0,0.31,0.141,0.31,0.31v2.181
		c0,0.169-0.136,0.315-0.31,0.315h-0.927c-0.172,0-0.315-0.146-0.315-0.315V140.156z"/>
	<path style="fill:#CCCBCA;" d="M364.572,140.156c0-0.169,0.138-0.31,0.31-0.31h0.927c0.169,0,0.325,0.141,0.325,0.31v2.181
		c0,0.169-0.156,0.315-0.325,0.315h-0.927c-0.172,0-0.31-0.146-0.31-0.315V140.156z"/>
	<path style="fill:#CCCBCA;" d="M360.399,140.156c0-0.169,0.136-0.31,0.3-0.31h0.929c0.169,0,0.32,0.141,0.32,0.31v2.181
		c0,0.169-0.151,0.315-0.32,0.315h-0.929c-0.164,0-0.3-0.146-0.3-0.315V140.156z"/>
	<path style="fill:#CCCBCA;" d="M356.206,140.156c0-0.169,0.154-0.31,0.315-0.31h0.934c0.164,0,0.31,0.141,0.31,0.31v2.181
		c0,0.169-0.146,0.315-0.31,0.315h-0.934c-0.161,0-0.315-0.146-0.315-0.315V140.156z"/>
	<path style="fill:#CCCBCA;" d="M352.031,140.156c0-0.169,0.146-0.31,0.302-0.31h0.942c0.169,0,0.31,0.141,0.31,0.31v2.181
		c0,0.169-0.141,0.315-0.31,0.315h-0.942c-0.161,0-0.302-0.146-0.302-0.315V140.156z"/>
	<path style="fill:#CCCBCA;" d="M347.855,140.156c0-0.169,0.141-0.31,0.317-0.31h0.917c0.179,0,0.32,0.141,0.32,0.31v2.181
		c0,0.169-0.141,0.315-0.32,0.315h-0.917c-0.177,0-0.317-0.146-0.317-0.315V140.156z"/>
	<path style="fill:#CCCBCA;" d="M343.667,140.156c0-0.169,0.146-0.31,0.317-0.31h0.924c0.172,0,0.32,0.141,0.32,0.31v2.181
		c0,0.169-0.148,0.315-0.32,0.315h-0.924c-0.172,0-0.317-0.146-0.317-0.315V140.156z"/>
	<path style="fill:#CCCBCA;" d="M339.492,140.156c0-0.169,0.146-0.31,0.307-0.31h0.934c0.166,0,0.31,0.141,0.31,0.31v2.181
		c0,0.169-0.143,0.315-0.31,0.315h-0.934c-0.169,0-0.307-0.146-0.307-0.315V140.156z"/>
	<path style="fill:#CCCBCA;" d="M335.319,140.156c0-0.169,0.131-0.31,0.3-0.31h0.934c0.172,0,0.317,0.141,0.317,0.31v2.181
		c0,0.169-0.146,0.315-0.317,0.315h-0.934c-0.169,0-0.3-0.146-0.3-0.315V140.156z"/>
	<path style="fill:#CCCBCA;" d="M325.957,140.156c0-0.169,0.138-0.31,0.31-0.31h0.932c0.172,0,0.31,0.141,0.31,0.31v2.181
		c0,0.169-0.138,0.315-0.31,0.315h-0.932c-0.172,0-0.31-0.146-0.31-0.315V140.156z"/>
	<path style="fill:#CCCBCA;" d="M321.774,140.156c0-0.169,0.146-0.31,0.315-0.31h0.922c0.179,0,0.315,0.141,0.315,0.31v2.181
		c0,0.169-0.136,0.315-0.315,0.315h-0.922c-0.169,0-0.315-0.146-0.315-0.315V140.156z"/>
	<path style="fill:#CCCBCA;" d="M317.601,140.156c0-0.169,0.148-0.31,0.31-0.31h0.934c0.164,0,0.31,0.141,0.31,0.31v2.181
		c0,0.169-0.146,0.315-0.31,0.315h-0.934c-0.161,0-0.31-0.146-0.31-0.315V140.156z"/>
	<path style="fill:#CCCBCA;" d="M313.416,140.156c0-0.169,0.146-0.31,0.315-0.31h0.929c0.164,0,0.315,0.141,0.315,0.31v2.181
		c0,0.169-0.151,0.315-0.315,0.315h-0.929c-0.169,0-0.315-0.146-0.315-0.315V140.156z"/>
	<path style="fill:#CCCBCA;" d="M309.24,140.156c0-0.169,0.141-0.31,0.302-0.31h0.942c0.164,0,0.3,0.141,0.3,0.31v2.181
		c0,0.169-0.136,0.315-0.3,0.315h-0.942c-0.161,0-0.302-0.146-0.302-0.315V140.156z"/>
	<path style="fill:#CCCBCA;" d="M305.068,140.156c0-0.169,0.138-0.31,0.302-0.31h0.934c0.169,0,0.31,0.141,0.31,0.31v2.181
		c0,0.169-0.141,0.315-0.31,0.315h-0.934c-0.164,0-0.302-0.146-0.302-0.315V140.156z"/>
	<path style="fill:#CCCBCA;" d="M300.874,140.156c0-0.169,0.148-0.31,0.32-0.31h0.934c0.164,0,0.31,0.141,0.31,0.31v2.181
		c0,0.169-0.146,0.315-0.31,0.315h-0.934c-0.172,0-0.32-0.146-0.32-0.315V140.156z"/>
	<path style="fill:#CCCBCA;" d="M296.704,140.156c0-0.169,0.138-0.31,0.31-0.31h0.924c0.172,0,0.317,0.141,0.317,0.31v2.181
		c0,0.169-0.146,0.315-0.317,0.315h-0.924c-0.172,0-0.31-0.146-0.31-0.315V140.156z"/>
	<path style="fill:#CCCBCA;" d="M292.526,140.156c0-0.169,0.136-0.31,0.3-0.31h0.942c0.172,0,0.31,0.141,0.31,0.31v2.181
		c0,0.169-0.138,0.315-0.31,0.315h-0.942c-0.164,0-0.3-0.146-0.3-0.315V140.156z"/>
	<path style="fill:#CCCBCA;" d="M411.543,123.982c0-0.166,0.148-0.31,0.31-0.31h0.934c0.161,0,0.302,0.148,0.302,0.31v2.181
		c0,0.172-0.141,0.31-0.302,0.31h-0.934c-0.161,0-0.31-0.138-0.31-0.31V123.982z"/>
	<path style="fill:#CCCBCA;" d="M407.363,123.982c0-0.166,0.138-0.31,0.315-0.31h0.922c0.179,0,0.315,0.148,0.315,0.31v2.181
		c0,0.172-0.136,0.31-0.315,0.31h-0.922c-0.177,0-0.315-0.138-0.315-0.31V123.982z"/>
	<path style="fill:#CCCBCA;" d="M403.187,123.982c0-0.166,0.131-0.31,0.31-0.31h0.932c0.164,0,0.31,0.148,0.31,0.31v2.181
		c0,0.172-0.146,0.31-0.31,0.31h-0.932c-0.179,0-0.31-0.138-0.31-0.31V123.982z"/>
	<path style="fill:#CCCBCA;" d="M398.999,123.982c0-0.166,0.151-0.31,0.31-0.31h0.94c0.172,0,0.302,0.148,0.302,0.31v2.181
		c0,0.172-0.131,0.31-0.302,0.31h-0.94c-0.166,0-0.31-0.138-0.31-0.31V123.982z"/>
	<path style="fill:#CCCBCA;" d="M394.821,123.982c0-0.166,0.146-0.31,0.315-0.31h0.934c0.164,0,0.31,0.148,0.31,0.31v2.181
		c0,0.172-0.146,0.31-0.31,0.31h-0.934c-0.169,0-0.315-0.138-0.315-0.31V123.982z"/>
	<path style="fill:#CCCBCA;" d="M390.646,123.982c0-0.166,0.146-0.31,0.31-0.31h0.927c0.177,0,0.317,0.148,0.317,0.31v2.181
		c0,0.172-0.141,0.31-0.317,0.31h-0.927c-0.164,0-0.31-0.138-0.31-0.31V123.982z"/>
	<path style="fill:#CCCBCA;" d="M386.47,123.982c0-0.166,0.131-0.31,0.302-0.31h0.934c0.172,0,0.317,0.148,0.317,0.31v2.181
		c0,0.172-0.146,0.31-0.317,0.31h-0.934c-0.172,0-0.302-0.138-0.302-0.31V123.982z"/>
	<path style="fill:#CCCBCA;" d="M382.282,123.982c0-0.166,0.154-0.31,0.317-0.31h0.934c0.169,0,0.31,0.148,0.31,0.31v2.181
		c0,0.172-0.141,0.31-0.31,0.31H382.6c-0.172,0-0.317-0.138-0.317-0.31V123.982z"/>
	<path style="fill:#CCCBCA;" d="M378.109,123.982c0-0.166,0.136-0.31,0.3-0.31h0.945c0.161,0,0.305,0.148,0.305,0.31v2.181
		c0,0.172-0.143,0.31-0.305,0.31h-0.945c-0.164,0-0.3-0.138-0.3-0.31V123.982z"/>
	<path style="fill:#CCCBCA;" d="M368.748,123.982c0-0.166,0.143-0.31,0.315-0.31h0.927c0.174,0,0.31,0.148,0.31,0.31v2.181
		c0,0.172-0.136,0.31-0.31,0.31h-0.927c-0.172,0-0.315-0.138-0.315-0.31V123.982z"/>
	<path style="fill:#CCCBCA;" d="M364.572,123.982c0-0.166,0.138-0.31,0.31-0.31h0.927c0.169,0,0.325,0.148,0.325,0.31v2.181
		c0,0.172-0.156,0.31-0.325,0.31h-0.927c-0.172,0-0.31-0.138-0.31-0.31V123.982z"/>
	<path style="fill:#CCCBCA;" d="M360.399,123.982c0-0.166,0.136-0.31,0.3-0.31h0.929c0.169,0,0.32,0.148,0.32,0.31v2.181
		c0,0.172-0.151,0.31-0.32,0.31h-0.929c-0.164,0-0.3-0.138-0.3-0.31V123.982z"/>
	<path style="fill:#CCCBCA;" d="M356.206,123.982c0-0.166,0.154-0.31,0.315-0.31h0.934c0.164,0,0.31,0.148,0.31,0.31v2.181
		c0,0.172-0.146,0.31-0.31,0.31h-0.934c-0.161,0-0.315-0.138-0.315-0.31V123.982z"/>
	<path style="fill:#CCCBCA;" d="M352.031,123.982c0-0.166,0.146-0.31,0.302-0.31h0.942c0.169,0,0.31,0.148,0.31,0.31v2.181
		c0,0.172-0.141,0.31-0.31,0.31h-0.942c-0.161,0-0.302-0.138-0.302-0.31V123.982z"/>
	<path style="fill:#CCCBCA;" d="M347.855,123.982c0-0.166,0.141-0.31,0.317-0.31h0.917c0.179,0,0.32,0.148,0.32,0.31v2.181
		c0,0.172-0.141,0.31-0.32,0.31h-0.917c-0.177,0-0.317-0.138-0.317-0.31V123.982z"/>
	<path style="fill:#CCCBCA;" d="M343.667,123.982c0-0.166,0.146-0.31,0.317-0.31h0.924c0.172,0,0.32,0.148,0.32,0.31v2.181
		c0,0.172-0.148,0.31-0.32,0.31h-0.924c-0.172,0-0.317-0.138-0.317-0.31V123.982z"/>
	<path style="fill:#CCCBCA;" d="M339.492,123.982c0-0.166,0.146-0.31,0.307-0.31h0.934c0.166,0,0.31,0.148,0.31,0.31v2.181
		c0,0.172-0.143,0.31-0.31,0.31h-0.934c-0.169,0-0.307-0.138-0.307-0.31V123.982z"/>
	<path style="fill:#CCCBCA;" d="M335.319,123.982c0-0.166,0.131-0.31,0.3-0.31h0.934c0.172,0,0.317,0.148,0.317,0.31v2.181
		c0,0.172-0.146,0.31-0.317,0.31h-0.934c-0.169,0-0.3-0.138-0.3-0.31V123.982z"/>
	<path style="fill:#CCCBCA;" d="M325.957,123.982c0-0.166,0.138-0.31,0.31-0.31h0.932c0.172,0,0.31,0.148,0.31,0.31v2.181
		c0,0.172-0.138,0.31-0.31,0.31h-0.932c-0.172,0-0.31-0.138-0.31-0.31V123.982z"/>
	<path style="fill:#CCCBCA;" d="M321.774,123.982c0-0.166,0.146-0.31,0.315-0.31h0.922c0.179,0,0.315,0.148,0.315,0.31v2.181
		c0,0.172-0.136,0.31-0.315,0.31h-0.922c-0.169,0-0.315-0.138-0.315-0.31V123.982z"/>
	<path style="fill:#CCCBCA;" d="M317.601,123.982c0-0.166,0.148-0.31,0.31-0.31h0.934c0.164,0,0.31,0.148,0.31,0.31v2.181
		c0,0.172-0.146,0.31-0.31,0.31h-0.934c-0.161,0-0.31-0.138-0.31-0.31V123.982z"/>
	<path style="fill:#CCCBCA;" d="M313.416,123.982c0-0.166,0.146-0.31,0.315-0.31h0.929c0.164,0,0.315,0.148,0.315,0.31v2.181
		c0,0.172-0.151,0.31-0.315,0.31h-0.929c-0.169,0-0.315-0.138-0.315-0.31V123.982z"/>
	<path style="fill:#CCCBCA;" d="M309.24,123.982c0-0.166,0.141-0.31,0.302-0.31h0.942c0.164,0,0.3,0.148,0.3,0.31v2.181
		c0,0.172-0.136,0.31-0.3,0.31h-0.942c-0.161,0-0.302-0.138-0.302-0.31V123.982z"/>
	<path style="fill:#CCCBCA;" d="M305.068,123.982c0-0.166,0.138-0.31,0.302-0.31h0.934c0.169,0,0.31,0.148,0.31,0.31v2.181
		c0,0.172-0.141,0.31-0.31,0.31h-0.934c-0.164,0-0.302-0.138-0.302-0.31V123.982z"/>
	<path style="fill:#CCCBCA;" d="M300.874,123.982c0-0.166,0.148-0.31,0.32-0.31h0.934c0.164,0,0.31,0.148,0.31,0.31v2.181
		c0,0.172-0.146,0.31-0.31,0.31h-0.934c-0.172,0-0.32-0.138-0.32-0.31V123.982z"/>
	<path style="fill:#CCCBCA;" d="M296.704,123.982c0-0.166,0.138-0.31,0.31-0.31h0.924c0.172,0,0.317,0.148,0.317,0.31v2.181
		c0,0.172-0.146,0.31-0.317,0.31h-0.924c-0.172,0-0.31-0.138-0.31-0.31V123.982z"/>
	<path style="fill:#CCCBCA;" d="M292.526,123.982c0-0.166,0.136-0.31,0.3-0.31h0.942c0.172,0,0.31,0.148,0.31,0.31v2.181
		c0,0.172-0.138,0.31-0.31,0.31h-0.942c-0.164,0-0.3-0.138-0.3-0.31V123.982z"/>
</g>
<path style="fill:#CECDCC;" d="M272.179,139.821l-4.214,6.927h-20.452l3.556-11.886h10.296c0.571,0.325,1.126,0.645,1.7,0.945
	c0.776,0.402,1.587,0.809,2.401,1.188c0.778,0.376,1.579,0.727,2.368,1.103c0.033,0.026,0.056,0.026,0.079,0.026
	c0.353,0.133,0.676,0.269,1.021,0.433c0.545,0.215,1.075,0.43,1.641,0.648c0.299,0.133,0.625,0.241,0.95,0.374
	C271.744,139.66,271.964,139.739,272.179,139.821z"/>
<g>
	<path style="fill:#CD471E;" d="M275.704,141.06l-3.446,5.688h-4.285l4.206-6.927c0.246,0.079,0.509,0.187,0.755,0.269
		c0.023,0,0.054,0.026,0.079,0.026c0.399,0.161,0.801,0.3,1.216,0.433c0.433,0.136,0.858,0.297,1.29,0.43
		C275.574,141.006,275.656,141.034,275.704,141.06z"/>
	<path style="fill:#CD471E;" d="M275.704,125.27c-1.18,0.379-2.371,0.781-3.525,1.239l-0.975-1.646
		c1.16-0.43,2.35-0.835,3.535-1.213L275.704,125.27z"/>
</g>
<path style="fill:#CECDCC;" d="M272.179,126.509c-3.771,1.375-7.386,3.018-10.78,4.933H251.08l-0.568-1.861h10.378
	c3.31-1.807,6.763-3.397,10.314-4.718L272.179,126.509z"/>
<g>
	<polygon style="fill:#233645;" points="348.096,196.356 339.22,210.961 336.694,210.961 345.536,196.356 	"/>
	<polygon style="fill:#233645;" points="362.24,168.815 362.24,173.047 357.281,181.213 354.721,181.213 	"/>
</g>
<path style="fill:#C5C1C3;" d="M364.874,168.598v0.084l-2.634,4.365v-4.232l1.239-2.048h0.028c0.266,0.108,0.507,0.269,0.727,0.458
	c0.294,0.3,0.509,0.676,0.586,1.05C364.854,168.383,364.854,168.49,364.874,168.598z"/>
<polygon style="fill:#233645;" points="362.24,93.283 362.24,97.514 354.721,85.091 357.281,85.091 "/>
<path style="fill:#C5C1C3;" d="M364.874,97.647v0.082c-0.026,0.105-0.026,0.212-0.054,0.294c-0.031,0.133-0.077,0.269-0.138,0.379
	c-0.108,0.241-0.269,0.484-0.461,0.673c-0.215,0.215-0.461,0.376-0.727,0.484h-0.023l-1.242-2.045v-4.232L364.874,97.647z"/>
<polygon style="fill:#233645;" points="348.096,69.974 345.536,69.974 336.666,55.341 339.22,55.341 "/>
<rect x="326.246" y="144.846" style="fill:#CD471E;" width="3.425" height="9.592"/>
<polygon style="fill:#CECDCC;" points="372.503,144.833 366.679,154.426 329.684,154.426 329.684,144.833 "/>
<g>
	<polygon style="fill:#CD471E;" points="376.796,144.833 370.97,154.426 366.679,154.426 372.503,144.833 	"/>
	<rect x="326.246" y="119.556" style="fill:#CD471E;" width="3.425" height="1.94"/>
</g>
<polygon style="fill:#CECDCC;" points="372.503,121.496 329.684,121.496 329.684,119.556 371.315,119.556 "/>
<polygon style="fill:#CD471E;" points="376.796,121.496 372.503,121.496 371.315,119.556 375.629,119.556 "/>
<g>
	<path style="fill:#FFFFFF;" d="M88.128,287.535c-1.324,0-2.588,0.223-3.773,0.635c0.34-1.769,0.53-3.587,0.53-5.455
		c0-15.544-12.588-28.122-28.129-28.122c-15.549,0-28.145,12.59-28.145,28.122c0,0.215,0.018,0.415,0.018,0.617
		c-1.779-0.786-3.745-1.226-5.819-1.226c-7.949,0-14.382,6.436-14.382,14.374c0,7.939,6.438,14.38,14.382,14.38l65.318-0.008
		c6.438,0,11.661-5.217,11.661-11.661C99.789,292.755,94.566,287.535,88.128,287.535z"/>
	<path style="fill:#FFFFFF;" d="M410.66,259.964c0.013,0,0.02,0,0.026,0c-0.005-0.307-0.026-0.612-0.026-0.916
		c0-17.812,14.446-32.259,32.256-32.259c14.564,0,26.87,9.659,30.874,22.915c2.427-1.149,5.146-1.792,8.01-1.792
		c10.378,0,18.801,8.417,18.801,18.801c0,2.399-0.451,4.68-1.265,6.784c0.21-0.015,0.41-0.036,0.62-0.036
		c6.659,0,12.05,5.394,12.05,12.05s-5.391,12.055-12.05,12.055h-89.29c-10.383,0-18.796-8.415-18.796-18.806
		C391.864,268.379,400.279,259.964,410.66,259.964z"/>
	<path style="fill:#FFFFFF;" d="M19.794,148.42c-0.067-0.978-0.1-1.948-0.1-2.934c0-26.422,21.44-47.857,47.849-47.857
		c25.106,0,45.676,19.325,47.683,43.914c2.488-0.771,5.1-1.183,7.831-1.183c7.025,0,13.389,2.742,18.145,7.206
		c5.256-7.642,14.085-12.664,24.074-12.664c15.511,0.005,28.196,12.099,29.143,27.379c1.388-0.399,2.852-0.617,4.352-0.617
		c8.755,0,15.826,7.086,15.836,15.836c0,8.748-7.099,15.834-15.836,15.828H22.546C10.089,193.33,0,183.243,0,170.781
		C0,159.272,8.645,149.766,19.794,148.42z"/>
</g>
<g>
	<path style="fill:#F2F2F2;" d="M41.999,273.586c0-5.097,0.243-10.135,0.589-15.145c-8.353,4.874-13.98,13.911-13.98,24.274
		c0,0.215,0.018,0.415,0.018,0.617c-1.779-0.786-3.745-1.226-5.819-1.226c-7.949,0-14.382,6.436-14.382,14.374
		c0,7.939,6.438,14.38,14.382,14.38h22.479C43.169,298.746,41.999,286.307,41.999,273.586z"/>
	<path style="fill:#F2F2F2;" d="M57.564,193.33c11.354-28.147,28.485-53.327,49.951-74.079c-8.55-13.01-23.235-21.622-39.969-21.622
		c-26.412,0-47.849,21.435-47.849,47.857c0,0.986,0.033,1.953,0.1,2.934C8.645,149.766,0,159.272,0,170.781
		c0,12.462,10.089,22.548,22.546,22.548H57.564z"/>
	<path style="fill:#F2F2F2;" d="M499.95,273.455c-0.21,0-0.41,0.023-0.62,0.038c0.814-2.104,1.265-4.39,1.265-6.781
		c0-10.386-8.422-18.803-18.801-18.803c-2.865,0-5.581,0.643-8.01,1.792c-1.085-3.587-2.79-6.894-4.966-9.833
		c1.733,10.988,2.655,22.241,2.655,33.718c0,8.113-0.486,16.105-1.365,23.979h29.842c6.656,0,12.05-5.402,12.05-12.055
		C512,278.857,506.606,273.455,499.95,273.455z"/>
</g>
<g>
</g>
<g>
</g>
<g>
</g>
<g>
</g>
<g>
</g>
<g>
</g>
<g>
</g>
<g>
</g>
<g>
</g>
<g>
</g>
<g>
</g>
<g>
</g>
<g>
</g>
<g>
</g>
<g>
</g>
</svg>
