<?xml version="1.0" encoding="iso-8859-1"?>
<!-- Generator: Adobe Illustrator 19.0.0, SVG Export Plug-In . SVG Version: 6.00 Build 0)  -->
<svg version="1.1" id="Layer_1" xmlns="http://www.w3.org/2000/svg" xmlns:xlink="http://www.w3.org/1999/xlink" x="0px" y="0px"
	 viewBox="0 0 512 512" style="enable-background:new 0 0 512 512;" xml:space="preserve">
<path style="fill:#E6EAEE;" d="M488.02,149.896H362.115l-19.53-15.611c-1.7-1.411-3.661-2.481-5.86-3.269
	c-2.186-0.76-4.406-1.121-6.61-1.121H194.23c-2.209,0-4.421,0.361-6.595,1.121c-2.199,0.791-4.18,1.861-5.911,3.269l-19.466,15.611
	H36.321c-13.174,0-23.98,10.78-23.98,23.98v301.801c0,13.199,10.806,23.959,23.98,23.959h451.699
	c13.199,0,23.979-10.76,23.979-23.959V173.875C512,160.676,501.22,149.896,488.02,149.896z"/>
<rect x="12.339" y="205.286" style="fill:#FF7059;" width="499.661" height="238.925"/>
<polygon style="fill:#5D6D7E;" points="362.849,424.535 397.041,367.204 412.25,392.225 392.095,425.994 "/>
<path style="fill:#34495E;" d="M413.074,324.805c0,83.32-67.566,150.871-150.904,150.871c-83.351,0-150.889-67.551-150.889-150.871
	c0-83.361,67.54-150.93,150.889-150.93C345.51,173.875,413.074,241.444,413.074,324.805z"/>
<path style="fill:#52BFEB;" d="M397.115,324.805c0,74.491-60.444,134.889-134.945,134.889c-74.509,0-134.909-60.401-134.909-134.889
	c0-74.55,60.401-134.961,134.909-134.961C336.671,189.844,397.115,250.255,397.115,324.805z"/>
<path style="fill:#80DCFF;" d="M386.634,324.805c0,68.7-55.731,124.421-124.465,124.421s-124.454-55.721-124.454-124.421
	c0-68.749,55.721-124.49,124.454-124.49S386.634,256.054,386.634,324.805z"/>
<path style="fill:#6BCEF5;" d="M317.829,324.805c0,30.7-24.945,55.621-55.659,55.621c-30.735,0-55.66-24.919-55.66-55.621
	c0-30.771,24.924-55.7,55.66-55.7C292.884,269.105,317.829,294.034,317.829,324.805z"/>
<g>
	<path style="fill:#C0FAFF;" d="M196.79,311.066l-36.769-7.47c8.289-40.901,40.074-72.699,80.98-81.001l7.47,36.79
		C222.374,264.694,202.115,284.974,196.79,311.066z"/>
	<path style="fill:#C0FAFF;" d="M301.289,420.324l-14.31-34.711c16.23-6.679,29.35-19.83,36.04-36.06l34.711,14.341
		C347.279,389.284,326.689,409.846,301.289,420.324z"/>
</g>
<path style="fill:#34495E;" d="M79.941,430.264c0,7.67-6.28,13.96-13.98,13.96h-51.96C6.29,444.224,0,437.934,0,430.264v-210.97
	c0-7.7,6.29-14.001,14.001-14.001h51.96c7.7,0,13.98,6.3,13.98,14.001C79.941,219.295,79.941,430.264,79.941,430.264z"/>
<path style="fill:#F6F8FB;" d="M409.705,187.164c0,2.26,1.841,4.091,4.086,4.091h39.626c2.255,0,4.076-1.83,4.076-4.091v-19.1
	c0-2.281-1.82-4.109-4.076-4.109h-39.626c-2.245,0-4.086,1.83-4.086,4.109V187.164z"/>
<path style="fill:#AAB5BD;" d="M453.414,163.955h-39.626c-2.245,0-4.086,1.83-4.086,4.109v19.1c0,2.26,1.841,4.091,4.086,4.091
	h39.626c2.255,0,4.076-1.83,4.076-4.091v-19.1C457.49,165.786,455.67,163.955,453.414,163.955z M455.77,187.164
	c0,1.321-1.055,2.371-2.355,2.371h-39.626c-1.3,0-2.376-1.05-2.376-2.371v-19.1c0-1.331,1.075-2.409,2.376-2.409h39.626
	c1.3,0,2.355,1.08,2.355,2.409V187.164z"/>
<path style="fill:#FF7059;" d="M108.511,177.595c0,5.509-4.449,9.999-9.999,9.999c-5.509,0-9.971-4.49-9.971-9.999
	c0-5.53,4.46-9.999,9.971-9.999C104.059,167.596,108.511,172.065,108.511,177.595z"/>
<rect x="237.21" y="113.915" style="fill:#5D6D7E;" width="49.951" height="15.98"/>
<path style="fill:#34495E;" d="M347.146,39.444c0-14.871-12.25-27.08-27.241-27.08H204.416c-14.95,0-27.185,12.211-27.185,27.08
	v47.401c0,14.889,12.234,27.069,27.185,27.069h115.489c14.989,0,27.241-12.18,27.241-27.069V39.444z"/>
<path style="fill:#F6F8FB;" d="M204.416,101.916c-8.394,0-15.186-6.751-15.186-15.071V39.444c0-8.32,6.789-15.06,15.186-15.06
	h115.489c8.404,0,15.24,6.74,15.24,15.06v47.401c0,8.32-6.835,15.071-15.24,15.071H204.416z"/>
<rect x="87.552" y="145.874" style="fill:#5D6D7E;" width="21.97" height="4.019"/>
<g>
	<rect x="78.541" y="125.901" style="fill:#34495E;" width="39.969" height="19.981"/>
	<rect x="409.702" y="139.648" style="fill:#34495E;" width="30.71" height="10.24"/>
</g>
<path style="fill:#AAB5BD;" d="M342.584,134.285c-1.7-1.411-3.661-2.481-5.86-3.269c-2.186-0.76-4.406-1.121-6.61-1.121H194.23
	c-2.209,0-4.421,0.361-6.595,1.121c-2.199,0.791-4.18,1.861-5.911,3.269l-19.466,15.611h199.854L342.584,134.285z"/>
<g>
</g>
<g>
</g>
<g>
</g>
<g>
</g>
<g>
</g>
<g>
</g>
<g>
</g>
<g>
</g>
<g>
</g>
<g>
</g>
<g>
</g>
<g>
</g>
<g>
</g>
<g>
</g>
<g>
</g>
</svg>
